<?xml version="1.0" encoding="utf-8" standalone="no"?>
<!DOCTYPE svg PUBLIC "-//W3C//DTD SVG 1.1//EN"
  "http://www.w3.org/Graphics/SVG/1.1/DTD/svg11.dtd">
<svg xmlns:xlink="http://www.w3.org/1999/xlink" width="252pt" height="252pt" viewBox="0 0 252 252" xmlns="http://www.w3.org/2000/svg" version="1.1">
 <metadata>
  <rdf:RDF xmlns:dc="http://purl.org/dc/elements/1.1/" xmlns:cc="http://creativecommons.org/ns#" xmlns:rdf="http://www.w3.org/1999/02/22-rdf-syntax-ns#">
   <cc:Work>
    <dc:type rdf:resource="http://purl.org/dc/dcmitype/StillImage"/>
    <dc:date>2023-12-04T15:56:29.199770</dc:date>
    <dc:format>image/svg+xml</dc:format>
    <dc:creator>
     <cc:Agent>
      <dc:title>Matplotlib v3.7.1, https://matplotlib.org/</dc:title>
     </cc:Agent>
    </dc:creator>
   </cc:Work>
  </rdf:RDF>
 </metadata>
 <defs>
  <style type="text/css">*{stroke-linejoin: round; stroke-linecap: butt}</style>
 </defs>
 <g id="figure_1">
  <g id="patch_1">
   <path d="M 0 252 
L 252 252 
L 252 0 
L 0 0 
z
" style="fill: #ffffff"/>
  </g>
  <g id="axes_1">
   <g id="patch_2">
    <path d="M 56.785178 206.687948 
L 248.99976 206.687948 
L 248.99976 3.00024 
L 56.785178 3.00024 
z
" style="fill: #ffffff"/>
   </g>
   <g id="matplotlib.axis_1">
    <g id="xtick_1">
     <g id="line2d_1">
      <defs>
       <path id="m313bfb1f42" d="M 0 0 
L 0 6 
" style="stroke: #262626; stroke-width: 1.25"/>
      </defs>
      <g>
       <use xlink:href="#m313bfb1f42" x="89.002846" y="206.687948" style="fill: #262626; stroke: #262626; stroke-width: 1.25"/>
      </g>
     </g>
     <g id="text_1">
      <!-- $\mathdefault{10^{1}}$ -->
      <g style="fill: #262626" transform="translate(79.762846 225.259197) scale(0.12 -0.12)">
       <defs>
        <path id="Avenir-Book-31" d="M 2227 0 
L 1766 0 
L 1766 3955 
L 954 3238 
L 666 3584 
L 1818 4531 
L 2227 4531 
L 2227 0 
z
" transform="scale(0.015625)"/>
        <path id="Avenir-Book-30" d="M 1779 4186 
Q 1408 4186 1193 3987 
Q 979 3789 870 3494 
Q 762 3200 733 2867 
Q 704 2534 704 2266 
Q 704 1997 733 1664 
Q 762 1331 870 1036 
Q 979 742 1193 544 
Q 1408 346 1779 346 
Q 2150 346 2364 544 
Q 2579 742 2688 1036 
Q 2797 1331 2825 1664 
Q 2854 1997 2854 2266 
Q 2854 2534 2825 2867 
Q 2797 3200 2688 3494 
Q 2579 3789 2364 3987 
Q 2150 4186 1779 4186 
z
M 1779 4608 
Q 2266 4608 2566 4384 
Q 2867 4160 3033 3814 
Q 3200 3469 3257 3056 
Q 3315 2643 3315 2266 
Q 3315 1888 3257 1475 
Q 3200 1062 3033 716 
Q 2867 371 2566 147 
Q 2266 -77 1779 -77 
Q 1293 -77 992 147 
Q 691 371 524 716 
Q 358 1062 300 1475 
Q 243 1888 243 2266 
Q 243 2643 300 3056 
Q 358 3469 524 3814 
Q 691 4160 992 4384 
Q 1293 4608 1779 4608 
z
" transform="scale(0.015625)"/>
       </defs>
       <use xlink:href="#Avenir-Book-31" transform="translate(0 0.684375)"/>
       <use xlink:href="#Avenir-Book-30" transform="translate(55.599991 0.684375)"/>
       <use xlink:href="#Avenir-Book-31" transform="translate(112.018927 33.442188) scale(0.7)"/>
      </g>
     </g>
    </g>
    <g id="xtick_2">
     <g id="line2d_2">
      <g>
       <use xlink:href="#m313bfb1f42" x="147.704453" y="206.687948" style="fill: #262626; stroke: #262626; stroke-width: 1.25"/>
      </g>
     </g>
     <g id="text_2">
      <!-- $\mathdefault{10^{3}}$ -->
      <g style="fill: #262626" transform="translate(138.464453 225.259197) scale(0.12 -0.12)">
       <defs>
        <path id="Avenir-Book-33" d="M 1306 2586 
L 1542 2586 
Q 1741 2586 1923 2630 
Q 2106 2675 2240 2774 
Q 2374 2874 2454 3034 
Q 2534 3194 2534 3418 
Q 2534 3782 2313 3984 
Q 2093 4186 1696 4186 
Q 1408 4186 1190 4058 
Q 973 3930 832 3686 
L 429 3891 
Q 634 4256 950 4432 
Q 1267 4608 1683 4608 
Q 1952 4608 2189 4531 
Q 2426 4454 2605 4304 
Q 2784 4154 2889 3933 
Q 2995 3712 2995 3430 
Q 2995 3245 2934 3078 
Q 2874 2912 2768 2777 
Q 2662 2643 2521 2544 
Q 2381 2445 2227 2394 
L 2246 2381 
Q 2438 2342 2598 2236 
Q 2758 2131 2873 1977 
Q 2989 1824 3053 1632 
Q 3117 1440 3117 1229 
Q 3117 915 3001 672 
Q 2886 429 2688 262 
Q 2490 96 2227 9 
Q 1965 -77 1670 -77 
Q 1171 -77 800 140 
Q 429 358 243 838 
L 730 986 
Q 845 659 1072 502 
Q 1299 346 1709 346 
Q 1901 346 2073 410 
Q 2246 474 2377 592 
Q 2509 710 2582 876 
Q 2656 1043 2656 1242 
Q 2656 1498 2560 1674 
Q 2464 1850 2304 1958 
Q 2144 2067 1936 2115 
Q 1728 2163 1504 2163 
L 1306 2163 
L 1306 2586 
z
" transform="scale(0.015625)"/>
       </defs>
       <use xlink:href="#Avenir-Book-31" transform="translate(0 0.842187)"/>
       <use xlink:href="#Avenir-Book-30" transform="translate(55.599991 0.842187)"/>
       <use xlink:href="#Avenir-Book-33" transform="translate(112.018927 33.6) scale(0.7)"/>
      </g>
     </g>
    </g>
    <g id="xtick_3">
     <g id="line2d_3">
      <g>
       <use xlink:href="#m313bfb1f42" x="206.406059" y="206.687948" style="fill: #262626; stroke: #262626; stroke-width: 1.25"/>
      </g>
     </g>
     <g id="text_3">
      <!-- $\mathdefault{10^{5}}$ -->
      <g style="fill: #262626" transform="translate(197.166059 225.259197) scale(0.12 -0.12)">
       <defs>
        <path id="Avenir-Book-35" d="M 2976 4109 
L 1120 4109 
L 1094 2746 
Q 1242 2803 1395 2828 
Q 1549 2854 1702 2854 
Q 2022 2854 2284 2745 
Q 2547 2637 2736 2441 
Q 2925 2246 3030 1980 
Q 3136 1715 3136 1402 
Q 3136 1075 3021 803 
Q 2906 531 2701 336 
Q 2496 141 2217 32 
Q 1939 -77 1613 -77 
Q 1184 -77 838 128 
Q 493 333 307 730 
L 762 928 
Q 890 659 1120 502 
Q 1350 346 1651 346 
Q 1869 346 2054 426 
Q 2240 506 2377 640 
Q 2515 774 2595 960 
Q 2675 1146 2675 1357 
Q 2675 1594 2592 1792 
Q 2509 1990 2361 2134 
Q 2214 2278 2009 2355 
Q 1805 2432 1562 2432 
Q 1318 2432 1078 2365 
Q 838 2298 621 2182 
L 666 4531 
L 2976 4531 
L 2976 4109 
z
" transform="scale(0.015625)"/>
       </defs>
       <use xlink:href="#Avenir-Book-31" transform="translate(0 0.684375)"/>
       <use xlink:href="#Avenir-Book-30" transform="translate(55.599991 0.684375)"/>
       <use xlink:href="#Avenir-Book-35" transform="translate(112.018927 33.442188) scale(0.7)"/>
      </g>
     </g>
    </g>
    <g id="text_4">
     <!-- n -->
     <g style="fill: #262626" transform="translate(148.556156 244.507448) scale(0.156 -0.156)">
      <defs>
       <path id="Avenir-Book-6e" d="M 864 2995 
Q 877 2874 880 2755 
Q 883 2637 883 2515 
L 896 2515 
Q 966 2637 1075 2739 
Q 1184 2842 1318 2915 
Q 1453 2989 1603 3030 
Q 1754 3072 1901 3072 
Q 2477 3072 2752 2768 
Q 3027 2464 3027 1901 
L 3027 0 
L 2605 0 
L 2605 1658 
Q 2605 2157 2432 2422 
Q 2259 2688 1792 2688 
Q 1760 2688 1613 2662 
Q 1466 2637 1302 2521 
Q 1139 2406 1011 2176 
Q 883 1946 883 1536 
L 883 0 
L 461 0 
L 461 2336 
Q 461 2458 451 2643 
Q 442 2829 429 2995 
L 864 2995 
z
" transform="scale(0.015625)"/>
      </defs>
      <use xlink:href="#Avenir-Book-6e"/>
     </g>
    </g>
   </g>
   <g id="matplotlib.axis_2">
    <g id="ytick_1">
     <g id="line2d_4">
      <defs>
       <path id="m3d954f3c1a" d="M 0 0 
L -6 0 
" style="stroke: #262626; stroke-width: 1.25"/>
      </defs>
      <g>
       <use xlink:href="#m3d954f3c1a" x="56.785178" y="151.457644" style="fill: #262626; stroke: #262626; stroke-width: 1.25"/>
      </g>
     </g>
     <g id="text_5">
      <!-- $\mathdefault{10^{-7}}$ -->
      <g style="fill: #262626" transform="translate(23.285178 155.993269) scale(0.12 -0.12)">
       <defs>
        <path id="Avenir-Book-2212" d="M 3763 1747 
L 499 1747 
L 499 2131 
L 3763 2131 
L 3763 1747 
z
" transform="scale(0.015625)"/>
        <path id="Avenir-Book-37" d="M 3034 4109 
L 1210 0 
L 691 0 
L 2554 4109 
L 346 4109 
L 346 4531 
L 3034 4531 
L 3034 4109 
z
" transform="scale(0.015625)"/>
       </defs>
       <use xlink:href="#Avenir-Book-31" transform="translate(0 0.684375)"/>
       <use xlink:href="#Avenir-Book-30" transform="translate(55.599991 0.684375)"/>
       <use xlink:href="#Avenir-Book-2212" transform="translate(112.018927 33.442188) scale(0.7)"/>
       <use xlink:href="#Avenir-Book-37" transform="translate(158.638921 33.442188) scale(0.7)"/>
      </g>
     </g>
    </g>
    <g id="ytick_2">
     <g id="line2d_5">
      <g>
       <use xlink:href="#m3d954f3c1a" x="56.785178" y="107.765488" style="fill: #262626; stroke: #262626; stroke-width: 1.25"/>
      </g>
     </g>
     <g id="text_6">
      <!-- $\mathdefault{10^{-5}}$ -->
      <g style="fill: #262626" transform="translate(23.285178 112.301113) scale(0.12 -0.12)">
       <use xlink:href="#Avenir-Book-31" transform="translate(0 0.684375)"/>
       <use xlink:href="#Avenir-Book-30" transform="translate(55.599991 0.684375)"/>
       <use xlink:href="#Avenir-Book-2212" transform="translate(112.018927 33.442188) scale(0.7)"/>
       <use xlink:href="#Avenir-Book-35" transform="translate(158.638921 33.442188) scale(0.7)"/>
      </g>
     </g>
    </g>
    <g id="ytick_3">
     <g id="line2d_6">
      <g>
       <use xlink:href="#m3d954f3c1a" x="56.785178" y="64.073332" style="fill: #262626; stroke: #262626; stroke-width: 1.25"/>
      </g>
     </g>
     <g id="text_7">
      <!-- $\mathdefault{10^{-3}}$ -->
      <g style="fill: #262626" transform="translate(23.285178 68.608957) scale(0.12 -0.12)">
       <use xlink:href="#Avenir-Book-31" transform="translate(0 0.842187)"/>
       <use xlink:href="#Avenir-Book-30" transform="translate(55.599991 0.842187)"/>
       <use xlink:href="#Avenir-Book-2212" transform="translate(112.018927 33.6) scale(0.7)"/>
       <use xlink:href="#Avenir-Book-33" transform="translate(158.638921 33.6) scale(0.7)"/>
      </g>
     </g>
    </g>
    <g id="ytick_4">
     <g id="line2d_7">
      <g>
       <use xlink:href="#m3d954f3c1a" x="56.785178" y="20.381176" style="fill: #262626; stroke: #262626; stroke-width: 1.25"/>
      </g>
     </g>
     <g id="text_8">
      <!-- $\mathdefault{10^{-1}}$ -->
      <g style="fill: #262626" transform="translate(23.285178 24.916801) scale(0.12 -0.12)">
       <use xlink:href="#Avenir-Book-31" transform="translate(0 0.684375)"/>
       <use xlink:href="#Avenir-Book-30" transform="translate(55.599991 0.684375)"/>
       <use xlink:href="#Avenir-Book-2212" transform="translate(112.018927 33.442188) scale(0.7)"/>
       <use xlink:href="#Avenir-Book-31" transform="translate(158.638921 33.442188) scale(0.7)"/>
      </g>
     </g>
    </g>
    <g id="text_9">
     <!-- P(n) -->
     <g style="fill: #262626" transform="translate(14.792865 117.714094) rotate(-90) scale(0.156 -0.156)">
      <defs>
       <path id="Avenir-Book-50" d="M 1075 2528 
L 1818 2528 
Q 2125 2528 2339 2592 
Q 2554 2656 2682 2761 
Q 2810 2867 2867 3011 
Q 2925 3155 2925 3322 
Q 2925 3482 2867 3626 
Q 2810 3770 2682 3878 
Q 2554 3987 2339 4048 
Q 2125 4109 1818 4109 
L 1075 4109 
L 1075 2528 
z
M 614 4531 
L 1933 4531 
Q 2624 4531 3024 4230 
Q 3424 3930 3424 3322 
Q 3424 2714 3024 2410 
Q 2624 2106 1933 2106 
L 1075 2106 
L 1075 0 
L 614 0 
L 614 4531 
z
" transform="scale(0.015625)"/>
       <path id="Avenir-Book-28" d="M 1613 4493 
Q 1408 4166 1251 3859 
Q 1094 3552 985 3235 
Q 877 2918 822 2579 
Q 768 2240 768 1843 
Q 768 1446 822 1113 
Q 877 781 979 473 
Q 1082 166 1235 -134 
Q 1389 -435 1587 -768 
L 1248 -1024 
Q 819 -422 582 320 
Q 346 1062 346 1843 
Q 346 2586 579 3334 
Q 813 4083 1274 4710 
L 1613 4493 
z
" transform="scale(0.015625)"/>
       <path id="Avenir-Book-29" d="M 51 -806 
Q 256 -480 413 -173 
Q 570 134 678 451 
Q 787 768 841 1107 
Q 896 1446 896 1843 
Q 896 2240 841 2573 
Q 787 2906 684 3213 
Q 582 3520 428 3821 
Q 275 4122 77 4454 
L 416 4710 
Q 845 4109 1081 3366 
Q 1318 2624 1318 1843 
Q 1318 1101 1084 352 
Q 851 -397 390 -1024 
L 51 -806 
z
" transform="scale(0.015625)"/>
      </defs>
      <use xlink:href="#Avenir-Book-50"/>
      <use xlink:href="#Avenir-Book-28" x="57.399994"/>
      <use xlink:href="#Avenir-Book-6e" x="83.399979"/>
      <use xlink:href="#Avenir-Book-29" x="138.999969"/>
     </g>
    </g>
   </g>
   <g id="patch_3">
    <path d="M 67.732761 21844.612966 
L 78.648376 21844.612966 
L 78.648376 12.498802 
L 67.732761 12.498802 
z
" clip-path="url(#p1495c387f4)" style="fill: #000033; stroke: #ffffff; stroke-linejoin: miter"/>
   </g>
   <g id="patch_4">
    <path d="M 83.894197 21844.612966 
L 94.809812 21844.612966 
L 94.809812 35.038582 
L 83.894197 35.038582 
z
" clip-path="url(#p1495c387f4)" style="fill: #000033; stroke: #ffffff; stroke-linejoin: miter"/>
   </g>
   <g id="patch_5">
    <path d="M 100.055633 21844.612966 
L 110.971248 21844.612966 
L 110.971248 54.469547 
L 100.055633 54.469547 
z
" clip-path="url(#p1495c387f4)" style="fill: #000033; stroke: #ffffff; stroke-linejoin: miter"/>
   </g>
   <g id="patch_6">
    <path d="M 116.217068 21844.612966 
L 127.132684 21844.612966 
L 127.132684 68.402545 
L 116.217068 68.402545 
z
" clip-path="url(#p1495c387f4)" style="fill: #000033; stroke: #ffffff; stroke-linejoin: miter"/>
   </g>
   <g id="patch_7">
    <path d="M 132.378504 21844.612966 
L 143.294119 21844.612966 
L 143.294119 91.972363 
L 132.378504 91.972363 
z
" clip-path="url(#p1495c387f4)" style="fill: #000033; stroke: #ffffff; stroke-linejoin: miter"/>
   </g>
   <g id="patch_8">
    <path d="M 148.53994 21844.612966 
L 159.455555 21844.612966 
L 159.455555 110.577796 
L 148.53994 110.577796 
z
" clip-path="url(#p1495c387f4)" style="fill: #000033; stroke: #ffffff; stroke-linejoin: miter"/>
   </g>
   <g id="patch_9">
    <path d="M 164.701376 21844.612966 
L 175.616991 21844.612966 
L 175.616991 122.606904 
L 164.701376 122.606904 
z
" clip-path="url(#p1495c387f4)" style="fill: #000033; stroke: #ffffff; stroke-linejoin: miter"/>
   </g>
   <g id="patch_10">
    <path d="M 180.862811 21844.612966 
L 191.778426 21844.612966 
L 191.778426 147.788661 
L 180.862811 147.788661 
z
" clip-path="url(#p1495c387f4)" style="fill: #000033; stroke: #ffffff; stroke-linejoin: miter"/>
   </g>
   <g id="patch_11">
    <path d="M 197.024247 21844.612966 
L 207.939862 21844.612966 
L 207.939862 146.66512 
L 197.024247 146.66512 
z
" clip-path="url(#p1495c387f4)" style="fill: #000033; stroke: #ffffff; stroke-linejoin: miter"/>
   </g>
   <g id="patch_12">
    <path d="M 213.185683 21844.612966 
L 224.101298 21844.612966 
L 224.101298 21844.612966 
L 213.185683 21844.612966 
z
" clip-path="url(#p1495c387f4)" style="fill: #000033; stroke: #ffffff; stroke-linejoin: miter"/>
   </g>
   <g id="patch_13">
    <path d="M 229.347118 21844.612966 
L 240.262734 21844.612966 
L 240.262734 183.875986 
L 229.347118 183.875986 
z
" clip-path="url(#p1495c387f4)" style="fill: #000033; stroke: #ffffff; stroke-linejoin: miter"/>
   </g>
   <g id="line2d_8">
    <path d="M 65.522204 12.258772 
L 67.241746 14.129183 
L 68.961288 15.999593 
L 70.68083 17.870004 
L 72.400372 19.740414 
L 74.119914 21.610825 
L 75.839456 23.481235 
L 77.558998 25.351646 
L 79.27854 27.222056 
L 80.998082 29.092467 
L 82.717624 30.962878 
L 84.437166 32.833288 
L 86.156708 34.703699 
L 87.87625 36.574109 
L 89.595792 38.44452 
L 91.315334 40.31493 
L 93.034876 42.185341 
L 94.754418 44.055751 
L 96.47396 45.926162 
L 98.193502 47.796572 
L 99.913044 49.666983 
L 101.632586 51.537393 
L 103.352128 53.407804 
L 105.07167 55.278215 
L 106.791212 57.148625 
L 108.510754 59.019036 
L 110.230296 60.889446 
L 111.949838 62.759857 
L 113.66938 64.630267 
L 115.388922 66.500678 
L 117.108464 68.371088 
L 118.828006 70.241499 
L 120.547548 72.111909 
L 122.26709 73.98232 
L 123.986632 75.85273 
L 125.706174 77.723141 
L 127.425716 79.593551 
L 129.145258 81.463962 
L 130.8648 83.334373 
L 132.584342 85.204783 
L 134.303884 87.075194 
L 136.023426 88.945604 
L 137.742968 90.816015 
L 139.46251 92.686425 
L 141.182052 94.556836 
L 142.901594 96.427246 
L 144.621136 98.297657 
L 146.340678 100.168067 
L 148.06022 102.038478 
L 149.779762 103.908888 
L 151.499304 105.779299 
L 153.218846 107.64971 
L 154.938388 109.52012 
L 156.65793 111.390531 
L 158.377472 113.260941 
L 160.097014 115.131352 
L 161.816556 117.001762 
L 163.536098 118.872173 
L 165.25564 120.742583 
L 166.975182 122.612994 
L 168.694724 124.483404 
L 170.414266 126.353815 
L 172.133808 128.224225 
L 173.85335 130.094636 
L 175.572892 131.965047 
L 177.292434 133.835457 
L 179.011976 135.705868 
L 180.731518 137.576278 
L 182.45106 139.446689 
L 184.170602 141.317099 
L 185.890144 143.18751 
L 187.609686 145.05792 
L 189.329228 146.928331 
L 191.04877 148.798741 
L 192.768312 150.669152 
L 194.487854 152.539562 
L 196.207396 154.409973 
L 197.926938 156.280384 
L 199.64648 158.150794 
L 201.366022 160.021205 
L 203.085564 161.891615 
L 204.805106 163.762026 
L 206.524648 165.632436 
L 208.24419 167.502847 
L 209.963732 169.373257 
L 211.683274 171.243668 
L 213.402816 173.114078 
L 215.122358 174.984489 
L 216.8419 176.854899 
L 218.561442 178.72531 
L 220.280984 180.595721 
L 222.000526 182.466131 
L 223.720068 184.336542 
L 225.43961 186.206952 
L 227.159152 188.077363 
L 228.878694 189.947773 
L 230.598236 191.818184 
L 232.317778 193.688594 
L 234.03732 195.559005 
L 235.756862 197.429415 
" clip-path="url(#p1495c387f4)" style="fill: none; stroke: #004d40; stroke-width: 3; stroke-linecap: round"/>
   </g>
   <g id="PolyCollection_1"/>
   <g id="patch_14">
    <path d="M 56.785178 206.687948 
L 56.785178 3.00024 
" style="fill: none; stroke: #262626; stroke-width: 1.25; stroke-linejoin: miter; stroke-linecap: square"/>
   </g>
   <g id="patch_15">
    <path d="M 248.99976 206.687948 
L 248.99976 3.00024 
" style="fill: none; stroke: #262626; stroke-width: 1.25; stroke-linejoin: miter; stroke-linecap: square"/>
   </g>
   <g id="patch_16">
    <path d="M 56.785178 206.687948 
L 248.99976 206.687948 
" style="fill: none; stroke: #262626; stroke-width: 1.25; stroke-linejoin: miter; stroke-linecap: square"/>
   </g>
   <g id="patch_17">
    <path d="M 56.785178 3.00024 
L 248.99976 3.00024 
" style="fill: none; stroke: #262626; stroke-width: 1.25; stroke-linejoin: miter; stroke-linecap: square"/>
   </g>
   <g id="text_10">
    <!-- 180 DCM -->
    <g style="fill: #000033" transform="translate(152.892469 26.7915) scale(0.18 -0.18)">
     <defs>
      <path id="Avenir-Book-38" d="M 2752 1274 
Q 2752 1472 2681 1641 
Q 2611 1811 2486 1936 
Q 2362 2061 2179 2131 
Q 1997 2202 1779 2202 
Q 1555 2202 1376 2131 
Q 1197 2061 1072 1936 
Q 947 1811 876 1641 
Q 806 1472 806 1274 
Q 806 1075 876 905 
Q 947 736 1072 611 
Q 1197 486 1376 416 
Q 1555 346 1779 346 
Q 1997 346 2179 416 
Q 2362 486 2486 611 
Q 2611 736 2681 905 
Q 2752 1075 2752 1274 
z
M 2586 3386 
Q 2586 3558 2525 3705 
Q 2464 3853 2355 3958 
Q 2246 4064 2099 4125 
Q 1952 4186 1779 4186 
Q 1606 4186 1459 4125 
Q 1312 4064 1203 3958 
Q 1094 3853 1033 3705 
Q 973 3558 973 3386 
Q 973 3213 1033 3065 
Q 1094 2918 1203 2812 
Q 1312 2707 1459 2646 
Q 1606 2586 1779 2586 
Q 1952 2586 2099 2646 
Q 2246 2707 2355 2812 
Q 2464 2918 2525 3065 
Q 2586 3213 2586 3386 
z
M 1190 2413 
Q 1043 2464 918 2563 
Q 794 2662 704 2796 
Q 614 2931 563 3091 
Q 512 3251 512 3424 
Q 512 3693 614 3913 
Q 717 4134 889 4288 
Q 1062 4442 1292 4525 
Q 1523 4608 1779 4608 
Q 2035 4608 2265 4525 
Q 2496 4442 2669 4288 
Q 2842 4134 2944 3913 
Q 3046 3693 3046 3424 
Q 3046 3251 2995 3091 
Q 2944 2931 2854 2796 
Q 2765 2662 2640 2563 
Q 2515 2464 2368 2413 
L 2368 2400 
Q 2752 2298 2982 1978 
Q 3213 1658 3213 1210 
Q 3213 915 3094 678 
Q 2976 442 2781 272 
Q 2586 102 2326 12 
Q 2067 -77 1779 -77 
Q 1491 -77 1232 12 
Q 973 102 777 272 
Q 582 442 464 678 
Q 346 915 346 1210 
Q 346 1658 576 1978 
Q 806 2298 1190 2400 
L 1190 2413 
z
" transform="scale(0.015625)"/>
      <path id="Avenir-Book-20" transform="scale(0.015625)"/>
      <path id="Avenir-Book-44" d="M 1011 422 
L 1907 422 
Q 2426 422 2806 579 
Q 3187 736 3440 995 
Q 3693 1254 3814 1584 
Q 3936 1914 3936 2266 
Q 3936 2618 3814 2947 
Q 3693 3277 3440 3536 
Q 3187 3795 2806 3952 
Q 2426 4109 1907 4109 
L 1011 4109 
L 1011 422 
z
M 550 4531 
L 2054 4531 
Q 2477 4531 2902 4390 
Q 3328 4250 3670 3965 
Q 4013 3680 4224 3254 
Q 4435 2829 4435 2266 
Q 4435 1696 4224 1273 
Q 4013 851 3670 566 
Q 3328 282 2902 141 
Q 2477 0 2054 0 
L 550 0 
L 550 4531 
z
" transform="scale(0.015625)"/>
      <path id="Avenir-Book-43" d="M 4346 717 
Q 4230 544 4060 390 
Q 3891 237 3673 125 
Q 3456 13 3203 -51 
Q 2950 -115 2669 -115 
Q 2163 -115 1731 64 
Q 1299 243 982 560 
Q 666 877 486 1312 
Q 307 1747 307 2266 
Q 307 2784 486 3219 
Q 666 3654 982 3971 
Q 1299 4288 1731 4467 
Q 2163 4646 2669 4646 
Q 3091 4646 3513 4480 
Q 3936 4314 4237 3930 
L 3834 3629 
Q 3763 3738 3641 3846 
Q 3520 3955 3363 4038 
Q 3206 4122 3027 4173 
Q 2848 4224 2669 4224 
Q 2234 4224 1888 4064 
Q 1542 3904 1302 3635 
Q 1062 3366 934 3011 
Q 806 2656 806 2266 
Q 806 1875 934 1520 
Q 1062 1165 1302 896 
Q 1542 627 1888 467 
Q 2234 307 2669 307 
Q 2848 307 3024 339 
Q 3200 371 3369 448 
Q 3539 525 3689 656 
Q 3840 787 3968 986 
L 4346 717 
z
" transform="scale(0.015625)"/>
      <path id="Avenir-Book-4d" d="M 2848 845 
L 4378 4531 
L 5082 4531 
L 5082 0 
L 4621 0 
L 4621 3917 
L 4608 3917 
L 2970 0 
L 2726 0 
L 1088 3917 
L 1075 3917 
L 1075 0 
L 614 0 
L 614 4531 
L 1318 4531 
L 2848 845 
z
" transform="scale(0.015625)"/>
     </defs>
     <use xlink:href="#Avenir-Book-31"/>
     <use xlink:href="#Avenir-Book-38" x="55.599991"/>
     <use xlink:href="#Avenir-Book-30" x="111.199982"/>
     <use xlink:href="#Avenir-Book-20" x="166.799973"/>
     <use xlink:href="#Avenir-Book-44" x="194.59996"/>
     <use xlink:href="#Avenir-Book-43" x="268.699951"/>
     <use xlink:href="#Avenir-Book-4d" x="339.099945"/>
    </g>
   </g>
  </g>
 </g>
 <defs>
  <clipPath id="p1495c387f4">
   <rect x="56.785178" y="3.00024" width="192.214582" height="203.687707"/>
  </clipPath>
 </defs>
</svg>
