<?xml version="1.0" encoding="utf-8" standalone="no"?>
<!DOCTYPE svg PUBLIC "-//W3C//DTD SVG 1.1//EN"
  "http://www.w3.org/Graphics/SVG/1.1/DTD/svg11.dtd">
<svg xmlns:xlink="http://www.w3.org/1999/xlink" width="366.924441pt" height="226.771776pt" viewBox="0 0 366.924441 226.771776" xmlns="http://www.w3.org/2000/svg" version="1.1">
 <metadata>
  <rdf:RDF xmlns:dc="http://purl.org/dc/elements/1.1/" xmlns:cc="http://creativecommons.org/ns#" xmlns:rdf="http://www.w3.org/1999/02/22-rdf-syntax-ns#">
   <cc:Work>
    <dc:type rdf:resource="http://purl.org/dc/dcmitype/StillImage"/>
    <dc:date>2023-12-01T18:10:33.175397</dc:date>
    <dc:format>image/svg+xml</dc:format>
    <dc:creator>
     <cc:Agent>
      <dc:title>Matplotlib v3.7.1, https://matplotlib.org/</dc:title>
     </cc:Agent>
    </dc:creator>
   </cc:Work>
  </rdf:RDF>
 </metadata>
 <defs>
  <style type="text/css">*{stroke-linejoin: round; stroke-linecap: butt}</style>
 </defs>
 <g id="figure_1">
  <g id="patch_1">
   <path d="M 0 226.771776 
L 366.924441 226.771776 
L 366.924441 0 
L 0 0 
z
" style="fill: #ffffff"/>
  </g>
  <g id="axes_1">
   <g id="patch_2">
    <path d="M 52.659943 179.058739 
L 363.924201 179.058739 
L 363.924201 3.00024 
L 52.659943 3.00024 
z
" style="fill: #ffffff"/>
   </g>
   <g id="matplotlib.axis_1">
    <g id="xtick_1">
     <g id="line2d_1">
      <defs>
       <path id="meb6c60bdfd" d="M 0 0 
L 0 6 
" style="stroke: #262626; stroke-width: 1.25"/>
      </defs>
      <g>
       <use xlink:href="#meb6c60bdfd" x="66.808318" y="179.058739" style="fill: #262626; stroke: #262626; stroke-width: 1.25"/>
      </g>
     </g>
     <g id="text_1">
      <!-- $\mathdefault{10^{2}}$ -->
      <g style="fill: #262626" transform="translate(55.797318 199.368645) scale(0.143 -0.143)">
       <defs>
        <path id="Avenir-Book-31" d="M 2227 0 
L 1766 0 
L 1766 3955 
L 954 3238 
L 666 3584 
L 1818 4531 
L 2227 4531 
L 2227 0 
z
" transform="scale(0.015625)"/>
        <path id="Avenir-Book-30" d="M 1779 4186 
Q 1408 4186 1193 3987 
Q 979 3789 870 3494 
Q 762 3200 733 2867 
Q 704 2534 704 2266 
Q 704 1997 733 1664 
Q 762 1331 870 1036 
Q 979 742 1193 544 
Q 1408 346 1779 346 
Q 2150 346 2364 544 
Q 2579 742 2688 1036 
Q 2797 1331 2825 1664 
Q 2854 1997 2854 2266 
Q 2854 2534 2825 2867 
Q 2797 3200 2688 3494 
Q 2579 3789 2364 3987 
Q 2150 4186 1779 4186 
z
M 1779 4608 
Q 2266 4608 2566 4384 
Q 2867 4160 3033 3814 
Q 3200 3469 3257 3056 
Q 3315 2643 3315 2266 
Q 3315 1888 3257 1475 
Q 3200 1062 3033 716 
Q 2867 371 2566 147 
Q 2266 -77 1779 -77 
Q 1293 -77 992 147 
Q 691 371 524 716 
Q 358 1062 300 1475 
Q 243 1888 243 2266 
Q 243 2643 300 3056 
Q 358 3469 524 3814 
Q 691 4160 992 4384 
Q 1293 4608 1779 4608 
z
" transform="scale(0.015625)"/>
        <path id="Avenir-Book-32" d="M 3187 0 
L 307 0 
L 307 531 
L 2112 2368 
Q 2214 2470 2316 2585 
Q 2419 2701 2502 2829 
Q 2586 2957 2637 3097 
Q 2688 3238 2688 3392 
Q 2688 3578 2621 3725 
Q 2554 3872 2432 3974 
Q 2310 4077 2150 4131 
Q 1990 4186 1811 4186 
Q 1466 4186 1222 3994 
Q 979 3802 909 3475 
L 422 3526 
Q 518 4032 886 4320 
Q 1254 4608 1779 4608 
Q 2054 4608 2300 4534 
Q 2547 4461 2736 4313 
Q 2925 4166 3037 3945 
Q 3149 3725 3149 3430 
Q 3149 3168 3069 2950 
Q 2989 2733 2861 2541 
Q 2733 2349 2569 2176 
Q 2406 2003 2234 1837 
L 806 422 
L 3187 422 
L 3187 0 
z
" transform="scale(0.015625)"/>
       </defs>
       <use xlink:href="#Avenir-Book-31" transform="translate(0 0.842187)"/>
       <use xlink:href="#Avenir-Book-30" transform="translate(55.599991 0.842187)"/>
       <use xlink:href="#Avenir-Book-32" transform="translate(112.018927 33.6) scale(0.7)"/>
      </g>
     </g>
    </g>
    <g id="xtick_2">
     <g id="line2d_2">
      <g>
       <use xlink:href="#meb6c60bdfd" x="137.550195" y="179.058739" style="fill: #262626; stroke: #262626; stroke-width: 1.25"/>
      </g>
     </g>
     <g id="text_2">
      <!-- $\mathdefault{10^{3}}$ -->
      <g style="fill: #262626" transform="translate(126.539195 199.368645) scale(0.143 -0.143)">
       <defs>
        <path id="Avenir-Book-33" d="M 1306 2586 
L 1542 2586 
Q 1741 2586 1923 2630 
Q 2106 2675 2240 2774 
Q 2374 2874 2454 3034 
Q 2534 3194 2534 3418 
Q 2534 3782 2313 3984 
Q 2093 4186 1696 4186 
Q 1408 4186 1190 4058 
Q 973 3930 832 3686 
L 429 3891 
Q 634 4256 950 4432 
Q 1267 4608 1683 4608 
Q 1952 4608 2189 4531 
Q 2426 4454 2605 4304 
Q 2784 4154 2889 3933 
Q 2995 3712 2995 3430 
Q 2995 3245 2934 3078 
Q 2874 2912 2768 2777 
Q 2662 2643 2521 2544 
Q 2381 2445 2227 2394 
L 2246 2381 
Q 2438 2342 2598 2236 
Q 2758 2131 2873 1977 
Q 2989 1824 3053 1632 
Q 3117 1440 3117 1229 
Q 3117 915 3001 672 
Q 2886 429 2688 262 
Q 2490 96 2227 9 
Q 1965 -77 1670 -77 
Q 1171 -77 800 140 
Q 429 358 243 838 
L 730 986 
Q 845 659 1072 502 
Q 1299 346 1709 346 
Q 1901 346 2073 410 
Q 2246 474 2377 592 
Q 2509 710 2582 876 
Q 2656 1043 2656 1242 
Q 2656 1498 2560 1674 
Q 2464 1850 2304 1958 
Q 2144 2067 1936 2115 
Q 1728 2163 1504 2163 
L 1306 2163 
L 1306 2586 
z
" transform="scale(0.015625)"/>
       </defs>
       <use xlink:href="#Avenir-Book-31" transform="translate(0 0.842187)"/>
       <use xlink:href="#Avenir-Book-30" transform="translate(55.599991 0.842187)"/>
       <use xlink:href="#Avenir-Book-33" transform="translate(112.018927 33.6) scale(0.7)"/>
      </g>
     </g>
    </g>
    <g id="xtick_3">
     <g id="line2d_3">
      <g>
       <use xlink:href="#meb6c60bdfd" x="208.292072" y="179.058739" style="fill: #262626; stroke: #262626; stroke-width: 1.25"/>
      </g>
     </g>
     <g id="text_3">
      <!-- $\mathdefault{10^{4}}$ -->
      <g style="fill: #262626" transform="translate(197.281072 199.368645) scale(0.143 -0.143)">
       <defs>
        <path id="Avenir-Book-34" d="M 2202 4070 
L 2189 4070 
L 627 1498 
L 2202 1498 
L 2202 4070 
z
M 2662 1498 
L 3315 1498 
L 3315 1075 
L 2662 1075 
L 2662 0 
L 2202 0 
L 2202 1075 
L 243 1075 
L 243 1600 
L 2074 4531 
L 2662 4531 
L 2662 1498 
z
" transform="scale(0.015625)"/>
       </defs>
       <use xlink:href="#Avenir-Book-31" transform="translate(0 0.684375)"/>
       <use xlink:href="#Avenir-Book-30" transform="translate(55.599991 0.684375)"/>
       <use xlink:href="#Avenir-Book-34" transform="translate(112.018927 33.442188) scale(0.7)"/>
      </g>
     </g>
    </g>
    <g id="xtick_4">
     <g id="line2d_4">
      <g>
       <use xlink:href="#meb6c60bdfd" x="279.033949" y="179.058739" style="fill: #262626; stroke: #262626; stroke-width: 1.25"/>
      </g>
     </g>
     <g id="text_4">
      <!-- $\mathdefault{10^{5}}$ -->
      <g style="fill: #262626" transform="translate(268.022949 199.368645) scale(0.143 -0.143)">
       <defs>
        <path id="Avenir-Book-35" d="M 2976 4109 
L 1120 4109 
L 1094 2746 
Q 1242 2803 1395 2828 
Q 1549 2854 1702 2854 
Q 2022 2854 2284 2745 
Q 2547 2637 2736 2441 
Q 2925 2246 3030 1980 
Q 3136 1715 3136 1402 
Q 3136 1075 3021 803 
Q 2906 531 2701 336 
Q 2496 141 2217 32 
Q 1939 -77 1613 -77 
Q 1184 -77 838 128 
Q 493 333 307 730 
L 762 928 
Q 890 659 1120 502 
Q 1350 346 1651 346 
Q 1869 346 2054 426 
Q 2240 506 2377 640 
Q 2515 774 2595 960 
Q 2675 1146 2675 1357 
Q 2675 1594 2592 1792 
Q 2509 1990 2361 2134 
Q 2214 2278 2009 2355 
Q 1805 2432 1562 2432 
Q 1318 2432 1078 2365 
Q 838 2298 621 2182 
L 666 4531 
L 2976 4531 
L 2976 4109 
z
" transform="scale(0.015625)"/>
       </defs>
       <use xlink:href="#Avenir-Book-31" transform="translate(0 0.684375)"/>
       <use xlink:href="#Avenir-Book-30" transform="translate(55.599991 0.684375)"/>
       <use xlink:href="#Avenir-Book-35" transform="translate(112.018927 33.442188) scale(0.7)"/>
      </g>
     </g>
    </g>
    <g id="xtick_5">
     <g id="line2d_5">
      <g>
       <use xlink:href="#meb6c60bdfd" x="349.775826" y="179.058739" style="fill: #262626; stroke: #262626; stroke-width: 1.25"/>
      </g>
     </g>
     <g id="text_5">
      <!-- $\mathdefault{10^{6}}$ -->
      <g style="fill: #262626" transform="translate(338.764826 199.368645) scale(0.143 -0.143)">
       <defs>
        <path id="Avenir-Book-36" d="M 768 1325 
Q 768 1107 841 928 
Q 915 749 1049 617 
Q 1184 486 1369 416 
Q 1555 346 1779 346 
Q 2003 346 2188 416 
Q 2374 486 2508 617 
Q 2643 749 2716 928 
Q 2790 1107 2790 1325 
Q 2790 1542 2716 1721 
Q 2643 1901 2508 2029 
Q 2374 2157 2188 2230 
Q 2003 2304 1779 2304 
Q 1555 2304 1369 2230 
Q 1184 2157 1049 2029 
Q 915 1901 841 1721 
Q 768 1542 768 1325 
z
M 1229 2586 
L 1242 2573 
Q 1350 2650 1532 2688 
Q 1715 2726 1869 2726 
Q 2163 2726 2416 2620 
Q 2669 2515 2854 2329 
Q 3040 2144 3145 1888 
Q 3251 1632 3251 1325 
Q 3251 1011 3142 755 
Q 3034 499 2835 313 
Q 2637 128 2368 25 
Q 2099 -77 1779 -77 
Q 1459 -77 1190 25 
Q 922 128 723 313 
Q 525 499 416 755 
Q 307 1011 307 1325 
Q 307 1702 419 1984 
Q 531 2266 698 2541 
L 1920 4531 
L 2464 4531 
L 1229 2586 
z
" transform="scale(0.015625)"/>
       </defs>
       <use xlink:href="#Avenir-Book-31" transform="translate(0 0.684375)"/>
       <use xlink:href="#Avenir-Book-30" transform="translate(55.599991 0.684375)"/>
       <use xlink:href="#Avenir-Book-36" transform="translate(112.018927 33.442188) scale(0.7)"/>
      </g>
     </g>
    </g>
    <g id="xtick_6">
     <g id="line2d_6">
      <defs>
       <path id="ma10684753a" d="M 0 0 
L 0 4 
" style="stroke: #262626"/>
      </defs>
      <g>
       <use xlink:href="#ma10684753a" x="55.850263" y="179.058739" style="fill: #262626; stroke: #262626"/>
      </g>
     </g>
    </g>
    <g id="xtick_7">
     <g id="line2d_7">
      <g>
       <use xlink:href="#ma10684753a" x="59.952722" y="179.058739" style="fill: #262626; stroke: #262626"/>
      </g>
     </g>
    </g>
    <g id="xtick_8">
     <g id="line2d_8">
      <g>
       <use xlink:href="#ma10684753a" x="63.571348" y="179.058739" style="fill: #262626; stroke: #262626"/>
      </g>
     </g>
    </g>
    <g id="xtick_9">
     <g id="line2d_9">
      <g>
       <use xlink:href="#ma10684753a" x="88.103745" y="179.058739" style="fill: #262626; stroke: #262626"/>
      </g>
     </g>
    </g>
    <g id="xtick_10">
     <g id="line2d_10">
      <g>
       <use xlink:href="#ma10684753a" x="100.560772" y="179.058739" style="fill: #262626; stroke: #262626"/>
      </g>
     </g>
    </g>
    <g id="xtick_11">
     <g id="line2d_11">
      <g>
       <use xlink:href="#ma10684753a" x="109.399172" y="179.058739" style="fill: #262626; stroke: #262626"/>
      </g>
     </g>
    </g>
    <g id="xtick_12">
     <g id="line2d_12">
      <g>
       <use xlink:href="#ma10684753a" x="116.254768" y="179.058739" style="fill: #262626; stroke: #262626"/>
      </g>
     </g>
    </g>
    <g id="xtick_13">
     <g id="line2d_13">
      <g>
       <use xlink:href="#ma10684753a" x="121.856198" y="179.058739" style="fill: #262626; stroke: #262626"/>
      </g>
     </g>
    </g>
    <g id="xtick_14">
     <g id="line2d_14">
      <g>
       <use xlink:href="#ma10684753a" x="126.59214" y="179.058739" style="fill: #262626; stroke: #262626"/>
      </g>
     </g>
    </g>
    <g id="xtick_15">
     <g id="line2d_15">
      <g>
       <use xlink:href="#ma10684753a" x="130.694599" y="179.058739" style="fill: #262626; stroke: #262626"/>
      </g>
     </g>
    </g>
    <g id="xtick_16">
     <g id="line2d_16">
      <g>
       <use xlink:href="#ma10684753a" x="134.313225" y="179.058739" style="fill: #262626; stroke: #262626"/>
      </g>
     </g>
    </g>
    <g id="xtick_17">
     <g id="line2d_17">
      <g>
       <use xlink:href="#ma10684753a" x="158.845622" y="179.058739" style="fill: #262626; stroke: #262626"/>
      </g>
     </g>
    </g>
    <g id="xtick_18">
     <g id="line2d_18">
      <g>
       <use xlink:href="#ma10684753a" x="171.302648" y="179.058739" style="fill: #262626; stroke: #262626"/>
      </g>
     </g>
    </g>
    <g id="xtick_19">
     <g id="line2d_19">
      <g>
       <use xlink:href="#ma10684753a" x="180.141049" y="179.058739" style="fill: #262626; stroke: #262626"/>
      </g>
     </g>
    </g>
    <g id="xtick_20">
     <g id="line2d_20">
      <g>
       <use xlink:href="#ma10684753a" x="186.996645" y="179.058739" style="fill: #262626; stroke: #262626"/>
      </g>
     </g>
    </g>
    <g id="xtick_21">
     <g id="line2d_21">
      <g>
       <use xlink:href="#ma10684753a" x="192.598075" y="179.058739" style="fill: #262626; stroke: #262626"/>
      </g>
     </g>
    </g>
    <g id="xtick_22">
     <g id="line2d_22">
      <g>
       <use xlink:href="#ma10684753a" x="197.334017" y="179.058739" style="fill: #262626; stroke: #262626"/>
      </g>
     </g>
    </g>
    <g id="xtick_23">
     <g id="line2d_23">
      <g>
       <use xlink:href="#ma10684753a" x="201.436476" y="179.058739" style="fill: #262626; stroke: #262626"/>
      </g>
     </g>
    </g>
    <g id="xtick_24">
     <g id="line2d_24">
      <g>
       <use xlink:href="#ma10684753a" x="205.055101" y="179.058739" style="fill: #262626; stroke: #262626"/>
      </g>
     </g>
    </g>
    <g id="xtick_25">
     <g id="line2d_25">
      <g>
       <use xlink:href="#ma10684753a" x="229.587499" y="179.058739" style="fill: #262626; stroke: #262626"/>
      </g>
     </g>
    </g>
    <g id="xtick_26">
     <g id="line2d_26">
      <g>
       <use xlink:href="#ma10684753a" x="242.044525" y="179.058739" style="fill: #262626; stroke: #262626"/>
      </g>
     </g>
    </g>
    <g id="xtick_27">
     <g id="line2d_27">
      <g>
       <use xlink:href="#ma10684753a" x="250.882926" y="179.058739" style="fill: #262626; stroke: #262626"/>
      </g>
     </g>
    </g>
    <g id="xtick_28">
     <g id="line2d_28">
      <g>
       <use xlink:href="#ma10684753a" x="257.738522" y="179.058739" style="fill: #262626; stroke: #262626"/>
      </g>
     </g>
    </g>
    <g id="xtick_29">
     <g id="line2d_29">
      <g>
       <use xlink:href="#ma10684753a" x="263.339952" y="179.058739" style="fill: #262626; stroke: #262626"/>
      </g>
     </g>
    </g>
    <g id="xtick_30">
     <g id="line2d_30">
      <g>
       <use xlink:href="#ma10684753a" x="268.075894" y="179.058739" style="fill: #262626; stroke: #262626"/>
      </g>
     </g>
    </g>
    <g id="xtick_31">
     <g id="line2d_31">
      <g>
       <use xlink:href="#ma10684753a" x="272.178353" y="179.058739" style="fill: #262626; stroke: #262626"/>
      </g>
     </g>
    </g>
    <g id="xtick_32">
     <g id="line2d_32">
      <g>
       <use xlink:href="#ma10684753a" x="275.796978" y="179.058739" style="fill: #262626; stroke: #262626"/>
      </g>
     </g>
    </g>
    <g id="xtick_33">
     <g id="line2d_33">
      <g>
       <use xlink:href="#ma10684753a" x="300.329376" y="179.058739" style="fill: #262626; stroke: #262626"/>
      </g>
     </g>
    </g>
    <g id="xtick_34">
     <g id="line2d_34">
      <g>
       <use xlink:href="#ma10684753a" x="312.786402" y="179.058739" style="fill: #262626; stroke: #262626"/>
      </g>
     </g>
    </g>
    <g id="xtick_35">
     <g id="line2d_35">
      <g>
       <use xlink:href="#ma10684753a" x="321.624803" y="179.058739" style="fill: #262626; stroke: #262626"/>
      </g>
     </g>
    </g>
    <g id="xtick_36">
     <g id="line2d_36">
      <g>
       <use xlink:href="#ma10684753a" x="328.480399" y="179.058739" style="fill: #262626; stroke: #262626"/>
      </g>
     </g>
    </g>
    <g id="xtick_37">
     <g id="line2d_37">
      <g>
       <use xlink:href="#ma10684753a" x="334.081829" y="179.058739" style="fill: #262626; stroke: #262626"/>
      </g>
     </g>
    </g>
    <g id="xtick_38">
     <g id="line2d_38">
      <g>
       <use xlink:href="#ma10684753a" x="338.817771" y="179.058739" style="fill: #262626; stroke: #262626"/>
      </g>
     </g>
    </g>
    <g id="xtick_39">
     <g id="line2d_39">
      <g>
       <use xlink:href="#ma10684753a" x="342.92023" y="179.058739" style="fill: #262626; stroke: #262626"/>
      </g>
     </g>
    </g>
    <g id="xtick_40">
     <g id="line2d_40">
      <g>
       <use xlink:href="#ma10684753a" x="346.538855" y="179.058739" style="fill: #262626; stroke: #262626"/>
      </g>
     </g>
    </g>
    <g id="text_6">
     <!-- S -->
     <g style="fill: #262626" transform="translate(203.95576 219.279224) scale(0.156 -0.156)">
      <defs>
       <path id="Avenir-Book-53" d="M 2758 3782 
Q 2458 4224 1882 4224 
Q 1702 4224 1529 4176 
Q 1357 4128 1219 4029 
Q 1082 3930 998 3773 
Q 915 3616 915 3405 
Q 915 3098 1088 2928 
Q 1261 2758 1517 2649 
Q 1773 2541 2077 2454 
Q 2381 2368 2637 2224 
Q 2893 2080 3065 1843 
Q 3238 1606 3238 1197 
Q 3238 890 3107 643 
Q 2976 397 2761 230 
Q 2547 64 2281 -25 
Q 2016 -115 1747 -115 
Q 1331 -115 956 41 
Q 582 198 320 557 
L 736 858 
Q 883 608 1145 457 
Q 1408 307 1766 307 
Q 1939 307 2112 361 
Q 2285 416 2422 521 
Q 2560 627 2649 780 
Q 2739 934 2739 1133 
Q 2739 1370 2640 1526 
Q 2541 1683 2377 1788 
Q 2214 1894 2006 1964 
Q 1798 2035 1577 2105 
Q 1357 2176 1149 2265 
Q 941 2355 777 2492 
Q 614 2630 515 2838 
Q 416 3046 416 3360 
Q 416 3686 541 3929 
Q 666 4173 874 4333 
Q 1082 4493 1344 4569 
Q 1606 4646 1882 4646 
Q 2266 4646 2579 4524 
Q 2893 4403 3162 4096 
L 2758 3782 
z
" transform="scale(0.015625)"/>
      </defs>
      <use xlink:href="#Avenir-Book-53"/>
     </g>
    </g>
   </g>
   <g id="matplotlib.axis_2">
    <g id="ytick_1">
     <g id="line2d_41">
      <defs>
       <path id="ma2629a8687" d="M 0 0 
L -6 0 
" style="stroke: #262626; stroke-width: 1.25"/>
      </defs>
      <g>
       <use xlink:href="#ma2629a8687" x="52.659943" y="177.141348" style="fill: #262626; stroke: #262626; stroke-width: 1.25"/>
      </g>
     </g>
     <g id="text_7">
      <!-- 0.0 -->
      <g style="fill: #262626" transform="translate(23.285178 182.546301) scale(0.143 -0.143)">
       <defs>
        <path id="Avenir-Book-2e" d="M 1235 307 
Q 1235 173 1139 67 
Q 1043 -38 890 -38 
Q 736 -38 640 67 
Q 544 173 544 307 
Q 544 442 640 547 
Q 736 653 890 653 
Q 1043 653 1139 547 
Q 1235 442 1235 307 
z
" transform="scale(0.015625)"/>
       </defs>
       <use xlink:href="#Avenir-Book-30"/>
       <use xlink:href="#Avenir-Book-2e" x="55.599991"/>
       <use xlink:href="#Avenir-Book-30" x="83.399979"/>
      </g>
     </g>
    </g>
    <g id="ytick_2">
     <g id="line2d_42">
      <g>
       <use xlink:href="#ma2629a8687" x="52.659943" y="138.733299" style="fill: #262626; stroke: #262626; stroke-width: 1.25"/>
      </g>
     </g>
     <g id="text_8">
      <!-- 0.2 -->
      <g style="fill: #262626" transform="translate(23.285178 144.138252) scale(0.143 -0.143)">
       <use xlink:href="#Avenir-Book-30"/>
       <use xlink:href="#Avenir-Book-2e" x="55.599991"/>
       <use xlink:href="#Avenir-Book-32" x="83.399979"/>
      </g>
     </g>
    </g>
    <g id="ytick_3">
     <g id="line2d_43">
      <g>
       <use xlink:href="#ma2629a8687" x="52.659943" y="100.325251" style="fill: #262626; stroke: #262626; stroke-width: 1.25"/>
      </g>
     </g>
     <g id="text_9">
      <!-- 0.4 -->
      <g style="fill: #262626" transform="translate(23.285178 105.730204) scale(0.143 -0.143)">
       <use xlink:href="#Avenir-Book-30"/>
       <use xlink:href="#Avenir-Book-2e" x="55.599991"/>
       <use xlink:href="#Avenir-Book-34" x="83.399979"/>
      </g>
     </g>
    </g>
    <g id="ytick_4">
     <g id="line2d_44">
      <g>
       <use xlink:href="#ma2629a8687" x="52.659943" y="61.917202" style="fill: #262626; stroke: #262626; stroke-width: 1.25"/>
      </g>
     </g>
     <g id="text_10">
      <!-- 0.6 -->
      <g style="fill: #262626" transform="translate(23.285178 67.322156) scale(0.143 -0.143)">
       <use xlink:href="#Avenir-Book-30"/>
       <use xlink:href="#Avenir-Book-2e" x="55.599991"/>
       <use xlink:href="#Avenir-Book-36" x="83.399979"/>
      </g>
     </g>
    </g>
    <g id="ytick_5">
     <g id="line2d_45">
      <g>
       <use xlink:href="#ma2629a8687" x="52.659943" y="23.509154" style="fill: #262626; stroke: #262626; stroke-width: 1.25"/>
      </g>
     </g>
     <g id="text_11">
      <!-- 0.8 -->
      <g style="fill: #262626" transform="translate(23.285178 28.914107) scale(0.143 -0.143)">
       <defs>
        <path id="Avenir-Book-38" d="M 2752 1274 
Q 2752 1472 2681 1641 
Q 2611 1811 2486 1936 
Q 2362 2061 2179 2131 
Q 1997 2202 1779 2202 
Q 1555 2202 1376 2131 
Q 1197 2061 1072 1936 
Q 947 1811 876 1641 
Q 806 1472 806 1274 
Q 806 1075 876 905 
Q 947 736 1072 611 
Q 1197 486 1376 416 
Q 1555 346 1779 346 
Q 1997 346 2179 416 
Q 2362 486 2486 611 
Q 2611 736 2681 905 
Q 2752 1075 2752 1274 
z
M 2586 3386 
Q 2586 3558 2525 3705 
Q 2464 3853 2355 3958 
Q 2246 4064 2099 4125 
Q 1952 4186 1779 4186 
Q 1606 4186 1459 4125 
Q 1312 4064 1203 3958 
Q 1094 3853 1033 3705 
Q 973 3558 973 3386 
Q 973 3213 1033 3065 
Q 1094 2918 1203 2812 
Q 1312 2707 1459 2646 
Q 1606 2586 1779 2586 
Q 1952 2586 2099 2646 
Q 2246 2707 2355 2812 
Q 2464 2918 2525 3065 
Q 2586 3213 2586 3386 
z
M 1190 2413 
Q 1043 2464 918 2563 
Q 794 2662 704 2796 
Q 614 2931 563 3091 
Q 512 3251 512 3424 
Q 512 3693 614 3913 
Q 717 4134 889 4288 
Q 1062 4442 1292 4525 
Q 1523 4608 1779 4608 
Q 2035 4608 2265 4525 
Q 2496 4442 2669 4288 
Q 2842 4134 2944 3913 
Q 3046 3693 3046 3424 
Q 3046 3251 2995 3091 
Q 2944 2931 2854 2796 
Q 2765 2662 2640 2563 
Q 2515 2464 2368 2413 
L 2368 2400 
Q 2752 2298 2982 1978 
Q 3213 1658 3213 1210 
Q 3213 915 3094 678 
Q 2976 442 2781 272 
Q 2586 102 2326 12 
Q 2067 -77 1779 -77 
Q 1491 -77 1232 12 
Q 973 102 777 272 
Q 582 442 464 678 
Q 346 915 346 1210 
Q 346 1658 576 1978 
Q 806 2298 1190 2400 
L 1190 2413 
z
" transform="scale(0.015625)"/>
       </defs>
       <use xlink:href="#Avenir-Book-30"/>
       <use xlink:href="#Avenir-Book-2e" x="55.599991"/>
       <use xlink:href="#Avenir-Book-38" x="83.399979"/>
      </g>
     </g>
    </g>
    <g id="text_12">
     <!-- E -->
     <g style="fill: #262626" transform="translate(14.792865 95.654646) rotate(-90) scale(0.156 -0.156)">
      <defs>
       <path id="Avenir-Book-45" d="M 1075 422 
L 3501 422 
L 3501 0 
L 614 0 
L 614 4531 
L 3424 4531 
L 3424 4109 
L 1075 4109 
L 1075 2566 
L 3270 2566 
L 3270 2144 
L 1075 2144 
L 1075 422 
z
" transform="scale(0.015625)"/>
      </defs>
      <use xlink:href="#Avenir-Book-45"/>
     </g>
    </g>
   </g>
   <g id="LineCollection_1">
    <path d="M 66.808318 69.794484 
L 66.808318 51.092702 
" clip-path="url(#pc90174c19f)" style="fill: none; stroke: #c44e52; stroke-width: 2.5"/>
    <path d="M 98.220881 53.341983 
L 98.220881 43.057492 
" clip-path="url(#pc90174c19f)" style="fill: none; stroke: #c44e52; stroke-width: 2.5"/>
    <path d="M 129.679522 41.158503 
L 129.679522 36.276154 
" clip-path="url(#pc90174c19f)" style="fill: none; stroke: #c44e52; stroke-width: 2.5"/>
    <path d="M 161.124622 33.038749 
L 161.124622 30.381773 
" clip-path="url(#pc90174c19f)" style="fill: none; stroke: #c44e52; stroke-width: 2.5"/>
    <path d="M 192.567337 27.055095 
L 192.567337 25.583362 
" clip-path="url(#pc90174c19f)" style="fill: none; stroke: #c44e52; stroke-width: 2.5"/>
    <path d="M 224.012479 22.329769 
L 224.012479 21.581784 
" clip-path="url(#pc90174c19f)" style="fill: none; stroke: #c44e52; stroke-width: 2.5"/>
    <path d="M 255.452735 18.651145 
L 255.452735 18.245478 
" clip-path="url(#pc90174c19f)" style="fill: none; stroke: #c44e52; stroke-width: 2.5"/>
    <path d="M 286.893928 15.669799 
L 286.893928 15.444055 
" clip-path="url(#pc90174c19f)" style="fill: none; stroke: #c44e52; stroke-width: 2.5"/>
    <path d="M 318.33496 13.183385 
L 318.33496 13.05391 
" clip-path="url(#pc90174c19f)" style="fill: none; stroke: #c44e52; stroke-width: 2.5"/>
    <path d="M 349.775826 11.075675 
L 349.775826 11.002899 
" clip-path="url(#pc90174c19f)" style="fill: none; stroke: #c44e52; stroke-width: 2.5"/>
   </g>
   <g id="LineCollection_2">
    <path d="M 66.808318 157.409767 
L 66.808318 86.24438 
" clip-path="url(#pc90174c19f)" style="fill: none; stroke: #4c72b0; stroke-width: 2.5"/>
    <path d="M 98.220881 159.742398 
L 98.220881 100.416752 
" clip-path="url(#pc90174c19f)" style="fill: none; stroke: #4c72b0; stroke-width: 2.5"/>
    <path d="M 129.679522 165.24442 
L 129.679522 113.284396 
" clip-path="url(#pc90174c19f)" style="fill: none; stroke: #4c72b0; stroke-width: 2.5"/>
    <path d="M 161.124622 165.383088 
L 161.124622 119.969301 
" clip-path="url(#pc90174c19f)" style="fill: none; stroke: #4c72b0; stroke-width: 2.5"/>
    <path d="M 192.567337 166.845184 
L 192.567337 127.74319 
" clip-path="url(#pc90174c19f)" style="fill: none; stroke: #4c72b0; stroke-width: 2.5"/>
    <path d="M 224.012479 167.317086 
L 224.012479 132.876079 
" clip-path="url(#pc90174c19f)" style="fill: none; stroke: #4c72b0; stroke-width: 2.5"/>
    <path d="M 255.452735 169.83425 
L 255.452735 138.359235 
" clip-path="url(#pc90174c19f)" style="fill: none; stroke: #4c72b0; stroke-width: 2.5"/>
    <path d="M 286.893928 168.498846 
L 286.893928 139.54369 
" clip-path="url(#pc90174c19f)" style="fill: none; stroke: #4c72b0; stroke-width: 2.5"/>
    <path d="M 318.33496 171.05608 
L 318.33496 142.725417 
" clip-path="url(#pc90174c19f)" style="fill: none; stroke: #4c72b0; stroke-width: 2.5"/>
    <path d="M 349.775826 170.143854 
L 349.775826 146.273325 
" clip-path="url(#pc90174c19f)" style="fill: none; stroke: #4c72b0; stroke-width: 2.5"/>
   </g>
   <g id="line2d_46">
    <path d="M 66.808318 60.443593 
L 98.220881 48.199738 
L 129.679522 38.717329 
L 161.124622 31.710261 
L 192.567337 26.319229 
L 224.012479 21.955777 
L 255.452735 18.448311 
L 286.893928 15.556927 
L 318.33496 13.118647 
L 349.775826 11.039287 
" clip-path="url(#pc90174c19f)" style="fill: none; stroke: #c44e52; stroke-width: 2.5; stroke-linecap: round"/>
    <defs>
     <path id="m82ca766716" d="M 0 3 
C 0.795609 3 1.55874 2.683901 2.12132 2.12132 
C 2.683901 1.55874 3 0.795609 3 0 
C 3 -0.795609 2.683901 -1.55874 2.12132 -2.12132 
C 1.55874 -2.683901 0.795609 -3 0 -3 
C -0.795609 -3 -1.55874 -2.683901 -2.12132 -2.12132 
C -2.683901 -1.55874 -3 -0.795609 -3 0 
C -3 0.795609 -2.683901 1.55874 -2.12132 2.12132 
C -1.55874 2.683901 -0.795609 3 0 3 
z
" style="stroke: #c44e52"/>
    </defs>
    <g clip-path="url(#pc90174c19f)">
     <use xlink:href="#m82ca766716" x="66.808318" y="60.443593" style="fill: #c44e52; stroke: #c44e52"/>
     <use xlink:href="#m82ca766716" x="98.220881" y="48.199738" style="fill: #c44e52; stroke: #c44e52"/>
     <use xlink:href="#m82ca766716" x="129.679522" y="38.717329" style="fill: #c44e52; stroke: #c44e52"/>
     <use xlink:href="#m82ca766716" x="161.124622" y="31.710261" style="fill: #c44e52; stroke: #c44e52"/>
     <use xlink:href="#m82ca766716" x="192.567337" y="26.319229" style="fill: #c44e52; stroke: #c44e52"/>
     <use xlink:href="#m82ca766716" x="224.012479" y="21.955777" style="fill: #c44e52; stroke: #c44e52"/>
     <use xlink:href="#m82ca766716" x="255.452735" y="18.448311" style="fill: #c44e52; stroke: #c44e52"/>
     <use xlink:href="#m82ca766716" x="286.893928" y="15.556927" style="fill: #c44e52; stroke: #c44e52"/>
     <use xlink:href="#m82ca766716" x="318.33496" y="13.118647" style="fill: #c44e52; stroke: #c44e52"/>
     <use xlink:href="#m82ca766716" x="349.775826" y="11.039287" style="fill: #c44e52; stroke: #c44e52"/>
    </g>
   </g>
   <g id="line2d_47">
    <path d="M 66.808318 121.827073 
L 98.220881 130.079575 
L 129.679522 139.264408 
L 161.124622 142.676194 
L 192.567337 147.294187 
L 224.012479 150.096583 
L 255.452735 154.096743 
L 286.893928 154.021268 
L 318.33496 156.890748 
L 349.775826 158.20859 
" clip-path="url(#pc90174c19f)" style="fill: none; stroke: #4c72b0; stroke-width: 2.5; stroke-linecap: round"/>
    <defs>
     <path id="mbe99693fdc" d="M 0 3 
C 0.795609 3 1.55874 2.683901 2.12132 2.12132 
C 2.683901 1.55874 3 0.795609 3 0 
C 3 -0.795609 2.683901 -1.55874 2.12132 -2.12132 
C 1.55874 -2.683901 0.795609 -3 0 -3 
C -0.795609 -3 -1.55874 -2.683901 -2.12132 -2.12132 
C -2.683901 -1.55874 -3 -0.795609 -3 0 
C -3 0.795609 -2.683901 1.55874 -2.12132 2.12132 
C -1.55874 2.683901 -0.795609 3 0 3 
z
" style="stroke: #4c72b0"/>
    </defs>
    <g clip-path="url(#pc90174c19f)">
     <use xlink:href="#mbe99693fdc" x="66.808318" y="121.827073" style="fill: #4c72b0; stroke: #4c72b0"/>
     <use xlink:href="#mbe99693fdc" x="98.220881" y="130.079575" style="fill: #4c72b0; stroke: #4c72b0"/>
     <use xlink:href="#mbe99693fdc" x="129.679522" y="139.264408" style="fill: #4c72b0; stroke: #4c72b0"/>
     <use xlink:href="#mbe99693fdc" x="161.124622" y="142.676194" style="fill: #4c72b0; stroke: #4c72b0"/>
     <use xlink:href="#mbe99693fdc" x="192.567337" y="147.294187" style="fill: #4c72b0; stroke: #4c72b0"/>
     <use xlink:href="#mbe99693fdc" x="224.012479" y="150.096583" style="fill: #4c72b0; stroke: #4c72b0"/>
     <use xlink:href="#mbe99693fdc" x="255.452735" y="154.096743" style="fill: #4c72b0; stroke: #4c72b0"/>
     <use xlink:href="#mbe99693fdc" x="286.893928" y="154.021268" style="fill: #4c72b0; stroke: #4c72b0"/>
     <use xlink:href="#mbe99693fdc" x="318.33496" y="156.890748" style="fill: #4c72b0; stroke: #4c72b0"/>
     <use xlink:href="#mbe99693fdc" x="349.775826" y="158.20859" style="fill: #4c72b0; stroke: #4c72b0"/>
    </g>
   </g>
   <g id="patch_3">
    <path d="M 52.659943 179.058739 
L 52.659943 3.00024 
" style="fill: none; stroke: #262626; stroke-width: 1.25; stroke-linejoin: miter; stroke-linecap: square"/>
   </g>
   <g id="patch_4">
    <path d="M 363.924201 179.058739 
L 363.924201 3.00024 
" style="fill: none; stroke: #262626; stroke-width: 1.25; stroke-linejoin: miter; stroke-linecap: square"/>
   </g>
   <g id="patch_5">
    <path d="M 52.659943 179.058739 
L 363.924201 179.058739 
" style="fill: none; stroke: #262626; stroke-width: 1.25; stroke-linejoin: miter; stroke-linecap: square"/>
   </g>
   <g id="patch_6">
    <path d="M 52.659943 3.00024 
L 363.924201 3.00024 
" style="fill: none; stroke: #262626; stroke-width: 1.25; stroke-linejoin: miter; stroke-linecap: square"/>
   </g>
   <g id="legend_1">
    <g id="patch_7">
     <path d="M 242.765217 115.252349 
L 353.914201 115.252349 
Q 356.774201 115.252349 356.774201 112.392349 
L 356.774201 69.66663 
Q 356.774201 66.80663 353.914201 66.80663 
L 242.765217 66.80663 
Q 239.905217 66.80663 239.905217 69.66663 
L 239.905217 112.392349 
Q 239.905217 115.252349 242.765217 115.252349 
z
" style="fill: #ffffff; opacity: 0.8; stroke: #cccccc; stroke-linejoin: miter"/>
    </g>
    <g id="LineCollection_3">
     <path d="M 259.925217 85.481536 
L 259.925217 71.181536 
" style="fill: none; stroke: #c44e52; stroke-width: 2.5"/>
    </g>
    <g id="line2d_48">
     <path d="M 245.625217 78.331536 
L 274.225217 78.331536 
" style="fill: none; stroke: #c44e52; stroke-width: 2.5; stroke-linecap: round"/>
    </g>
    <g id="line2d_49">
     <g>
      <use xlink:href="#m82ca766716" x="259.925217" y="78.331536" style="fill: #c44e52; stroke: #c44e52"/>
     </g>
    </g>
    <g id="text_13">
     <!-- Log-series -->
     <g style="fill: #262626" transform="translate(285.665217 83.336536) scale(0.143 -0.143)">
      <defs>
       <path id="Avenir-Book-4c" d="M 1075 422 
L 3187 422 
L 3187 0 
L 614 0 
L 614 4531 
L 1075 4531 
L 1075 422 
z
" transform="scale(0.015625)"/>
       <path id="Avenir-Book-6f" d="M 3027 1498 
Q 3027 1747 2947 1964 
Q 2867 2182 2720 2342 
Q 2573 2502 2365 2595 
Q 2157 2688 1894 2688 
Q 1632 2688 1424 2595 
Q 1216 2502 1072 2342 
Q 928 2182 848 1964 
Q 768 1747 768 1498 
Q 768 1248 848 1030 
Q 928 813 1072 653 
Q 1216 493 1424 400 
Q 1632 307 1894 307 
Q 2157 307 2365 400 
Q 2573 493 2720 653 
Q 2867 813 2947 1030 
Q 3027 1248 3027 1498 
z
M 3488 1498 
Q 3488 1158 3369 870 
Q 3251 582 3040 371 
Q 2829 160 2537 41 
Q 2246 -77 1894 -77 
Q 1549 -77 1257 41 
Q 966 160 755 371 
Q 544 582 425 870 
Q 307 1158 307 1498 
Q 307 1837 425 2125 
Q 544 2413 755 2624 
Q 966 2835 1257 2953 
Q 1549 3072 1894 3072 
Q 2246 3072 2537 2953 
Q 2829 2835 3040 2624 
Q 3251 2413 3369 2125 
Q 3488 1837 3488 1498 
z
" transform="scale(0.015625)"/>
       <path id="Avenir-Book-67" d="M 768 1536 
Q 768 1299 854 1091 
Q 941 883 1091 726 
Q 1242 570 1443 477 
Q 1645 384 1882 384 
Q 2112 384 2320 467 
Q 2528 550 2688 700 
Q 2848 851 2934 1062 
Q 3021 1274 3014 1536 
Q 3014 1773 2937 1981 
Q 2861 2189 2713 2345 
Q 2566 2502 2355 2595 
Q 2144 2688 1882 2688 
Q 1645 2688 1443 2595 
Q 1242 2502 1091 2345 
Q 941 2189 854 1981 
Q 768 1773 768 1536 
z
M 691 -602 
Q 877 -851 1174 -1001 
Q 1472 -1152 1837 -1152 
Q 2157 -1152 2381 -1059 
Q 2605 -966 2742 -806 
Q 2880 -646 2941 -432 
Q 3002 -218 3002 26 
L 3002 563 
L 2989 563 
Q 2784 256 2489 128 
Q 2195 0 1869 0 
Q 1542 0 1257 115 
Q 973 230 761 432 
Q 550 634 428 915 
Q 307 1197 307 1523 
Q 307 1850 422 2131 
Q 538 2413 739 2624 
Q 941 2835 1219 2953 
Q 1498 3072 1830 3072 
Q 1965 3072 2115 3046 
Q 2266 3021 2416 2957 
Q 2566 2893 2713 2781 
Q 2861 2669 2989 2496 
L 3002 2496 
L 3002 2995 
L 3424 2995 
L 3424 26 
Q 3424 -218 3363 -493 
Q 3302 -768 3126 -998 
Q 2950 -1229 2636 -1382 
Q 2323 -1536 1818 -1536 
Q 1370 -1536 1018 -1389 
Q 666 -1242 378 -934 
L 691 -602 
z
" transform="scale(0.015625)"/>
       <path id="Avenir-Book-2d" d="M 1888 1325 
L 243 1325 
L 243 1747 
L 1888 1747 
L 1888 1325 
z
" transform="scale(0.015625)"/>
       <path id="Avenir-Book-73" d="M 2048 2285 
Q 1952 2470 1792 2579 
Q 1632 2688 1402 2688 
Q 1293 2688 1181 2662 
Q 1069 2637 979 2582 
Q 890 2528 835 2445 
Q 781 2362 781 2240 
Q 781 2029 928 1933 
Q 1075 1837 1370 1766 
L 1798 1664 
Q 2112 1594 2320 1379 
Q 2528 1165 2528 845 
Q 2528 602 2429 426 
Q 2330 250 2166 138 
Q 2003 26 1792 -25 
Q 1581 -77 1363 -77 
Q 1018 -77 720 54 
Q 422 186 211 506 
L 576 755 
Q 704 550 899 428 
Q 1094 307 1363 307 
Q 1491 307 1619 336 
Q 1747 365 1846 425 
Q 1946 486 2006 582 
Q 2067 678 2067 806 
Q 2067 1030 1900 1129 
Q 1734 1229 1498 1286 
L 1088 1382 
Q 1011 1402 880 1446 
Q 749 1491 624 1580 
Q 499 1670 409 1814 
Q 320 1958 320 2170 
Q 320 2400 413 2573 
Q 506 2746 662 2854 
Q 819 2963 1017 3017 
Q 1216 3072 1427 3072 
Q 1741 3072 2009 2950 
Q 2278 2829 2426 2534 
L 2048 2285 
z
" transform="scale(0.015625)"/>
       <path id="Avenir-Book-65" d="M 2790 1728 
Q 2790 2157 2534 2422 
Q 2278 2688 1818 2688 
Q 1613 2688 1421 2608 
Q 1229 2528 1085 2393 
Q 941 2259 854 2086 
Q 768 1914 768 1728 
L 2790 1728 
z
M 755 1382 
Q 774 1158 864 960 
Q 954 762 1101 618 
Q 1248 474 1440 390 
Q 1632 307 1856 307 
Q 2195 307 2441 464 
Q 2688 621 2816 826 
L 3142 557 
Q 2874 218 2550 70 
Q 2227 -77 1856 -77 
Q 1523 -77 1238 41 
Q 954 160 749 371 
Q 544 582 425 870 
Q 307 1158 307 1498 
Q 307 1837 422 2125 
Q 538 2413 742 2624 
Q 947 2835 1222 2953 
Q 1498 3072 1818 3072 
Q 2157 3072 2425 2950 
Q 2694 2829 2876 2627 
Q 3059 2426 3155 2154 
Q 3251 1882 3251 1574 
L 3251 1382 
L 755 1382 
z
" transform="scale(0.015625)"/>
       <path id="Avenir-Book-72" d="M 506 2061 
Q 506 2259 496 2464 
Q 486 2669 480 2995 
L 896 2995 
L 896 2438 
L 909 2438 
Q 954 2560 1037 2672 
Q 1120 2784 1238 2873 
Q 1357 2963 1513 3017 
Q 1670 3072 1869 3072 
Q 2048 3072 2182 3034 
L 2099 2618 
Q 2016 2650 1856 2650 
Q 1613 2650 1440 2557 
Q 1267 2464 1152 2320 
Q 1037 2176 982 2009 
Q 928 1843 928 1690 
L 928 0 
L 506 0 
L 506 2061 
z
" transform="scale(0.015625)"/>
       <path id="Avenir-Book-69" d="M 1075 4147 
Q 1075 4013 979 3926 
Q 883 3840 768 3840 
Q 653 3840 557 3926 
Q 461 4013 461 4147 
Q 461 4282 557 4368 
Q 653 4454 768 4454 
Q 883 4454 979 4368 
Q 1075 4282 1075 4147 
z
M 979 0 
L 557 0 
L 557 2995 
L 979 2995 
L 979 0 
z
" transform="scale(0.015625)"/>
      </defs>
      <use xlink:href="#Avenir-Book-4c"/>
      <use xlink:href="#Avenir-Book-6f" x="49.999985"/>
      <use xlink:href="#Avenir-Book-67" x="109.299973"/>
      <use xlink:href="#Avenir-Book-2d" x="170.399963"/>
      <use xlink:href="#Avenir-Book-73" x="203.699951"/>
      <use xlink:href="#Avenir-Book-65" x="246.299942"/>
      <use xlink:href="#Avenir-Book-72" x="301.899933"/>
      <use xlink:href="#Avenir-Book-69" x="335.09993"/>
      <use xlink:href="#Avenir-Book-65" x="359.099915"/>
      <use xlink:href="#Avenir-Book-73" x="414.699905"/>
     </g>
    </g>
    <g id="LineCollection_4">
     <path d="M 259.925217 107.559396 
L 259.925217 93.259396 
" style="fill: none; stroke: #4c72b0; stroke-width: 2.5"/>
    </g>
    <g id="line2d_50">
     <path d="M 245.625217 100.409396 
L 274.225217 100.409396 
" style="fill: none; stroke: #4c72b0; stroke-width: 2.5; stroke-linecap: round"/>
    </g>
    <g id="line2d_51">
     <g>
      <use xlink:href="#mbe99693fdc" x="259.925217" y="100.409396" style="fill: #4c72b0; stroke: #4c72b0"/>
     </g>
    </g>
    <g id="text_14">
     <!-- Power law -->
     <g style="fill: #262626" transform="translate(285.665217 105.414396) scale(0.143 -0.143)">
      <defs>
       <path id="Avenir-Book-50" d="M 1075 2528 
L 1818 2528 
Q 2125 2528 2339 2592 
Q 2554 2656 2682 2761 
Q 2810 2867 2867 3011 
Q 2925 3155 2925 3322 
Q 2925 3482 2867 3626 
Q 2810 3770 2682 3878 
Q 2554 3987 2339 4048 
Q 2125 4109 1818 4109 
L 1075 4109 
L 1075 2528 
z
M 614 4531 
L 1933 4531 
Q 2624 4531 3024 4230 
Q 3424 3930 3424 3322 
Q 3424 2714 3024 2410 
Q 2624 2106 1933 2106 
L 1075 2106 
L 1075 0 
L 614 0 
L 614 4531 
z
" transform="scale(0.015625)"/>
       <path id="Avenir-Book-77" d="M 589 2995 
L 1280 563 
L 1293 563 
L 2093 2995 
L 2528 2995 
L 3328 563 
L 3341 563 
L 4032 2995 
L 4531 2995 
L 3584 0 
L 3110 0 
L 2317 2458 
L 2304 2458 
L 1510 0 
L 1037 0 
L 90 2995 
L 589 2995 
z
" transform="scale(0.015625)"/>
       <path id="Avenir-Book-20" transform="scale(0.015625)"/>
       <path id="Avenir-Book-6c" d="M 979 0 
L 557 0 
L 557 4838 
L 979 4838 
L 979 0 
z
" transform="scale(0.015625)"/>
       <path id="Avenir-Book-61" d="M 2163 1491 
Q 2003 1491 1763 1475 
Q 1523 1459 1302 1398 
Q 1082 1338 925 1210 
Q 768 1082 768 858 
Q 768 710 829 604 
Q 890 499 992 432 
Q 1094 365 1219 336 
Q 1344 307 1472 307 
Q 1702 307 1872 384 
Q 2042 461 2157 592 
Q 2272 723 2326 899 
Q 2381 1075 2381 1274 
L 2381 1491 
L 2163 1491 
z
M 2381 1837 
L 2381 1914 
Q 2381 2688 1613 2688 
Q 1088 2688 698 2336 
L 442 2637 
Q 864 3072 1709 3072 
Q 1926 3072 2128 3008 
Q 2330 2944 2477 2813 
Q 2624 2682 2713 2483 
Q 2803 2285 2803 2010 
L 2803 672 
Q 2803 499 2819 310 
Q 2835 122 2854 0 
L 2445 0 
Q 2426 109 2416 237 
Q 2406 365 2406 486 
L 2394 486 
Q 2208 186 1955 54 
Q 1702 -77 1338 -77 
Q 1139 -77 953 -22 
Q 768 32 624 144 
Q 480 256 393 419 
Q 307 582 307 800 
Q 307 1165 496 1373 
Q 685 1581 969 1683 
Q 1254 1786 1577 1811 
Q 1901 1837 2170 1837 
L 2381 1837 
z
" transform="scale(0.015625)"/>
      </defs>
      <use xlink:href="#Avenir-Book-50"/>
      <use xlink:href="#Avenir-Book-6f" x="57.399994"/>
      <use xlink:href="#Avenir-Book-77" x="116.699982"/>
      <use xlink:href="#Avenir-Book-65" x="188.899963"/>
      <use xlink:href="#Avenir-Book-72" x="244.499954"/>
      <use xlink:href="#Avenir-Book-20" x="277.699951"/>
      <use xlink:href="#Avenir-Book-6c" x="305.499939"/>
      <use xlink:href="#Avenir-Book-61" x="329.499924"/>
      <use xlink:href="#Avenir-Book-77" x="381.399918"/>
     </g>
    </g>
   </g>
  </g>
 </g>
 <defs>
  <clipPath id="pc90174c19f">
   <rect x="52.659943" y="3.00024" width="311.264258" height="176.058499"/>
  </clipPath>
 </defs>
</svg>
