<?xml version="1.0" encoding="utf-8" standalone="no"?>
<!DOCTYPE svg PUBLIC "-//W3C//DTD SVG 1.1//EN"
  "http://www.w3.org/Graphics/SVG/1.1/DTD/svg11.dtd">
<svg xmlns:xlink="http://www.w3.org/1999/xlink" width="288pt" height="288pt" viewBox="0 0 288 288" xmlns="http://www.w3.org/2000/svg" version="1.1">
 <metadata>
  <rdf:RDF xmlns:dc="http://purl.org/dc/elements/1.1/" xmlns:cc="http://creativecommons.org/ns#" xmlns:rdf="http://www.w3.org/1999/02/22-rdf-syntax-ns#">
   <cc:Work>
    <dc:type rdf:resource="http://purl.org/dc/dcmitype/StillImage"/>
    <dc:date>2023-11-29T10:16:22.006332</dc:date>
    <dc:format>image/svg+xml</dc:format>
    <dc:creator>
     <cc:Agent>
      <dc:title>Matplotlib v3.7.1, https://matplotlib.org/</dc:title>
     </cc:Agent>
    </dc:creator>
   </cc:Work>
  </rdf:RDF>
 </metadata>
 <defs>
  <style type="text/css">*{stroke-linejoin: round; stroke-linecap: butt}</style>
 </defs>
 <g id="figure_1">
  <g id="patch_1">
   <path d="M 0 288 
L 288 288 
L 288 0 
L 0 0 
z
" style="fill: #ffffff"/>
  </g>
  <g id="axes_1">
   <g id="patch_2">
    <path d="M 34.52224 260.571901 
L 273.98876 260.571901 
L 273.98876 8.405193 
L 34.52224 8.405193 
z
" style="fill: #ffffff"/>
   </g>
   <g id="matplotlib.axis_1">
    <g id="xtick_1">
     <g id="line2d_1">
      <defs>
       <path id="mb8dcf20715" d="M 0 0 
L 0 6 
" style="stroke: #262626; stroke-width: 1.25"/>
      </defs>
      <g>
       <use xlink:href="#mb8dcf20715" x="58.432665" y="260.571901" style="fill: #262626; stroke: #262626; stroke-width: 1.25"/>
      </g>
     </g>
     <g id="text_1">
      <!-- $\mathdefault{10^{1}}$ -->
      <g style="fill: #262626" transform="translate(47.421665 280.881807) scale(0.143 -0.143)">
       <defs>
        <path id="Avenir-Book-31" d="M 2227 0 
L 1766 0 
L 1766 3955 
L 954 3238 
L 666 3584 
L 1818 4531 
L 2227 4531 
L 2227 0 
z
" transform="scale(0.015625)"/>
        <path id="Avenir-Book-30" d="M 1779 4186 
Q 1408 4186 1193 3987 
Q 979 3789 870 3494 
Q 762 3200 733 2867 
Q 704 2534 704 2266 
Q 704 1997 733 1664 
Q 762 1331 870 1036 
Q 979 742 1193 544 
Q 1408 346 1779 346 
Q 2150 346 2364 544 
Q 2579 742 2688 1036 
Q 2797 1331 2825 1664 
Q 2854 1997 2854 2266 
Q 2854 2534 2825 2867 
Q 2797 3200 2688 3494 
Q 2579 3789 2364 3987 
Q 2150 4186 1779 4186 
z
M 1779 4608 
Q 2266 4608 2566 4384 
Q 2867 4160 3033 3814 
Q 3200 3469 3257 3056 
Q 3315 2643 3315 2266 
Q 3315 1888 3257 1475 
Q 3200 1062 3033 716 
Q 2867 371 2566 147 
Q 2266 -77 1779 -77 
Q 1293 -77 992 147 
Q 691 371 524 716 
Q 358 1062 300 1475 
Q 243 1888 243 2266 
Q 243 2643 300 3056 
Q 358 3469 524 3814 
Q 691 4160 992 4384 
Q 1293 4608 1779 4608 
z
" transform="scale(0.015625)"/>
       </defs>
       <use xlink:href="#Avenir-Book-31" transform="translate(0 0.684375)"/>
       <use xlink:href="#Avenir-Book-30" transform="translate(55.599991 0.684375)"/>
       <use xlink:href="#Avenir-Book-31" transform="translate(112.018927 33.442188) scale(0.7)"/>
      </g>
     </g>
    </g>
    <g id="xtick_2">
     <g id="line2d_2">
      <g>
       <use xlink:href="#mb8dcf20715" x="166.210713" y="260.571901" style="fill: #262626; stroke: #262626; stroke-width: 1.25"/>
      </g>
     </g>
     <g id="text_2">
      <!-- $\mathdefault{10^{2}}$ -->
      <g style="fill: #262626" transform="translate(155.199713 280.881807) scale(0.143 -0.143)">
       <defs>
        <path id="Avenir-Book-32" d="M 3187 0 
L 307 0 
L 307 531 
L 2112 2368 
Q 2214 2470 2316 2585 
Q 2419 2701 2502 2829 
Q 2586 2957 2637 3097 
Q 2688 3238 2688 3392 
Q 2688 3578 2621 3725 
Q 2554 3872 2432 3974 
Q 2310 4077 2150 4131 
Q 1990 4186 1811 4186 
Q 1466 4186 1222 3994 
Q 979 3802 909 3475 
L 422 3526 
Q 518 4032 886 4320 
Q 1254 4608 1779 4608 
Q 2054 4608 2300 4534 
Q 2547 4461 2736 4313 
Q 2925 4166 3037 3945 
Q 3149 3725 3149 3430 
Q 3149 3168 3069 2950 
Q 2989 2733 2861 2541 
Q 2733 2349 2569 2176 
Q 2406 2003 2234 1837 
L 806 422 
L 3187 422 
L 3187 0 
z
" transform="scale(0.015625)"/>
       </defs>
       <use xlink:href="#Avenir-Book-31" transform="translate(0 0.842187)"/>
       <use xlink:href="#Avenir-Book-30" transform="translate(55.599991 0.842187)"/>
       <use xlink:href="#Avenir-Book-32" transform="translate(112.018927 33.6) scale(0.7)"/>
      </g>
     </g>
    </g>
    <g id="xtick_3">
     <g id="line2d_3">
      <g>
       <use xlink:href="#mb8dcf20715" x="273.98876" y="260.571901" style="fill: #262626; stroke: #262626; stroke-width: 1.25"/>
      </g>
     </g>
     <g id="text_3">
      <!-- $\mathdefault{10^{3}}$ -->
      <g style="fill: #262626" transform="translate(262.97776 280.881807) scale(0.143 -0.143)">
       <defs>
        <path id="Avenir-Book-33" d="M 1306 2586 
L 1542 2586 
Q 1741 2586 1923 2630 
Q 2106 2675 2240 2774 
Q 2374 2874 2454 3034 
Q 2534 3194 2534 3418 
Q 2534 3782 2313 3984 
Q 2093 4186 1696 4186 
Q 1408 4186 1190 4058 
Q 973 3930 832 3686 
L 429 3891 
Q 634 4256 950 4432 
Q 1267 4608 1683 4608 
Q 1952 4608 2189 4531 
Q 2426 4454 2605 4304 
Q 2784 4154 2889 3933 
Q 2995 3712 2995 3430 
Q 2995 3245 2934 3078 
Q 2874 2912 2768 2777 
Q 2662 2643 2521 2544 
Q 2381 2445 2227 2394 
L 2246 2381 
Q 2438 2342 2598 2236 
Q 2758 2131 2873 1977 
Q 2989 1824 3053 1632 
Q 3117 1440 3117 1229 
Q 3117 915 3001 672 
Q 2886 429 2688 262 
Q 2490 96 2227 9 
Q 1965 -77 1670 -77 
Q 1171 -77 800 140 
Q 429 358 243 838 
L 730 986 
Q 845 659 1072 502 
Q 1299 346 1709 346 
Q 1901 346 2073 410 
Q 2246 474 2377 592 
Q 2509 710 2582 876 
Q 2656 1043 2656 1242 
Q 2656 1498 2560 1674 
Q 2464 1850 2304 1958 
Q 2144 2067 1936 2115 
Q 1728 2163 1504 2163 
L 1306 2163 
L 1306 2586 
z
" transform="scale(0.015625)"/>
       </defs>
       <use xlink:href="#Avenir-Book-31" transform="translate(0 0.842187)"/>
       <use xlink:href="#Avenir-Book-30" transform="translate(55.599991 0.842187)"/>
       <use xlink:href="#Avenir-Book-33" transform="translate(112.018927 33.6) scale(0.7)"/>
      </g>
     </g>
    </g>
    <g id="xtick_4">
     <g id="line2d_4">
      <defs>
       <path id="m7c0ad9cc92" d="M 0 0 
L 0 4 
" style="stroke: #262626"/>
      </defs>
      <g>
       <use xlink:href="#m7c0ad9cc92" x="34.52224" y="260.571901" style="fill: #262626; stroke: #262626"/>
      </g>
     </g>
    </g>
    <g id="xtick_5">
     <g id="line2d_5">
      <g>
       <use xlink:href="#m7c0ad9cc92" x="41.737634" y="260.571901" style="fill: #262626; stroke: #262626"/>
      </g>
     </g>
    </g>
    <g id="xtick_6">
     <g id="line2d_6">
      <g>
       <use xlink:href="#m7c0ad9cc92" x="47.987893" y="260.571901" style="fill: #262626; stroke: #262626"/>
      </g>
     </g>
    </g>
    <g id="xtick_7">
     <g id="line2d_7">
      <g>
       <use xlink:href="#m7c0ad9cc92" x="53.501012" y="260.571901" style="fill: #262626; stroke: #262626"/>
      </g>
     </g>
    </g>
    <g id="xtick_8">
     <g id="line2d_8">
      <g>
       <use xlink:href="#m7c0ad9cc92" x="90.87709" y="260.571901" style="fill: #262626; stroke: #262626"/>
      </g>
     </g>
    </g>
    <g id="xtick_9">
     <g id="line2d_9">
      <g>
       <use xlink:href="#m7c0ad9cc92" x="109.855862" y="260.571901" style="fill: #262626; stroke: #262626"/>
      </g>
     </g>
    </g>
    <g id="xtick_10">
     <g id="line2d_10">
      <g>
       <use xlink:href="#m7c0ad9cc92" x="123.321515" y="260.571901" style="fill: #262626; stroke: #262626"/>
      </g>
     </g>
    </g>
    <g id="xtick_11">
     <g id="line2d_11">
      <g>
       <use xlink:href="#m7c0ad9cc92" x="133.766287" y="260.571901" style="fill: #262626; stroke: #262626"/>
      </g>
     </g>
    </g>
    <g id="xtick_12">
     <g id="line2d_12">
      <g>
       <use xlink:href="#m7c0ad9cc92" x="142.300287" y="260.571901" style="fill: #262626; stroke: #262626"/>
      </g>
     </g>
    </g>
    <g id="xtick_13">
     <g id="line2d_13">
      <g>
       <use xlink:href="#m7c0ad9cc92" x="149.515682" y="260.571901" style="fill: #262626; stroke: #262626"/>
      </g>
     </g>
    </g>
    <g id="xtick_14">
     <g id="line2d_14">
      <g>
       <use xlink:href="#m7c0ad9cc92" x="155.765941" y="260.571901" style="fill: #262626; stroke: #262626"/>
      </g>
     </g>
    </g>
    <g id="xtick_15">
     <g id="line2d_15">
      <g>
       <use xlink:href="#m7c0ad9cc92" x="161.27906" y="260.571901" style="fill: #262626; stroke: #262626"/>
      </g>
     </g>
    </g>
    <g id="xtick_16">
     <g id="line2d_16">
      <g>
       <use xlink:href="#m7c0ad9cc92" x="198.655138" y="260.571901" style="fill: #262626; stroke: #262626"/>
      </g>
     </g>
    </g>
    <g id="xtick_17">
     <g id="line2d_17">
      <g>
       <use xlink:href="#m7c0ad9cc92" x="217.63391" y="260.571901" style="fill: #262626; stroke: #262626"/>
      </g>
     </g>
    </g>
    <g id="xtick_18">
     <g id="line2d_18">
      <g>
       <use xlink:href="#m7c0ad9cc92" x="231.099563" y="260.571901" style="fill: #262626; stroke: #262626"/>
      </g>
     </g>
    </g>
    <g id="xtick_19">
     <g id="line2d_19">
      <g>
       <use xlink:href="#m7c0ad9cc92" x="241.544335" y="260.571901" style="fill: #262626; stroke: #262626"/>
      </g>
     </g>
    </g>
    <g id="xtick_20">
     <g id="line2d_20">
      <g>
       <use xlink:href="#m7c0ad9cc92" x="250.078335" y="260.571901" style="fill: #262626; stroke: #262626"/>
      </g>
     </g>
    </g>
    <g id="xtick_21">
     <g id="line2d_21">
      <g>
       <use xlink:href="#m7c0ad9cc92" x="257.293729" y="260.571901" style="fill: #262626; stroke: #262626"/>
      </g>
     </g>
    </g>
    <g id="xtick_22">
     <g id="line2d_22">
      <g>
       <use xlink:href="#m7c0ad9cc92" x="263.543988" y="260.571901" style="fill: #262626; stroke: #262626"/>
      </g>
     </g>
    </g>
    <g id="xtick_23">
     <g id="line2d_23">
      <g>
       <use xlink:href="#m7c0ad9cc92" x="269.057107" y="260.571901" style="fill: #262626; stroke: #262626"/>
      </g>
     </g>
    </g>
   </g>
   <g id="matplotlib.axis_2">
    <g id="ytick_1">
     <g id="line2d_24">
      <defs>
       <path id="m9cc8fde960" d="M 0 0 
L -6 0 
" style="stroke: #262626; stroke-width: 1.25"/>
      </defs>
      <g>
       <use xlink:href="#m9cc8fde960" x="34.52224" y="235.393378" style="fill: #262626; stroke: #262626; stroke-width: 1.25"/>
      </g>
     </g>
     <g id="text_4">
      <!-- $\mathdefault{10^{1}}$ -->
      <g style="fill: #262626" transform="translate(3.00024 240.798331) scale(0.143 -0.143)">
       <use xlink:href="#Avenir-Book-31" transform="translate(0 0.684375)"/>
       <use xlink:href="#Avenir-Book-30" transform="translate(55.599991 0.684375)"/>
       <use xlink:href="#Avenir-Book-31" transform="translate(112.018927 33.442188) scale(0.7)"/>
      </g>
     </g>
    </g>
    <g id="ytick_2">
     <g id="line2d_25">
      <g>
       <use xlink:href="#m9cc8fde960" x="34.52224" y="121.899286" style="fill: #262626; stroke: #262626; stroke-width: 1.25"/>
      </g>
     </g>
     <g id="text_5">
      <!-- $\mathdefault{10^{2}}$ -->
      <g style="fill: #262626" transform="translate(3.00024 127.304239) scale(0.143 -0.143)">
       <use xlink:href="#Avenir-Book-31" transform="translate(0 0.842187)"/>
       <use xlink:href="#Avenir-Book-30" transform="translate(55.599991 0.842187)"/>
       <use xlink:href="#Avenir-Book-32" transform="translate(112.018927 33.6) scale(0.7)"/>
      </g>
     </g>
    </g>
    <g id="ytick_3">
     <g id="line2d_26">
      <g>
       <use xlink:href="#m9cc8fde960" x="34.52224" y="8.405193" style="fill: #262626; stroke: #262626; stroke-width: 1.25"/>
      </g>
     </g>
     <g id="text_6">
      <!-- $\mathdefault{10^{3}}$ -->
      <g style="fill: #262626" transform="translate(3.00024 13.810146) scale(0.143 -0.143)">
       <use xlink:href="#Avenir-Book-31" transform="translate(0 0.842187)"/>
       <use xlink:href="#Avenir-Book-30" transform="translate(55.599991 0.842187)"/>
       <use xlink:href="#Avenir-Book-33" transform="translate(112.018927 33.6) scale(0.7)"/>
      </g>
     </g>
    </g>
    <g id="ytick_4">
     <g id="line2d_27">
      <defs>
       <path id="me9c1d6b20f" d="M 0 0 
L -4 0 
" style="stroke: #262626"/>
      </defs>
      <g>
       <use xlink:href="#me9c1d6b20f" x="34.52224" y="260.571901" style="fill: #262626; stroke: #262626"/>
      </g>
     </g>
    </g>
    <g id="ytick_5">
     <g id="line2d_28">
      <g>
       <use xlink:href="#me9c1d6b20f" x="34.52224" y="252.973835" style="fill: #262626; stroke: #262626"/>
      </g>
     </g>
    </g>
    <g id="ytick_6">
     <g id="line2d_29">
      <g>
       <use xlink:href="#me9c1d6b20f" x="34.52224" y="246.392092" style="fill: #262626; stroke: #262626"/>
      </g>
     </g>
    </g>
    <g id="ytick_7">
     <g id="line2d_30">
      <g>
       <use xlink:href="#me9c1d6b20f" x="34.52224" y="240.586583" style="fill: #262626; stroke: #262626"/>
      </g>
     </g>
    </g>
    <g id="ytick_8">
     <g id="line2d_31">
      <g>
       <use xlink:href="#me9c1d6b20f" x="34.52224" y="201.228252" style="fill: #262626; stroke: #262626"/>
      </g>
     </g>
    </g>
    <g id="ytick_9">
     <g id="line2d_32">
      <g>
       <use xlink:href="#me9c1d6b20f" x="34.52224" y="181.242934" style="fill: #262626; stroke: #262626"/>
      </g>
     </g>
    </g>
    <g id="ytick_10">
     <g id="line2d_33">
      <g>
       <use xlink:href="#me9c1d6b20f" x="34.52224" y="167.063126" style="fill: #262626; stroke: #262626"/>
      </g>
     </g>
    </g>
    <g id="ytick_11">
     <g id="line2d_34">
      <g>
       <use xlink:href="#me9c1d6b20f" x="34.52224" y="156.064412" style="fill: #262626; stroke: #262626"/>
      </g>
     </g>
    </g>
    <g id="ytick_12">
     <g id="line2d_35">
      <g>
       <use xlink:href="#me9c1d6b20f" x="34.52224" y="147.077808" style="fill: #262626; stroke: #262626"/>
      </g>
     </g>
    </g>
    <g id="ytick_13">
     <g id="line2d_36">
      <g>
       <use xlink:href="#me9c1d6b20f" x="34.52224" y="139.479743" style="fill: #262626; stroke: #262626"/>
      </g>
     </g>
    </g>
    <g id="ytick_14">
     <g id="line2d_37">
      <g>
       <use xlink:href="#me9c1d6b20f" x="34.52224" y="132.898" style="fill: #262626; stroke: #262626"/>
      </g>
     </g>
    </g>
    <g id="ytick_15">
     <g id="line2d_38">
      <g>
       <use xlink:href="#me9c1d6b20f" x="34.52224" y="127.09249" style="fill: #262626; stroke: #262626"/>
      </g>
     </g>
    </g>
    <g id="ytick_16">
     <g id="line2d_39">
      <g>
       <use xlink:href="#me9c1d6b20f" x="34.52224" y="87.734159" style="fill: #262626; stroke: #262626"/>
      </g>
     </g>
    </g>
    <g id="ytick_17">
     <g id="line2d_40">
      <g>
       <use xlink:href="#me9c1d6b20f" x="34.52224" y="67.748842" style="fill: #262626; stroke: #262626"/>
      </g>
     </g>
    </g>
    <g id="ytick_18">
     <g id="line2d_41">
      <g>
       <use xlink:href="#me9c1d6b20f" x="34.52224" y="53.569033" style="fill: #262626; stroke: #262626"/>
      </g>
     </g>
    </g>
    <g id="ytick_19">
     <g id="line2d_42">
      <g>
       <use xlink:href="#me9c1d6b20f" x="34.52224" y="42.570319" style="fill: #262626; stroke: #262626"/>
      </g>
     </g>
    </g>
    <g id="ytick_20">
     <g id="line2d_43">
      <g>
       <use xlink:href="#me9c1d6b20f" x="34.52224" y="33.583716" style="fill: #262626; stroke: #262626"/>
      </g>
     </g>
    </g>
    <g id="ytick_21">
     <g id="line2d_44">
      <g>
       <use xlink:href="#me9c1d6b20f" x="34.52224" y="25.98565" style="fill: #262626; stroke: #262626"/>
      </g>
     </g>
    </g>
    <g id="ytick_22">
     <g id="line2d_45">
      <g>
       <use xlink:href="#me9c1d6b20f" x="34.52224" y="19.403907" style="fill: #262626; stroke: #262626"/>
      </g>
     </g>
    </g>
    <g id="ytick_23">
     <g id="line2d_46">
      <g>
       <use xlink:href="#me9c1d6b20f" x="34.52224" y="13.598398" style="fill: #262626; stroke: #262626"/>
      </g>
     </g>
    </g>
   </g>
   <g id="PathCollection_1">
    <defs>
     <path id="C0_0_5a2bb9a1c3" d="M 0 3.535534 
C 0.937635 3.535534 1.836992 3.163008 2.5 2.5 
C 3.163008 1.836992 3.535534 0.937635 3.535534 -0 
C 3.535534 -0.937635 3.163008 -1.836992 2.5 -2.5 
C 1.836992 -3.163008 0.937635 -3.535534 0 -3.535534 
C -0.937635 -3.535534 -1.836992 -3.163008 -2.5 -2.5 
C -3.163008 -1.836992 -3.535534 -0.937635 -3.535534 0 
C -3.535534 0.937635 -3.163008 1.836992 -2.5 2.5 
C -1.836992 3.163008 -0.937635 3.535534 0 3.535534 
z
"/>
    </defs>
    <g clip-path="url(#p56e725d128)">
     <use xlink:href="#C0_0_5a2bb9a1c3" x="163.314485" y="139.893326" style="fill: #f9d3e8; stroke: #000000"/>
    </g>
    <g clip-path="url(#p56e725d128)">
     <use xlink:href="#C0_0_5a2bb9a1c3" x="114.317085" y="194.057726" style="fill: #f7cbe4; stroke: #000000"/>
    </g>
    <g clip-path="url(#p56e725d128)">
     <use xlink:href="#C0_0_5a2bb9a1c3" x="95.338313" y="228.25655" style="fill: #ea9fca; stroke: #000000"/>
    </g>
    <g clip-path="url(#p56e725d128)">
     <use xlink:href="#C0_0_5a2bb9a1c3" x="156.347407" y="198.65875" style="fill: #cc368b; stroke: #000000"/>
    </g>
    <g clip-path="url(#p56e725d128)">
     <use xlink:href="#C0_0_5a2bb9a1c3" x="99.41109" y="210.195194" style="fill: #f6c9e3; stroke: #000000"/>
    </g>
    <g clip-path="url(#p56e725d128)">
     <use xlink:href="#C0_0_5a2bb9a1c3" x="146.76151" y="162.521124" style="fill: #f5c4e1; stroke: #000000"/>
    </g>
    <g clip-path="url(#p56e725d128)">
     <use xlink:href="#C0_0_5a2bb9a1c3" x="74.182059" y="253.43488" style="fill: #e795c3; stroke: #000000"/>
    </g>
    <g clip-path="url(#p56e725d128)">
     <use xlink:href="#C0_0_5a2bb9a1c3" x="160.227163" y="169.989466" style="fill: #e07eb3; stroke: #000000"/>
    </g>
    <g clip-path="url(#p56e725d128)">
     <use xlink:href="#C0_0_5a2bb9a1c3" x="157.489107" y="139.918577" style="fill: #fce4f0; stroke: #000000"/>
    </g>
    <g clip-path="url(#p56e725d128)">
     <use xlink:href="#C0_0_5a2bb9a1c3" x="101.321862" y="208.472748" style="fill: #f6c9e3; stroke: #000000"/>
    </g>
    <g clip-path="url(#p56e725d128)">
     <use xlink:href="#C0_0_5a2bb9a1c3" x="195.00596" y="110.69315" style="fill: #f5c6e2; stroke: #000000"/>
    </g>
    <g clip-path="url(#p56e725d128)">
     <use xlink:href="#C0_0_5a2bb9a1c3" x="193.462719" y="124.842518" style="fill: #ea9fca; stroke: #000000"/>
    </g>
    <g clip-path="url(#p56e725d128)">
     <use xlink:href="#C0_0_5a2bb9a1c3" x="187.916901" y="127.947013" style="fill: #eda8d1; stroke: #000000"/>
    </g>
    <g clip-path="url(#p56e725d128)">
     <use xlink:href="#C0_0_5a2bb9a1c3" x="186.42133" y="113.367294" style="fill: #fbd9ec; stroke: #000000"/>
    </g>
    <g clip-path="url(#p56e725d128)">
     <use xlink:href="#C0_0_5a2bb9a1c3" x="187.916901" y="126.888787" style="fill: #eeabd2; stroke: #000000"/>
    </g>
    <g clip-path="url(#p56e725d128)">
     <use xlink:href="#C0_0_5a2bb9a1c3" x="150.834288" y="163.499078" style="fill: #f1b5d9; stroke: #000000"/>
    </g>
    <g clip-path="url(#p56e725d128)">
     <use xlink:href="#C0_0_5a2bb9a1c3" x="150.179628" y="191.801623" style="fill: #d65a9f; stroke: #000000"/>
    </g>
    <g clip-path="url(#p56e725d128)">
     <use xlink:href="#C0_0_5a2bb9a1c3" x="163.809806" y="172.220523" style="fill: #db6ca8; stroke: #000000"/>
    </g>
    <g clip-path="url(#p56e725d128)">
     <use xlink:href="#C0_0_5a2bb9a1c3" x="142.300287" y="204.59448" style="fill: #d24c97; stroke: #000000"/>
    </g>
    <g clip-path="url(#p56e725d128)">
     <use xlink:href="#C0_0_5a2bb9a1c3" x="187.324395" y="147.763392" style="fill: #db6ca8; stroke: #000000"/>
    </g>
    <g clip-path="url(#p56e725d128)">
     <use xlink:href="#C0_0_5a2bb9a1c3" x="205.803616" y="89.84032" style="fill: #fce3f0; stroke: #000000"/>
    </g>
    <g clip-path="url(#p56e725d128)">
     <use xlink:href="#C0_0_5a2bb9a1c3" x="114.317085" y="218.510921" style="fill: #e07eb3; stroke: #000000"/>
    </g>
    <g clip-path="url(#p56e725d128)">
     <use xlink:href="#C0_0_5a2bb9a1c3" x="219.619514" y="94.152984" style="fill: #eda8d1; stroke: #000000"/>
    </g>
    <g clip-path="url(#p56e725d128)">
     <use xlink:href="#C0_0_5a2bb9a1c3" x="162.813866" y="141.498066" style="fill: #f8d0e7; stroke: #000000"/>
    </g>
    <g clip-path="url(#p56e725d128)">
     <use xlink:href="#C0_0_5a2bb9a1c3" x="153.976905" y="173.483338" style="fill: #e388ba; stroke: #000000"/>
    </g>
    <g clip-path="url(#p56e725d128)">
     <use xlink:href="#C0_0_5a2bb9a1c3" x="191.048047" y="111.106439" style="fill: #f9d1e8; stroke: #000000"/>
    </g>
    <g clip-path="url(#p56e725d128)">
     <use xlink:href="#C0_0_5a2bb9a1c3" x="93.160832" y="230.792077" style="fill: #e99cc8; stroke: #000000"/>
    </g>
    <g clip-path="url(#p56e725d128)">
     <use xlink:href="#C0_0_5a2bb9a1c3" x="204.993078" y="95.79477" style="fill: #f9d3e8; stroke: #000000"/>
    </g>
    <g clip-path="url(#p56e725d128)">
     <use xlink:href="#C0_0_5a2bb9a1c3" x="148.842182" y="196.683884" style="fill: #d34f99; stroke: #000000"/>
    </g>
    <g clip-path="url(#p56e725d128)">
     <use xlink:href="#C0_0_5a2bb9a1c3" x="207.577583" y="136.849206" style="fill: #d24c97; stroke: #000000"/>
    </g>
    <g clip-path="url(#p56e725d128)">
     <use xlink:href="#C0_0_5a2bb9a1c3" x="125.605257" y="204.783664" style="fill: #e283b7; stroke: #000000"/>
    </g>
    <g clip-path="url(#p56e725d128)">
     <use xlink:href="#C0_0_5a2bb9a1c3" x="155.17716" y="156.418487" style="fill: #f3bcdd; stroke: #000000"/>
    </g>
    <g clip-path="url(#p56e725d128)">
     <use xlink:href="#C0_0_5a2bb9a1c3" x="138.22751" y="195.111882" style="fill: #df79b0; stroke: #000000"/>
    </g>
    <g clip-path="url(#p56e725d128)">
     <use xlink:href="#C0_0_5a2bb9a1c3" x="174.353017" y="137.100533" style="fill: #f2badc; stroke: #000000"/>
    </g>
    <g clip-path="url(#p56e725d128)">
     <use xlink:href="#C0_0_5a2bb9a1c3" x="204.375829" y="142.563865" style="fill: #d04493; stroke: #000000"/>
    </g>
    <g clip-path="url(#p56e725d128)">
     <use xlink:href="#C0_0_5a2bb9a1c3" x="165.265076" y="180.608919" style="fill: #d24c97; stroke: #000000"/>
    </g>
    <g clip-path="url(#p56e725d128)">
     <use xlink:href="#C0_0_5a2bb9a1c3" x="150.834288" y="209.899373" style="fill: #c82884; stroke: #000000"/>
    </g>
    <g clip-path="url(#p56e725d128)">
     <use xlink:href="#C0_0_5a2bb9a1c3" x="216.208193" y="109.468782" style="fill: #e283b7; stroke: #000000"/>
    </g>
    <g clip-path="url(#p56e725d128)">
     <use xlink:href="#C0_0_5a2bb9a1c3" x="226.037708" y="94.363387" style="fill: #e692c1; stroke: #000000"/>
    </g>
    <g clip-path="url(#p56e725d128)">
     <use xlink:href="#C0_0_5a2bb9a1c3" x="202.473686" y="102.582741" style="fill: #f6c7e3; stroke: #000000"/>
    </g>
    <g clip-path="url(#p56e725d128)">
     <use xlink:href="#C0_0_5a2bb9a1c3" x="162.307835" y="116.361755" style="fill: #e2f3ca; stroke: #000000"/>
    </g>
    <g clip-path="url(#p56e725d128)">
     <use xlink:href="#C0_0_5a2bb9a1c3" x="160.227163" y="162.610619" style="fill: #e795c3; stroke: #000000"/>
    </g>
    <g clip-path="url(#p56e725d128)">
     <use xlink:href="#C0_0_5a2bb9a1c3" x="162.307835" y="165.290182" style="fill: #e286b8; stroke: #000000"/>
    </g>
    <g clip-path="url(#p56e725d128)">
     <use xlink:href="#C0_0_5a2bb9a1c3" x="128.834634" y="228.383509" style="fill: #cb3289; stroke: #000000"/>
    </g>
    <g clip-path="url(#p56e725d128)">
     <use xlink:href="#C0_0_5a2bb9a1c3" x="129.86341" y="189.816101" style="fill: #eca6cf; stroke: #000000"/>
    </g>
    <g clip-path="url(#p56e725d128)">
     <use xlink:href="#C0_0_5a2bb9a1c3" x="122.136454" y="183.666614" style="fill: #f9d1e8; stroke: #000000"/>
    </g>
    <g clip-path="url(#p56e725d128)">
     <use xlink:href="#C0_0_5a2bb9a1c3" x="164.299941" y="172.70028" style="fill: #da69a6; stroke: #000000"/>
    </g>
    <g clip-path="url(#p56e725d128)">
     <use xlink:href="#C0_0_5a2bb9a1c3" x="194.497179" y="110.274978" style="fill: #f6c9e3; stroke: #000000"/>
    </g>
    <g clip-path="url(#p56e725d128)">
     <use xlink:href="#C0_0_5a2bb9a1c3" x="140.713444" y="169.647972" style="fill: #f4c1df; stroke: #000000"/>
    </g>
    <g clip-path="url(#p56e725d128)">
     <use xlink:href="#C0_0_5a2bb9a1c3" x="225.907144" y="77.30196" style="fill: #f6c9e3; stroke: #000000"/>
    </g>
    <g clip-path="url(#p56e725d128)">
     <use xlink:href="#C0_0_5a2bb9a1c3" x="175.133158" y="108.897881" style="fill: #f1f6e8; stroke: #000000"/>
    </g>
    <g clip-path="url(#p56e725d128)">
     <use xlink:href="#C0_0_5a2bb9a1c3" x="218.865755" y="66.125734" style="fill: #f7f7f6; stroke: #000000"/>
    </g>
    <g clip-path="url(#p56e725d128)">
     <use xlink:href="#C0_0_5a2bb9a1c3" x="207.962832" y="54.334179" style="fill: #7bb93e; stroke: #000000"/>
    </g>
    <g clip-path="url(#p56e725d128)">
     <use xlink:href="#C0_0_5a2bb9a1c3" x="247.512903" y="47.621583" style="fill: #fddeee; stroke: #000000"/>
    </g>
    <g clip-path="url(#p56e725d128)">
     <use xlink:href="#C0_0_5a2bb9a1c3" x="260.772083" y="41.065697" style="fill: #f6c7e3; stroke: #000000"/>
    </g>
    <g clip-path="url(#p56e725d128)">
     <use xlink:href="#C0_0_5a2bb9a1c3" x="256.211429" y="39.796815" style="fill: #fbd9ec; stroke: #000000"/>
    </g>
    <g clip-path="url(#p56e725d128)">
     <use xlink:href="#C0_0_5a2bb9a1c3" x="181.624568" y="156.831057" style="fill: #d861a2; stroke: #000000"/>
    </g>
    <g clip-path="url(#p56e725d128)">
     <use xlink:href="#C0_0_5a2bb9a1c3" x="97.418985" y="252.720448" style="fill: #d24c97; stroke: #000000"/>
    </g>
    <g clip-path="url(#p56e725d128)">
     <use xlink:href="#C0_0_5a2bb9a1c3" x="154.58088" y="122.802559" style="fill: #d8efb9; stroke: #000000"/>
    </g>
    <g clip-path="url(#p56e725d128)">
     <use xlink:href="#C0_0_5a2bb9a1c3" x="147.465394" y="161.178957" style="fill: #f5c6e2; stroke: #000000"/>
    </g>
    <g clip-path="url(#p56e725d128)">
     <use xlink:href="#C0_0_5a2bb9a1c3" x="139.899381" y="167.186752" style="fill: #f7cbe4; stroke: #000000"/>
    </g>
    <g clip-path="url(#p56e725d128)">
     <use xlink:href="#C0_0_5a2bb9a1c3" x="123.321515" y="177.439241" style="fill: #fde1ef; stroke: #000000"/>
    </g>
    <g clip-path="url(#p56e725d128)">
     <use xlink:href="#C0_0_5a2bb9a1c3" x="114.317085" y="211.167173" style="fill: #e795c3; stroke: #000000"/>
    </g>
    <g clip-path="url(#p56e725d128)">
     <use xlink:href="#C0_0_5a2bb9a1c3" x="66.966665" y="237.583125" style="fill: #fde0ef; stroke: #000000"/>
    </g>
    <g clip-path="url(#p56e725d128)">
     <use xlink:href="#C0_0_5a2bb9a1c3" x="62.893888" y="237.770825" style="fill: #fbe7f2; stroke: #000000"/>
    </g>
    <g clip-path="url(#p56e725d128)">
     <use xlink:href="#C0_0_5a2bb9a1c3" x="112.876743" y="210.374459" style="fill: #e99cc8; stroke: #000000"/>
    </g>
    <g clip-path="url(#p56e725d128)">
     <use xlink:href="#C0_0_5a2bb9a1c3" x="106.626485" y="223.145365" style="fill: #e388ba; stroke: #000000"/>
    </g>
    <g clip-path="url(#p56e725d128)">
     <use xlink:href="#C0_0_5a2bb9a1c3" x="173.958015" y="116.021944" style="fill: #f8f2f5; stroke: #000000"/>
    </g>
    <g clip-path="url(#p56e725d128)">
     <use xlink:href="#C0_0_5a2bb9a1c3" x="209.09991" y="106.448761" style="fill: #eca6cf; stroke: #000000"/>
    </g>
    <g clip-path="url(#p56e725d128)">
     <use xlink:href="#C0_0_5a2bb9a1c3" x="191.866857" y="129.7915" style="fill: #e795c3; stroke: #000000"/>
    </g>
    <g clip-path="url(#p56e725d128)">
     <use xlink:href="#C0_0_5a2bb9a1c3" x="173.559652" y="139.748647" style="fill: #f1b5d9; stroke: #000000"/>
    </g>
    <g clip-path="url(#p56e725d128)">
     <use xlink:href="#C0_0_5a2bb9a1c3" x="192.671588" y="119.572394" style="fill: #f1b5d9; stroke: #000000"/>
    </g>
    <g clip-path="url(#p56e725d128)">
     <use xlink:href="#C0_0_5a2bb9a1c3" x="183.924342" y="121.454235" style="fill: #f6c9e3; stroke: #000000"/>
    </g>
    <g clip-path="url(#p56e725d128)">
     <use xlink:href="#C0_0_5a2bb9a1c3" x="221.236257" y="89.115429" style="fill: #f1b5d9; stroke: #000000"/>
    </g>
    <g clip-path="url(#p56e725d128)">
     <use xlink:href="#C0_0_5a2bb9a1c3" x="197.709501" y="116.173677" style="fill: #eeadd4; stroke: #000000"/>
    </g>
    <g clip-path="url(#p56e725d128)">
     <use xlink:href="#C0_0_5a2bb9a1c3" x="177.398475" y="142.655747" style="fill: #e99cc8; stroke: #000000"/>
    </g>
    <g clip-path="url(#p56e725d128)">
     <use xlink:href="#C0_0_5a2bb9a1c3" x="159.151084" y="153.990981" style="fill: #f1b7da; stroke: #000000"/>
    </g>
    <g clip-path="url(#p56e725d128)">
     <use xlink:href="#C0_0_5a2bb9a1c3" x="173.559652" y="136.400638" style="fill: #f3bdde; stroke: #000000"/>
    </g>
    <g clip-path="url(#p56e725d128)">
     <use xlink:href="#C0_0_5a2bb9a1c3" x="199.352035" y="113.646955" style="fill: #efb0d6; stroke: #000000"/>
    </g>
    <g clip-path="url(#p56e725d128)">
     <use xlink:href="#C0_0_5a2bb9a1c3" x="172.343806" y="147.73273" style="fill: #e99cc8; stroke: #000000"/>
    </g>
    <g clip-path="url(#p56e725d128)">
     <use xlink:href="#C0_0_5a2bb9a1c3" x="165.265076" y="171.89393" style="fill: #da69a6; stroke: #000000"/>
    </g>
    <g clip-path="url(#p56e725d128)">
     <use xlink:href="#C0_0_5a2bb9a1c3" x="125.605257" y="193.906546" style="fill: #eca6cf; stroke: #000000"/>
    </g>
    <g clip-path="url(#p56e725d128)">
     <use xlink:href="#C0_0_5a2bb9a1c3" x="158.049682" y="155.662817" style="fill: #f1b5d9; stroke: #000000"/>
    </g>
    <g clip-path="url(#p56e725d128)">
     <use xlink:href="#C0_0_5a2bb9a1c3" x="103.157682" y="208.088075" style="fill: #f5c4e1; stroke: #000000"/>
    </g>
    <g clip-path="url(#p56e725d128)">
     <use xlink:href="#C0_0_5a2bb9a1c3" x="97.418985" y="213.716197" style="fill: #f5c6e2; stroke: #000000"/>
    </g>
    <g clip-path="url(#p56e725d128)">
     <use xlink:href="#C0_0_5a2bb9a1c3" x="181.624568" y="132.34285" style="fill: #efb0d6; stroke: #000000"/>
    </g>
    <g clip-path="url(#p56e725d128)">
     <use xlink:href="#C0_0_5a2bb9a1c3" x="111.390669" y="220.994952" style="fill: #e181b5; stroke: #000000"/>
    </g>
    <g clip-path="url(#p56e725d128)">
     <use xlink:href="#C0_0_5a2bb9a1c3" x="120.920609" y="189.090464" style="fill: #f5c6e2; stroke: #000000"/>
    </g>
    <g clip-path="url(#p56e725d128)">
     <use xlink:href="#C0_0_5a2bb9a1c3" x="95.338313" y="234.434282" style="fill: #e48bbc; stroke: #000000"/>
    </g>
    <g clip-path="url(#p56e725d128)">
     <use xlink:href="#C0_0_5a2bb9a1c3" x="204.993078" y="102.083032" style="fill: #f4c1df; stroke: #000000"/>
    </g>
    <g clip-path="url(#p56e725d128)">
     <use xlink:href="#C0_0_5a2bb9a1c3" x="201.822064" y="91.534916" style="fill: #fbe7f2; stroke: #000000"/>
    </g>
    <g clip-path="url(#p56e725d128)">
     <use xlink:href="#C0_0_5a2bb9a1c3" x="209.472879" y="105.817647" style="fill: #eca6cf; stroke: #000000"/>
    </g>
    <g clip-path="url(#p56e725d128)">
     <use xlink:href="#C0_0_5a2bb9a1c3" x="165.740282" y="176.94455" style="fill: #d5579d; stroke: #000000"/>
    </g>
    <g clip-path="url(#p56e725d128)">
     <use xlink:href="#C0_0_5a2bb9a1c3" x="122.136454" y="229.826403" style="fill: #cf4191; stroke: #000000"/>
    </g>
    <g clip-path="url(#p56e725d128)">
     <use xlink:href="#C0_0_5a2bb9a1c3" x="200.038709" y="148.21023" style="fill: #cf4191; stroke: #000000"/>
    </g>
    <g clip-path="url(#p56e725d128)">
     <use xlink:href="#C0_0_5a2bb9a1c3" x="187.916901" y="121.112141" style="fill: #f3bdde; stroke: #000000"/>
    </g>
    <g clip-path="url(#p56e725d128)">
     <use xlink:href="#C0_0_5a2bb9a1c3" x="134.693197" y="191.967816" style="fill: #e58dbe; stroke: #000000"/>
    </g>
    <g clip-path="url(#p56e725d128)">
     <use xlink:href="#C0_0_5a2bb9a1c3" x="123.321515" y="211.795337" style="fill: #de77ae; stroke: #000000"/>
    </g>
    <g clip-path="url(#p56e725d128)">
     <use xlink:href="#C0_0_5a2bb9a1c3" x="139.07091" y="210.615586" style="fill: #d04493; stroke: #000000"/>
    </g>
    <g clip-path="url(#p56e725d128)">
     <use xlink:href="#C0_0_5a2bb9a1c3" x="143.835094" y="208.807462" style="fill: #ce3d8f; stroke: #000000"/>
    </g>
    <g clip-path="url(#p56e725d128)">
     <use xlink:href="#C0_0_5a2bb9a1c3" x="165.740282" y="173.534749" style="fill: #d861a2; stroke: #000000"/>
    </g>
    <g clip-path="url(#p56e725d128)">
     <use xlink:href="#C0_0_5a2bb9a1c3" x="145.321169" y="207.336794" style="fill: #ce3d8f; stroke: #000000"/>
    </g>
    <g clip-path="url(#p56e725d128)">
     <use xlink:href="#C0_0_5a2bb9a1c3" x="138.22751" y="213.170722" style="fill: #cf4191; stroke: #000000"/>
    </g>
    <g clip-path="url(#p56e725d128)">
     <use xlink:href="#C0_0_5a2bb9a1c3" x="152.745059" y="125.526693" style="fill: #ddf1c1; stroke: #000000"/>
    </g>
    <g clip-path="url(#p56e725d128)">
     <use xlink:href="#C0_0_5a2bb9a1c3" x="130.87006" y="165.108536" style="fill: #faeaf2; stroke: #000000"/>
    </g>
    <g clip-path="url(#p56e725d128)">
     <use xlink:href="#C0_0_5a2bb9a1c3" x="114.317085" y="112.289186" style="fill: #276419; stroke: #000000"/>
    </g>
    <g clip-path="url(#p56e725d128)">
     <use xlink:href="#C0_0_5a2bb9a1c3" x="157.489107" y="108.492693" style="fill: #83bf46; stroke: #000000"/>
    </g>
    <g clip-path="url(#p56e725d128)">
     <use xlink:href="#C0_0_5a2bb9a1c3" x="233.605668" y="50.930016" style="fill: #f7f7f6; stroke: #000000"/>
    </g>
    <g clip-path="url(#p56e725d128)">
     <use xlink:href="#C0_0_5a2bb9a1c3" x="208.534823" y="2.535037" style="fill: #276419; stroke: #000000"/>
    </g>
    <g clip-path="url(#p56e725d128)">
     <use xlink:href="#C0_0_5a2bb9a1c3" x="163.809806" y="119.218737" style="fill: #edf6e1; stroke: #000000"/>
    </g>
    <g clip-path="url(#p56e725d128)">
     <use xlink:href="#C0_0_5a2bb9a1c3" x="186.42133" y="76.768285" style="fill: #79b73d; stroke: #000000"/>
    </g>
    <g clip-path="url(#p56e725d128)">
     <use xlink:href="#C0_0_5a2bb9a1c3" x="243.018706" y="26.916997" style="fill: #c7e89f; stroke: #000000"/>
    </g>
    <g clip-path="url(#p56e725d128)">
     <use xlink:href="#C0_0_5a2bb9a1c3" x="192.936787" y="45.796609" style="fill: #276419; stroke: #000000"/>
    </g>
    <g clip-path="url(#p56e725d128)">
     <use xlink:href="#C0_0_5a2bb9a1c3" x="208.154273" y="59.805898" style="fill: #acd977; stroke: #000000"/>
    </g>
    <g clip-path="url(#p56e725d128)">
     <use xlink:href="#C0_0_5a2bb9a1c3" x="209.472879" y="40.550451" style="fill: #276419; stroke: #000000"/>
    </g>
    <g clip-path="url(#p56e725d128)">
     <use xlink:href="#C0_0_5a2bb9a1c3" x="220.508289" y="62.939363" style="fill: #f4f7f0; stroke: #000000"/>
    </g>
    <g clip-path="url(#p56e725d128)">
     <use xlink:href="#C0_0_5a2bb9a1c3" x="216.047066" y="53.294214" style="fill: #bbe28a; stroke: #000000"/>
    </g>
    <g clip-path="url(#p56e725d128)">
     <use xlink:href="#C0_0_5a2bb9a1c3" x="206.004077" y="88.311858" style="fill: #fce5f1; stroke: #000000"/>
    </g>
    <g clip-path="url(#p56e725d128)">
     <use xlink:href="#C0_0_5a2bb9a1c3" x="245.233282" y="12.455453" style="fill: #66a731; stroke: #000000"/>
    </g>
    <g clip-path="url(#p56e725d128)">
     <use xlink:href="#C0_0_5a2bb9a1c3" x="217.63391" y="47.207306" style="fill: #95cb5c; stroke: #000000"/>
    </g>
    <g clip-path="url(#p56e725d128)">
     <use xlink:href="#C0_0_5a2bb9a1c3" x="184.243848" y="108.801316" style="fill: #faeaf2; stroke: #000000"/>
    </g>
    <g clip-path="url(#p56e725d128)">
     <use xlink:href="#C0_0_5a2bb9a1c3" x="227.576721" y="57.117073" style="fill: #f7f7f6; stroke: #000000"/>
    </g>
    <g clip-path="url(#p56e725d128)">
     <use xlink:href="#C0_0_5a2bb9a1c3" x="193.462719" y="86.388627" style="fill: #ebf6db; stroke: #000000"/>
    </g>
   </g>
   <g id="line2d_47">
    <path d="M 7.525901 289 
L 282.920268 -1 
" clip-path="url(#p56e725d128)" style="fill: none; stroke-dasharray: 3.7,1.6; stroke-dashoffset: 0; stroke: #000000"/>
   </g>
   <g id="patch_3">
    <path d="M 34.52224 260.571901 
L 34.52224 8.405193 
" style="fill: none; stroke: #262626; stroke-width: 1.25; stroke-linejoin: miter; stroke-linecap: square"/>
   </g>
   <g id="patch_4">
    <path d="M 273.98876 260.571901 
L 273.98876 8.405193 
" style="fill: none; stroke: #262626; stroke-width: 1.25; stroke-linejoin: miter; stroke-linecap: square"/>
   </g>
   <g id="patch_5">
    <path d="M 34.52224 260.571901 
L 273.98876 260.571901 
" style="fill: none; stroke: #262626; stroke-width: 1.25; stroke-linejoin: miter; stroke-linecap: square"/>
   </g>
   <g id="patch_6">
    <path d="M 34.52224 8.405193 
L 273.98876 8.405193 
" style="fill: none; stroke: #262626; stroke-width: 1.25; stroke-linejoin: miter; stroke-linecap: square"/>
   </g>
  </g>
 </g>
 <defs>
  <clipPath id="p56e725d128">
   <rect x="34.52224" y="8.405193" width="239.46652" height="252.166708"/>
  </clipPath>
 </defs>
</svg>
