<?xml version="1.0" encoding="utf-8" standalone="no"?>
<!DOCTYPE svg PUBLIC "-//W3C//DTD SVG 1.1//EN"
  "http://www.w3.org/Graphics/SVG/1.1/DTD/svg11.dtd">
<svg xmlns:xlink="http://www.w3.org/1999/xlink" width="288pt" height="288pt" viewBox="0 0 288 288" xmlns="http://www.w3.org/2000/svg" version="1.1">
 <metadata>
  <rdf:RDF xmlns:dc="http://purl.org/dc/elements/1.1/" xmlns:cc="http://creativecommons.org/ns#" xmlns:rdf="http://www.w3.org/1999/02/22-rdf-syntax-ns#">
   <cc:Work>
    <dc:type rdf:resource="http://purl.org/dc/dcmitype/StillImage"/>
    <dc:date>2023-12-04T15:56:43.281053</dc:date>
    <dc:format>image/svg+xml</dc:format>
    <dc:creator>
     <cc:Agent>
      <dc:title>Matplotlib v3.7.1, https://matplotlib.org/</dc:title>
     </cc:Agent>
    </dc:creator>
   </cc:Work>
  </rdf:RDF>
 </metadata>
 <defs>
  <style type="text/css">*{stroke-linejoin: round; stroke-linecap: butt}</style>
 </defs>
 <g id="figure_1">
  <g id="patch_1">
   <path d="M 0 288 
L 288 288 
L 288 0 
L 0 0 
z
" style="fill: #ffffff"/>
  </g>
  <g id="axes_1">
   <g id="patch_2">
    <path d="M 34.52224 260.571901 
L 273.98876 260.571901 
L 273.98876 8.405193 
L 34.52224 8.405193 
z
" style="fill: #ffffff"/>
   </g>
   <g id="matplotlib.axis_1">
    <g id="xtick_1">
     <g id="line2d_1">
      <defs>
       <path id="maf610b808f" d="M 0 0 
L 0 6 
" style="stroke: #262626; stroke-width: 1.25"/>
      </defs>
      <g>
       <use xlink:href="#maf610b808f" x="58.432665" y="260.571901" style="fill: #262626; stroke: #262626; stroke-width: 1.25"/>
      </g>
     </g>
     <g id="text_1">
      <!-- $\mathdefault{10^{1}}$ -->
      <g style="fill: #262626" transform="translate(47.421665 280.881807) scale(0.143 -0.143)">
       <defs>
        <path id="Avenir-Book-31" d="M 2227 0 
L 1766 0 
L 1766 3955 
L 954 3238 
L 666 3584 
L 1818 4531 
L 2227 4531 
L 2227 0 
z
" transform="scale(0.015625)"/>
        <path id="Avenir-Book-30" d="M 1779 4186 
Q 1408 4186 1193 3987 
Q 979 3789 870 3494 
Q 762 3200 733 2867 
Q 704 2534 704 2266 
Q 704 1997 733 1664 
Q 762 1331 870 1036 
Q 979 742 1193 544 
Q 1408 346 1779 346 
Q 2150 346 2364 544 
Q 2579 742 2688 1036 
Q 2797 1331 2825 1664 
Q 2854 1997 2854 2266 
Q 2854 2534 2825 2867 
Q 2797 3200 2688 3494 
Q 2579 3789 2364 3987 
Q 2150 4186 1779 4186 
z
M 1779 4608 
Q 2266 4608 2566 4384 
Q 2867 4160 3033 3814 
Q 3200 3469 3257 3056 
Q 3315 2643 3315 2266 
Q 3315 1888 3257 1475 
Q 3200 1062 3033 716 
Q 2867 371 2566 147 
Q 2266 -77 1779 -77 
Q 1293 -77 992 147 
Q 691 371 524 716 
Q 358 1062 300 1475 
Q 243 1888 243 2266 
Q 243 2643 300 3056 
Q 358 3469 524 3814 
Q 691 4160 992 4384 
Q 1293 4608 1779 4608 
z
" transform="scale(0.015625)"/>
       </defs>
       <use xlink:href="#Avenir-Book-31" transform="translate(0 0.684375)"/>
       <use xlink:href="#Avenir-Book-30" transform="translate(55.599991 0.684375)"/>
       <use xlink:href="#Avenir-Book-31" transform="translate(112.018927 33.442188) scale(0.7)"/>
      </g>
     </g>
    </g>
    <g id="xtick_2">
     <g id="line2d_2">
      <g>
       <use xlink:href="#maf610b808f" x="166.210713" y="260.571901" style="fill: #262626; stroke: #262626; stroke-width: 1.25"/>
      </g>
     </g>
     <g id="text_2">
      <!-- $\mathdefault{10^{2}}$ -->
      <g style="fill: #262626" transform="translate(155.199713 280.881807) scale(0.143 -0.143)">
       <defs>
        <path id="Avenir-Book-32" d="M 3187 0 
L 307 0 
L 307 531 
L 2112 2368 
Q 2214 2470 2316 2585 
Q 2419 2701 2502 2829 
Q 2586 2957 2637 3097 
Q 2688 3238 2688 3392 
Q 2688 3578 2621 3725 
Q 2554 3872 2432 3974 
Q 2310 4077 2150 4131 
Q 1990 4186 1811 4186 
Q 1466 4186 1222 3994 
Q 979 3802 909 3475 
L 422 3526 
Q 518 4032 886 4320 
Q 1254 4608 1779 4608 
Q 2054 4608 2300 4534 
Q 2547 4461 2736 4313 
Q 2925 4166 3037 3945 
Q 3149 3725 3149 3430 
Q 3149 3168 3069 2950 
Q 2989 2733 2861 2541 
Q 2733 2349 2569 2176 
Q 2406 2003 2234 1837 
L 806 422 
L 3187 422 
L 3187 0 
z
" transform="scale(0.015625)"/>
       </defs>
       <use xlink:href="#Avenir-Book-31" transform="translate(0 0.842187)"/>
       <use xlink:href="#Avenir-Book-30" transform="translate(55.599991 0.842187)"/>
       <use xlink:href="#Avenir-Book-32" transform="translate(112.018927 33.6) scale(0.7)"/>
      </g>
     </g>
    </g>
    <g id="xtick_3">
     <g id="line2d_3">
      <g>
       <use xlink:href="#maf610b808f" x="273.98876" y="260.571901" style="fill: #262626; stroke: #262626; stroke-width: 1.25"/>
      </g>
     </g>
     <g id="text_3">
      <!-- $\mathdefault{10^{3}}$ -->
      <g style="fill: #262626" transform="translate(262.97776 280.881807) scale(0.143 -0.143)">
       <defs>
        <path id="Avenir-Book-33" d="M 1306 2586 
L 1542 2586 
Q 1741 2586 1923 2630 
Q 2106 2675 2240 2774 
Q 2374 2874 2454 3034 
Q 2534 3194 2534 3418 
Q 2534 3782 2313 3984 
Q 2093 4186 1696 4186 
Q 1408 4186 1190 4058 
Q 973 3930 832 3686 
L 429 3891 
Q 634 4256 950 4432 
Q 1267 4608 1683 4608 
Q 1952 4608 2189 4531 
Q 2426 4454 2605 4304 
Q 2784 4154 2889 3933 
Q 2995 3712 2995 3430 
Q 2995 3245 2934 3078 
Q 2874 2912 2768 2777 
Q 2662 2643 2521 2544 
Q 2381 2445 2227 2394 
L 2246 2381 
Q 2438 2342 2598 2236 
Q 2758 2131 2873 1977 
Q 2989 1824 3053 1632 
Q 3117 1440 3117 1229 
Q 3117 915 3001 672 
Q 2886 429 2688 262 
Q 2490 96 2227 9 
Q 1965 -77 1670 -77 
Q 1171 -77 800 140 
Q 429 358 243 838 
L 730 986 
Q 845 659 1072 502 
Q 1299 346 1709 346 
Q 1901 346 2073 410 
Q 2246 474 2377 592 
Q 2509 710 2582 876 
Q 2656 1043 2656 1242 
Q 2656 1498 2560 1674 
Q 2464 1850 2304 1958 
Q 2144 2067 1936 2115 
Q 1728 2163 1504 2163 
L 1306 2163 
L 1306 2586 
z
" transform="scale(0.015625)"/>
       </defs>
       <use xlink:href="#Avenir-Book-31" transform="translate(0 0.842187)"/>
       <use xlink:href="#Avenir-Book-30" transform="translate(55.599991 0.842187)"/>
       <use xlink:href="#Avenir-Book-33" transform="translate(112.018927 33.6) scale(0.7)"/>
      </g>
     </g>
    </g>
    <g id="xtick_4">
     <g id="line2d_4">
      <defs>
       <path id="m5358b07872" d="M 0 0 
L 0 4 
" style="stroke: #262626"/>
      </defs>
      <g>
       <use xlink:href="#m5358b07872" x="34.52224" y="260.571901" style="fill: #262626; stroke: #262626"/>
      </g>
     </g>
    </g>
    <g id="xtick_5">
     <g id="line2d_5">
      <g>
       <use xlink:href="#m5358b07872" x="41.737634" y="260.571901" style="fill: #262626; stroke: #262626"/>
      </g>
     </g>
    </g>
    <g id="xtick_6">
     <g id="line2d_6">
      <g>
       <use xlink:href="#m5358b07872" x="47.987893" y="260.571901" style="fill: #262626; stroke: #262626"/>
      </g>
     </g>
    </g>
    <g id="xtick_7">
     <g id="line2d_7">
      <g>
       <use xlink:href="#m5358b07872" x="53.501012" y="260.571901" style="fill: #262626; stroke: #262626"/>
      </g>
     </g>
    </g>
    <g id="xtick_8">
     <g id="line2d_8">
      <g>
       <use xlink:href="#m5358b07872" x="90.87709" y="260.571901" style="fill: #262626; stroke: #262626"/>
      </g>
     </g>
    </g>
    <g id="xtick_9">
     <g id="line2d_9">
      <g>
       <use xlink:href="#m5358b07872" x="109.855862" y="260.571901" style="fill: #262626; stroke: #262626"/>
      </g>
     </g>
    </g>
    <g id="xtick_10">
     <g id="line2d_10">
      <g>
       <use xlink:href="#m5358b07872" x="123.321515" y="260.571901" style="fill: #262626; stroke: #262626"/>
      </g>
     </g>
    </g>
    <g id="xtick_11">
     <g id="line2d_11">
      <g>
       <use xlink:href="#m5358b07872" x="133.766287" y="260.571901" style="fill: #262626; stroke: #262626"/>
      </g>
     </g>
    </g>
    <g id="xtick_12">
     <g id="line2d_12">
      <g>
       <use xlink:href="#m5358b07872" x="142.300287" y="260.571901" style="fill: #262626; stroke: #262626"/>
      </g>
     </g>
    </g>
    <g id="xtick_13">
     <g id="line2d_13">
      <g>
       <use xlink:href="#m5358b07872" x="149.515682" y="260.571901" style="fill: #262626; stroke: #262626"/>
      </g>
     </g>
    </g>
    <g id="xtick_14">
     <g id="line2d_14">
      <g>
       <use xlink:href="#m5358b07872" x="155.765941" y="260.571901" style="fill: #262626; stroke: #262626"/>
      </g>
     </g>
    </g>
    <g id="xtick_15">
     <g id="line2d_15">
      <g>
       <use xlink:href="#m5358b07872" x="161.27906" y="260.571901" style="fill: #262626; stroke: #262626"/>
      </g>
     </g>
    </g>
    <g id="xtick_16">
     <g id="line2d_16">
      <g>
       <use xlink:href="#m5358b07872" x="198.655138" y="260.571901" style="fill: #262626; stroke: #262626"/>
      </g>
     </g>
    </g>
    <g id="xtick_17">
     <g id="line2d_17">
      <g>
       <use xlink:href="#m5358b07872" x="217.63391" y="260.571901" style="fill: #262626; stroke: #262626"/>
      </g>
     </g>
    </g>
    <g id="xtick_18">
     <g id="line2d_18">
      <g>
       <use xlink:href="#m5358b07872" x="231.099563" y="260.571901" style="fill: #262626; stroke: #262626"/>
      </g>
     </g>
    </g>
    <g id="xtick_19">
     <g id="line2d_19">
      <g>
       <use xlink:href="#m5358b07872" x="241.544335" y="260.571901" style="fill: #262626; stroke: #262626"/>
      </g>
     </g>
    </g>
    <g id="xtick_20">
     <g id="line2d_20">
      <g>
       <use xlink:href="#m5358b07872" x="250.078335" y="260.571901" style="fill: #262626; stroke: #262626"/>
      </g>
     </g>
    </g>
    <g id="xtick_21">
     <g id="line2d_21">
      <g>
       <use xlink:href="#m5358b07872" x="257.293729" y="260.571901" style="fill: #262626; stroke: #262626"/>
      </g>
     </g>
    </g>
    <g id="xtick_22">
     <g id="line2d_22">
      <g>
       <use xlink:href="#m5358b07872" x="263.543988" y="260.571901" style="fill: #262626; stroke: #262626"/>
      </g>
     </g>
    </g>
    <g id="xtick_23">
     <g id="line2d_23">
      <g>
       <use xlink:href="#m5358b07872" x="269.057107" y="260.571901" style="fill: #262626; stroke: #262626"/>
      </g>
     </g>
    </g>
   </g>
   <g id="matplotlib.axis_2">
    <g id="ytick_1">
     <g id="line2d_24">
      <defs>
       <path id="mbbf2d84026" d="M 0 0 
L -6 0 
" style="stroke: #262626; stroke-width: 1.25"/>
      </defs>
      <g>
       <use xlink:href="#mbbf2d84026" x="34.52224" y="235.393378" style="fill: #262626; stroke: #262626; stroke-width: 1.25"/>
      </g>
     </g>
     <g id="text_4">
      <!-- $\mathdefault{10^{1}}$ -->
      <g style="fill: #262626" transform="translate(3.00024 240.798331) scale(0.143 -0.143)">
       <use xlink:href="#Avenir-Book-31" transform="translate(0 0.684375)"/>
       <use xlink:href="#Avenir-Book-30" transform="translate(55.599991 0.684375)"/>
       <use xlink:href="#Avenir-Book-31" transform="translate(112.018927 33.442188) scale(0.7)"/>
      </g>
     </g>
    </g>
    <g id="ytick_2">
     <g id="line2d_25">
      <g>
       <use xlink:href="#mbbf2d84026" x="34.52224" y="121.899286" style="fill: #262626; stroke: #262626; stroke-width: 1.25"/>
      </g>
     </g>
     <g id="text_5">
      <!-- $\mathdefault{10^{2}}$ -->
      <g style="fill: #262626" transform="translate(3.00024 127.304239) scale(0.143 -0.143)">
       <use xlink:href="#Avenir-Book-31" transform="translate(0 0.842187)"/>
       <use xlink:href="#Avenir-Book-30" transform="translate(55.599991 0.842187)"/>
       <use xlink:href="#Avenir-Book-32" transform="translate(112.018927 33.6) scale(0.7)"/>
      </g>
     </g>
    </g>
    <g id="ytick_3">
     <g id="line2d_26">
      <g>
       <use xlink:href="#mbbf2d84026" x="34.52224" y="8.405193" style="fill: #262626; stroke: #262626; stroke-width: 1.25"/>
      </g>
     </g>
     <g id="text_6">
      <!-- $\mathdefault{10^{3}}$ -->
      <g style="fill: #262626" transform="translate(3.00024 13.810146) scale(0.143 -0.143)">
       <use xlink:href="#Avenir-Book-31" transform="translate(0 0.842187)"/>
       <use xlink:href="#Avenir-Book-30" transform="translate(55.599991 0.842187)"/>
       <use xlink:href="#Avenir-Book-33" transform="translate(112.018927 33.6) scale(0.7)"/>
      </g>
     </g>
    </g>
    <g id="ytick_4">
     <g id="line2d_27">
      <defs>
       <path id="mc04d5746cd" d="M 0 0 
L -4 0 
" style="stroke: #262626"/>
      </defs>
      <g>
       <use xlink:href="#mc04d5746cd" x="34.52224" y="260.571901" style="fill: #262626; stroke: #262626"/>
      </g>
     </g>
    </g>
    <g id="ytick_5">
     <g id="line2d_28">
      <g>
       <use xlink:href="#mc04d5746cd" x="34.52224" y="252.973835" style="fill: #262626; stroke: #262626"/>
      </g>
     </g>
    </g>
    <g id="ytick_6">
     <g id="line2d_29">
      <g>
       <use xlink:href="#mc04d5746cd" x="34.52224" y="246.392092" style="fill: #262626; stroke: #262626"/>
      </g>
     </g>
    </g>
    <g id="ytick_7">
     <g id="line2d_30">
      <g>
       <use xlink:href="#mc04d5746cd" x="34.52224" y="240.586583" style="fill: #262626; stroke: #262626"/>
      </g>
     </g>
    </g>
    <g id="ytick_8">
     <g id="line2d_31">
      <g>
       <use xlink:href="#mc04d5746cd" x="34.52224" y="201.228252" style="fill: #262626; stroke: #262626"/>
      </g>
     </g>
    </g>
    <g id="ytick_9">
     <g id="line2d_32">
      <g>
       <use xlink:href="#mc04d5746cd" x="34.52224" y="181.242934" style="fill: #262626; stroke: #262626"/>
      </g>
     </g>
    </g>
    <g id="ytick_10">
     <g id="line2d_33">
      <g>
       <use xlink:href="#mc04d5746cd" x="34.52224" y="167.063126" style="fill: #262626; stroke: #262626"/>
      </g>
     </g>
    </g>
    <g id="ytick_11">
     <g id="line2d_34">
      <g>
       <use xlink:href="#mc04d5746cd" x="34.52224" y="156.064412" style="fill: #262626; stroke: #262626"/>
      </g>
     </g>
    </g>
    <g id="ytick_12">
     <g id="line2d_35">
      <g>
       <use xlink:href="#mc04d5746cd" x="34.52224" y="147.077808" style="fill: #262626; stroke: #262626"/>
      </g>
     </g>
    </g>
    <g id="ytick_13">
     <g id="line2d_36">
      <g>
       <use xlink:href="#mc04d5746cd" x="34.52224" y="139.479743" style="fill: #262626; stroke: #262626"/>
      </g>
     </g>
    </g>
    <g id="ytick_14">
     <g id="line2d_37">
      <g>
       <use xlink:href="#mc04d5746cd" x="34.52224" y="132.898" style="fill: #262626; stroke: #262626"/>
      </g>
     </g>
    </g>
    <g id="ytick_15">
     <g id="line2d_38">
      <g>
       <use xlink:href="#mc04d5746cd" x="34.52224" y="127.09249" style="fill: #262626; stroke: #262626"/>
      </g>
     </g>
    </g>
    <g id="ytick_16">
     <g id="line2d_39">
      <g>
       <use xlink:href="#mc04d5746cd" x="34.52224" y="87.734159" style="fill: #262626; stroke: #262626"/>
      </g>
     </g>
    </g>
    <g id="ytick_17">
     <g id="line2d_40">
      <g>
       <use xlink:href="#mc04d5746cd" x="34.52224" y="67.748842" style="fill: #262626; stroke: #262626"/>
      </g>
     </g>
    </g>
    <g id="ytick_18">
     <g id="line2d_41">
      <g>
       <use xlink:href="#mc04d5746cd" x="34.52224" y="53.569033" style="fill: #262626; stroke: #262626"/>
      </g>
     </g>
    </g>
    <g id="ytick_19">
     <g id="line2d_42">
      <g>
       <use xlink:href="#mc04d5746cd" x="34.52224" y="42.570319" style="fill: #262626; stroke: #262626"/>
      </g>
     </g>
    </g>
    <g id="ytick_20">
     <g id="line2d_43">
      <g>
       <use xlink:href="#mc04d5746cd" x="34.52224" y="33.583716" style="fill: #262626; stroke: #262626"/>
      </g>
     </g>
    </g>
    <g id="ytick_21">
     <g id="line2d_44">
      <g>
       <use xlink:href="#mc04d5746cd" x="34.52224" y="25.98565" style="fill: #262626; stroke: #262626"/>
      </g>
     </g>
    </g>
    <g id="ytick_22">
     <g id="line2d_45">
      <g>
       <use xlink:href="#mc04d5746cd" x="34.52224" y="19.403907" style="fill: #262626; stroke: #262626"/>
      </g>
     </g>
    </g>
    <g id="ytick_23">
     <g id="line2d_46">
      <g>
       <use xlink:href="#mc04d5746cd" x="34.52224" y="13.598398" style="fill: #262626; stroke: #262626"/>
      </g>
     </g>
    </g>
   </g>
   <g id="PathCollection_1">
    <defs>
     <path id="C0_0_ccbf8b4e4a" d="M 0 3.535534 
C 0.937635 3.535534 1.836992 3.163008 2.5 2.5 
C 3.163008 1.836992 3.535534 0.937635 3.535534 -0 
C 3.535534 -0.937635 3.163008 -1.836992 2.5 -2.5 
C 1.836992 -3.163008 0.937635 -3.535534 0 -3.535534 
C -0.937635 -3.535534 -1.836992 -3.163008 -2.5 -2.5 
C -3.163008 -1.836992 -3.535534 -0.937635 -3.535534 0 
C -3.535534 0.937635 -3.163008 1.836992 -2.5 2.5 
C -1.836992 3.163008 -0.937635 3.535534 0 3.535534 
z
"/>
    </defs>
    <g clip-path="url(#p41a96d3666)">
     <use xlink:href="#C0_0_ccbf8b4e4a" x="163.314485" y="128.763493" style="fill: #f9eef4; stroke: #000000"/>
    </g>
    <g clip-path="url(#p41a96d3666)">
     <use xlink:href="#C0_0_ccbf8b4e4a" x="114.317085" y="181.242934" style="fill: #faedf3; stroke: #000000"/>
    </g>
    <g clip-path="url(#p41a96d3666)">
     <use xlink:href="#C0_0_ccbf8b4e4a" x="95.338313" y="215.40806" style="fill: #f6c7e3; stroke: #000000"/>
    </g>
    <g clip-path="url(#p41a96d3666)">
     <use xlink:href="#C0_0_ccbf8b4e4a" x="156.347407" y="184.643583" style="fill: #d75ea1; stroke: #000000"/>
    </g>
    <g clip-path="url(#p41a96d3666)">
     <use xlink:href="#C0_0_ccbf8b4e4a" x="99.41109" y="196.530427" style="fill: #f9eef4; stroke: #000000"/>
    </g>
    <g clip-path="url(#p41a96d3666)">
     <use xlink:href="#C0_0_ccbf8b4e4a" x="146.76151" y="150.478457" style="fill: #fce5f1; stroke: #000000"/>
    </g>
    <g clip-path="url(#p41a96d3666)">
     <use xlink:href="#C0_0_ccbf8b4e4a" x="74.182059" y="240.586583" style="fill: #f4bfdf; stroke: #000000"/>
    </g>
    <g clip-path="url(#p41a96d3666)">
     <use xlink:href="#C0_0_ccbf8b4e4a" x="160.227163" y="157.0602" style="fill: #eda8d1; stroke: #000000"/>
    </g>
    <g clip-path="url(#p41a96d3666)">
     <use xlink:href="#C0_0_ccbf8b4e4a" x="157.489107" y="128.763493" style="fill: #f3f6ed; stroke: #000000"/>
    </g>
    <g clip-path="url(#p41a96d3666)">
     <use xlink:href="#C0_0_ccbf8b4e4a" x="101.321862" y="194.339406" style="fill: #f9eef4; stroke: #000000"/>
    </g>
    <g clip-path="url(#p41a96d3666)">
     <use xlink:href="#C0_0_ccbf8b4e4a" x="195.00596" y="101.586459" style="fill: #fde2f0; stroke: #000000"/>
    </g>
    <g clip-path="url(#p41a96d3666)">
     <use xlink:href="#C0_0_ccbf8b4e4a" x="193.462719" y="114.583685" style="fill: #f4bfdf; stroke: #000000"/>
    </g>
    <g clip-path="url(#p41a96d3666)">
     <use xlink:href="#C0_0_ccbf8b4e4a" x="187.916901" y="117.20146" style="fill: #f6c9e3; stroke: #000000"/>
    </g>
    <g clip-path="url(#p41a96d3666)">
     <use xlink:href="#C0_0_ccbf8b4e4a" x="186.42133" y="103.926078" style="fill: #f9eff4; stroke: #000000"/>
    </g>
    <g clip-path="url(#p41a96d3666)">
     <use xlink:href="#C0_0_ccbf8b4e4a" x="187.916901" y="116.313331" style="fill: #f7cce5; stroke: #000000"/>
    </g>
    <g clip-path="url(#p41a96d3666)">
     <use xlink:href="#C0_0_ccbf8b4e4a" x="150.834288" y="151.366587" style="fill: #fbd8eb; stroke: #000000"/>
    </g>
    <g clip-path="url(#p41a96d3666)">
     <use xlink:href="#C0_0_ccbf8b4e4a" x="150.179628" y="178.06184" style="fill: #e286b8; stroke: #000000"/>
    </g>
    <g clip-path="url(#p41a96d3666)">
     <use xlink:href="#C0_0_ccbf8b4e4a" x="163.809806" y="159.114242" style="fill: #e795c3; stroke: #000000"/>
    </g>
    <g clip-path="url(#p41a96d3666)">
     <use xlink:href="#C0_0_ccbf8b4e4a" x="142.300287" y="192.241648" style="fill: #de77ae; stroke: #000000"/>
    </g>
    <g clip-path="url(#p41a96d3666)">
     <use xlink:href="#C0_0_ccbf8b4e4a" x="187.324395" y="136.079094" style="fill: #e590bf; stroke: #000000"/>
    </g>
    <g clip-path="url(#p41a96d3666)">
     <use xlink:href="#C0_0_ccbf8b4e4a" x="205.803616" y="83.036334" style="fill: #f9f0f5; stroke: #000000"/>
    </g>
    <g clip-path="url(#p41a96d3666)">
     <use xlink:href="#C0_0_ccbf8b4e4a" x="114.317085" y="203.756491" style="fill: #eeadd4; stroke: #000000"/>
    </g>
    <g clip-path="url(#p41a96d3666)">
     <use xlink:href="#C0_0_ccbf8b4e4a" x="219.619514" y="86.758091" style="fill: #f4c1df; stroke: #000000"/>
    </g>
    <g clip-path="url(#p41a96d3666)">
     <use xlink:href="#C0_0_ccbf8b4e4a" x="162.813866" y="129.909821" style="fill: #faedf3; stroke: #000000"/>
    </g>
    <g clip-path="url(#p41a96d3666)">
     <use xlink:href="#C0_0_ccbf8b4e4a" x="153.976905" y="161.257617" style="fill: #efb0d6; stroke: #000000"/>
    </g>
    <g clip-path="url(#p41a96d3666)">
     <use xlink:href="#C0_0_ccbf8b4e4a" x="191.048047" y="101.913968" style="fill: #fbe9f2; stroke: #000000"/>
    </g>
    <g clip-path="url(#p41a96d3666)">
     <use xlink:href="#C0_0_ccbf8b4e4a" x="93.160832" y="218.808709" style="fill: #f5c4e1; stroke: #000000"/>
    </g>
    <g clip-path="url(#p41a96d3666)">
     <use xlink:href="#C0_0_ccbf8b4e4a" x="204.993078" y="88.229539" style="fill: #fbe7f2; stroke: #000000"/>
    </g>
    <g clip-path="url(#p41a96d3666)">
     <use xlink:href="#C0_0_ccbf8b4e4a" x="148.842182" y="182.913937" style="fill: #df7cb1; stroke: #000000"/>
    </g>
    <g clip-path="url(#p41a96d3666)">
     <use xlink:href="#C0_0_ccbf8b4e4a" x="207.577583" y="126.009153" style="fill: #db6ca8; stroke: #000000"/>
    </g>
    <g clip-path="url(#p41a96d3666)">
     <use xlink:href="#C0_0_ccbf8b4e4a" x="125.605257" y="192.241648" style="fill: #eeadd4; stroke: #000000"/>
    </g>
    <g clip-path="url(#p41a96d3666)">
     <use xlink:href="#C0_0_ccbf8b4e4a" x="155.17716" y="144.672948" style="fill: #fde0ef; stroke: #000000"/>
    </g>
    <g clip-path="url(#p41a96d3666)">
     <use xlink:href="#C0_0_ccbf8b4e4a" x="138.22751" y="181.242934" style="fill: #eba3cd; stroke: #000000"/>
    </g>
    <g clip-path="url(#p41a96d3666)">
     <use xlink:href="#C0_0_ccbf8b4e4a" x="174.353017" y="126.009153" style="fill: #fbd9ec; stroke: #000000"/>
    </g>
    <g clip-path="url(#p41a96d3666)">
     <use xlink:href="#C0_0_ccbf8b4e4a" x="204.375829" y="131.083444" style="fill: #da69a6; stroke: #000000"/>
    </g>
    <g clip-path="url(#p41a96d3666)">
     <use xlink:href="#C0_0_ccbf8b4e4a" x="165.265076" y="168.311037" style="fill: #dd73ac; stroke: #000000"/>
    </g>
    <g clip-path="url(#p41a96d3666)">
     <use xlink:href="#C0_0_ccbf8b4e4a" x="150.834288" y="196.530427" style="fill: #d24c97; stroke: #000000"/>
    </g>
    <g clip-path="url(#p41a96d3666)">
     <use xlink:href="#C0_0_ccbf8b4e4a" x="216.208193" y="100.616792" style="fill: #ea9fca; stroke: #000000"/>
    </g>
    <g clip-path="url(#p41a96d3666)">
     <use xlink:href="#C0_0_ccbf8b4e4a" x="226.037708" y="87.000302" style="fill: #eeabd2; stroke: #000000"/>
    </g>
    <g clip-path="url(#p41a96d3666)">
     <use xlink:href="#C0_0_ccbf8b4e4a" x="202.473686" y="94.315903" style="fill: #fde1ef; stroke: #000000"/>
    </g>
    <g clip-path="url(#p41a96d3666)">
     <use xlink:href="#C0_0_ccbf8b4e4a" x="162.307835" y="106.743408" style="fill: #a1d26a; stroke: #000000"/>
    </g>
    <g clip-path="url(#p41a96d3666)">
     <use xlink:href="#C0_0_ccbf8b4e4a" x="160.227163" y="150.478457" style="fill: #f3bdde; stroke: #000000"/>
    </g>
    <g clip-path="url(#p41a96d3666)">
     <use xlink:href="#C0_0_ccbf8b4e4a" x="162.307835" y="153.192346" style="fill: #eeadd4; stroke: #000000"/>
    </g>
    <g clip-path="url(#p41a96d3666)">
     <use xlink:href="#C0_0_ccbf8b4e4a" x="128.834634" y="215.40806" style="fill: #d5579d; stroke: #000000"/>
    </g>
    <g clip-path="url(#p41a96d3666)">
     <use xlink:href="#C0_0_ccbf8b4e4a" x="129.86341" y="176.545109" style="fill: #f8cee6; stroke: #000000"/>
    </g>
    <g clip-path="url(#p41a96d3666)">
     <use xlink:href="#C0_0_ccbf8b4e4a" x="122.136454" y="170.905839" style="fill: #f9f1f5; stroke: #000000"/>
    </g>
    <g clip-path="url(#p41a96d3666)">
     <use xlink:href="#C0_0_ccbf8b4e4a" x="164.299941" y="160.174279" style="fill: #e590bf; stroke: #000000"/>
    </g>
    <g clip-path="url(#p41a96d3666)">
     <use xlink:href="#C0_0_ccbf8b4e4a" x="194.497179" y="101.261113" style="fill: #fce4f0; stroke: #000000"/>
    </g>
    <g clip-path="url(#p41a96d3666)">
     <use xlink:href="#C0_0_ccbf8b4e4a" x="140.713444" y="157.0602" style="fill: #fce5f1; stroke: #000000"/>
    </g>
    <g clip-path="url(#p41a96d3666)">
     <use xlink:href="#C0_0_ccbf8b4e4a" x="225.907144" y="72.397402" style="fill: #fbd8eb; stroke: #000000"/>
    </g>
    <g clip-path="url(#p41a96d3666)">
     <use xlink:href="#C0_0_ccbf8b4e4a" x="175.133158" y="99.980785" style="fill: #d0ecad; stroke: #000000"/>
    </g>
    <g clip-path="url(#p41a96d3666)">
     <use xlink:href="#C0_0_ccbf8b4e4a" x="218.865755" y="63.051017" style="fill: #f1f6e8; stroke: #000000"/>
    </g>
    <g clip-path="url(#p41a96d3666)">
     <use xlink:href="#C0_0_ccbf8b4e4a" x="207.962832" y="53.569033" style="fill: #75b43b; stroke: #000000"/>
    </g>
    <g clip-path="url(#p41a96d3666)">
     <use xlink:href="#C0_0_ccbf8b4e4a" x="247.512903" y="48.314255" style="fill: #fcdded; stroke: #000000"/>
    </g>
    <g clip-path="url(#p41a96d3666)">
     <use xlink:href="#C0_0_ccbf8b4e4a" x="260.772083" y="43.365334" style="fill: #f4c1df; stroke: #000000"/>
    </g>
    <g clip-path="url(#p41a96d3666)">
     <use xlink:href="#C0_0_ccbf8b4e4a" x="256.211429" y="42.373553" style="fill: #f9d1e8; stroke: #000000"/>
    </g>
    <g clip-path="url(#p41a96d3666)">
     <use xlink:href="#C0_0_ccbf8b4e4a" x="181.624568" y="144.672948" style="fill: #e388ba; stroke: #000000"/>
    </g>
    <g clip-path="url(#p41a96d3666)">
     <use xlink:href="#C0_0_ccbf8b4e4a" x="97.418985" y="240.586583" style="fill: #dd73ac; stroke: #000000"/>
    </g>
    <g clip-path="url(#p41a96d3666)">
     <use xlink:href="#C0_0_ccbf8b4e4a" x="154.58088" y="112.503635" style="fill: #8cc551; stroke: #000000"/>
    </g>
    <g clip-path="url(#p41a96d3666)">
     <use xlink:href="#C0_0_ccbf8b4e4a" x="147.465394" y="148.748811" style="fill: #fbe7f2; stroke: #000000"/>
    </g>
    <g clip-path="url(#p41a96d3666)">
     <use xlink:href="#C0_0_ccbf8b4e4a" x="139.899381" y="155.088343" style="fill: #faebf3; stroke: #000000"/>
    </g>
    <g clip-path="url(#p41a96d3666)">
     <use xlink:href="#C0_0_ccbf8b4e4a" x="123.321515" y="164.658266" style="fill: #f3f6ed; stroke: #000000"/>
    </g>
    <g clip-path="url(#p41a96d3666)">
     <use xlink:href="#C0_0_ccbf8b4e4a" x="114.317085" y="198.823392" style="fill: #f3bdde; stroke: #000000"/>
    </g>
    <g clip-path="url(#p41a96d3666)">
     <use xlink:href="#C0_0_ccbf8b4e4a" x="66.966665" y="222.461481" style="fill: #f0f6e7; stroke: #000000"/>
    </g>
    <g clip-path="url(#p41a96d3666)">
     <use xlink:href="#C0_0_ccbf8b4e4a" x="62.893888" y="222.461481" style="fill: #e7f5d3; stroke: #000000"/>
    </g>
    <g clip-path="url(#p41a96d3666)">
     <use xlink:href="#C0_0_ccbf8b4e4a" x="112.876743" y="196.530427" style="fill: #f6c9e3; stroke: #000000"/>
    </g>
    <g clip-path="url(#p41a96d3666)">
     <use xlink:href="#C0_0_ccbf8b4e4a" x="106.626485" y="209.238787" style="fill: #f1b7da; stroke: #000000"/>
    </g>
    <g clip-path="url(#p41a96d3666)">
     <use xlink:href="#C0_0_ccbf8b4e4a" x="173.958015" y="106.382309" style="fill: #e9f5d8; stroke: #000000"/>
    </g>
    <g clip-path="url(#p41a96d3666)">
     <use xlink:href="#C0_0_ccbf8b4e4a" x="209.09991" y="97.817246" style="fill: #f4c1df; stroke: #000000"/>
    </g>
    <g clip-path="url(#p41a96d3666)">
     <use xlink:href="#C0_0_ccbf8b4e4a" x="191.866857" y="119.027219" style="fill: #f2b8db; stroke: #000000"/>
    </g>
    <g clip-path="url(#p41a96d3666)">
     <use xlink:href="#C0_0_ccbf8b4e4a" x="173.559652" y="128.763493" style="fill: #fad4e9; stroke: #000000"/>
    </g>
    <g clip-path="url(#p41a96d3666)">
     <use xlink:href="#C0_0_ccbf8b4e4a" x="192.671588" y="109.731587" style="fill: #f9d1e8; stroke: #000000"/>
    </g>
    <g clip-path="url(#p41a96d3666)">
     <use xlink:href="#C0_0_ccbf8b4e4a" x="183.924342" y="111.296476" style="fill: #fce5f1; stroke: #000000"/>
    </g>
    <g clip-path="url(#p41a96d3666)">
     <use xlink:href="#C0_0_ccbf8b4e4a" x="221.236257" y="82.368741" style="fill: #f6c9e3; stroke: #000000"/>
    </g>
    <g clip-path="url(#p41a96d3666)">
     <use xlink:href="#C0_0_ccbf8b4e4a" x="197.709501" y="106.382309" style="fill: #f7cbe4; stroke: #000000"/>
    </g>
    <g clip-path="url(#p41a96d3666)">
     <use xlink:href="#C0_0_ccbf8b4e4a" x="177.398475" y="131.083444" style="fill: #f4c1df; stroke: #000000"/>
    </g>
    <g clip-path="url(#p41a96d3666)">
     <use xlink:href="#C0_0_ccbf8b4e4a" x="159.151084" y="142.379983" style="fill: #fbd9ec; stroke: #000000"/>
    </g>
    <g clip-path="url(#p41a96d3666)">
     <use xlink:href="#C0_0_ccbf8b4e4a" x="173.559652" y="125.476285" style="fill: #fddeee; stroke: #000000"/>
    </g>
    <g clip-path="url(#p41a96d3666)">
     <use xlink:href="#C0_0_ccbf8b4e4a" x="199.352035" y="104.269563" style="fill: #f7cce5; stroke: #000000"/>
    </g>
    <g clip-path="url(#p41a96d3666)">
     <use xlink:href="#C0_0_ccbf8b4e4a" x="172.343806" y="136.079094" style="fill: #f5c2e0; stroke: #000000"/>
    </g>
    <g clip-path="url(#p41a96d3666)">
     <use xlink:href="#C0_0_ccbf8b4e4a" x="165.265076" y="159.114242" style="fill: #e590bf; stroke: #000000"/>
    </g>
    <g clip-path="url(#p41a96d3666)">
     <use xlink:href="#C0_0_ccbf8b4e4a" x="125.605257" y="181.242934" style="fill: #f8cee6; stroke: #000000"/>
    </g>
    <g clip-path="url(#p41a96d3666)">
     <use xlink:href="#C0_0_ccbf8b4e4a" x="158.049682" y="143.896714" style="fill: #fbd8eb; stroke: #000000"/>
    </g>
    <g clip-path="url(#p41a96d3666)">
     <use xlink:href="#C0_0_ccbf8b4e4a" x="103.157682" y="194.339406" style="fill: #faeaf2; stroke: #000000"/>
    </g>
    <g clip-path="url(#p41a96d3666)">
     <use xlink:href="#C0_0_ccbf8b4e4a" x="97.418985" y="201.228252" style="fill: #fbe8f2; stroke: #000000"/>
    </g>
    <g clip-path="url(#p41a96d3666)">
     <use xlink:href="#C0_0_ccbf8b4e4a" x="181.624568" y="121.408835" style="fill: #f9d1e8; stroke: #000000"/>
    </g>
    <g clip-path="url(#p41a96d3666)">
     <use xlink:href="#C0_0_ccbf8b4e4a" x="111.390669" y="206.421457" style="fill: #efb0d6; stroke: #000000"/>
    </g>
    <g clip-path="url(#p41a96d3666)">
     <use xlink:href="#C0_0_ccbf8b4e4a" x="120.920609" y="176.545109" style="fill: #fbe8f2; stroke: #000000"/>
    </g>
    <g clip-path="url(#p41a96d3666)">
     <use xlink:href="#C0_0_ccbf8b4e4a" x="95.338313" y="222.461481" style="fill: #f0b2d7; stroke: #000000"/>
    </g>
    <g clip-path="url(#p41a96d3666)">
     <use xlink:href="#C0_0_ccbf8b4e4a" x="204.993078" y="93.755785" style="fill: #fbd9ec; stroke: #000000"/>
    </g>
    <g clip-path="url(#p41a96d3666)">
     <use xlink:href="#C0_0_ccbf8b4e4a" x="201.822064" y="84.630141" style="fill: #f7f7f7; stroke: #000000"/>
    </g>
    <g clip-path="url(#p41a96d3666)">
     <use xlink:href="#C0_0_ccbf8b4e4a" x="209.472879" y="97.216143" style="fill: #f4c1df; stroke: #000000"/>
    </g>
    <g clip-path="url(#p41a96d3666)">
     <use xlink:href="#C0_0_ccbf8b4e4a" x="165.740282" y="164.658266" style="fill: #e07eb3; stroke: #000000"/>
    </g>
    <g clip-path="url(#p41a96d3666)">
     <use xlink:href="#C0_0_ccbf8b4e4a" x="122.136454" y="215.40806" style="fill: #dc70aa; stroke: #000000"/>
    </g>
    <g clip-path="url(#p41a96d3666)">
     <use xlink:href="#C0_0_ccbf8b4e4a" x="200.038709" y="136.740713" style="fill: #d861a2; stroke: #000000"/>
    </g>
    <g clip-path="url(#p41a96d3666)">
     <use xlink:href="#C0_0_ccbf8b4e4a" x="187.916901" y="110.900572" style="fill: #fcdded; stroke: #000000"/>
    </g>
    <g clip-path="url(#p41a96d3666)">
     <use xlink:href="#C0_0_ccbf8b4e4a" x="134.693197" y="179.626729" style="fill: #f1b7da; stroke: #000000"/>
    </g>
    <g clip-path="url(#p41a96d3666)">
     <use xlink:href="#C0_0_ccbf8b4e4a" x="123.321515" y="198.823392" style="fill: #ea9fca; stroke: #000000"/>
    </g>
    <g clip-path="url(#p41a96d3666)">
     <use xlink:href="#C0_0_ccbf8b4e4a" x="139.07091" y="196.530427" style="fill: #dd73ac; stroke: #000000"/>
    </g>
    <g clip-path="url(#p41a96d3666)">
     <use xlink:href="#C0_0_ccbf8b4e4a" x="143.835094" y="194.339406" style="fill: #da69a6; stroke: #000000"/>
    </g>
    <g clip-path="url(#p41a96d3666)">
     <use xlink:href="#C0_0_ccbf8b4e4a" x="165.740282" y="161.257617" style="fill: #e388ba; stroke: #000000"/>
    </g>
    <g clip-path="url(#p41a96d3666)">
     <use xlink:href="#C0_0_ccbf8b4e4a" x="145.321169" y="194.339406" style="fill: #d965a4; stroke: #000000"/>
    </g>
    <g clip-path="url(#p41a96d3666)">
     <use xlink:href="#C0_0_ccbf8b4e4a" x="138.22751" y="198.823392" style="fill: #db6ca8; stroke: #000000"/>
    </g>
    <g clip-path="url(#p41a96d3666)">
     <use xlink:href="#C0_0_ccbf8b4e4a" x="152.745059" y="115.010439" style="fill: #91c857; stroke: #000000"/>
    </g>
    <g clip-path="url(#p41a96d3666)">
     <use xlink:href="#C0_0_ccbf8b4e4a" x="130.87006" y="152.271013" style="fill: #eaf5d9; stroke: #000000"/>
    </g>
    <g clip-path="url(#p41a96d3666)">
     <use xlink:href="#C0_0_ccbf8b4e4a" x="114.317085" y="102.909757" style="fill: #276419; stroke: #000000"/>
    </g>
    <g clip-path="url(#p41a96d3666)">
     <use xlink:href="#C0_0_ccbf8b4e4a" x="157.489107" y="99.665832" style="fill: #3a7b1d; stroke: #000000"/>
    </g>
    <g clip-path="url(#p41a96d3666)">
     <use xlink:href="#C0_0_ccbf8b4e4a" x="233.605668" y="50.930016" style="fill: #f7f7f6; stroke: #000000"/>
    </g>
    <g clip-path="url(#p41a96d3666)">
     <use xlink:href="#C0_0_ccbf8b4e4a" x="208.534823" y="16.18432" style="fill: #276419; stroke: #000000"/>
    </g>
    <g clip-path="url(#p41a96d3666)">
     <use xlink:href="#C0_0_ccbf8b4e4a" x="163.809806" y="109.348007" style="fill: #c2e596; stroke: #000000"/>
    </g>
    <g clip-path="url(#p41a96d3666)">
     <use xlink:href="#C0_0_ccbf8b4e4a" x="186.42133" y="71.858709" style="fill: #4e9322; stroke: #000000"/>
    </g>
    <g clip-path="url(#p41a96d3666)">
     <use xlink:href="#C0_0_ccbf8b4e4a" x="243.018706" y="32.93086" style="fill: #e8f5d5; stroke: #000000"/>
    </g>
    <g clip-path="url(#p41a96d3666)">
     <use xlink:href="#C0_0_ccbf8b4e4a" x="192.936787" y="47.002695" style="fill: #276419; stroke: #000000"/>
    </g>
    <g clip-path="url(#p41a96d3666)">
     <use xlink:href="#C0_0_ccbf8b4e4a" x="208.154273" y="57.947511" style="fill: #9ccf64; stroke: #000000"/>
    </g>
    <g clip-path="url(#p41a96d3666)">
     <use xlink:href="#C0_0_ccbf8b4e4a" x="209.472879" y="42.966224" style="fill: #2d6b1a; stroke: #000000"/>
    </g>
    <g clip-path="url(#p41a96d3666)">
     <use xlink:href="#C0_0_ccbf8b4e4a" x="220.508289" y="60.433241" style="fill: #eff6e5; stroke: #000000"/>
    </g>
    <g clip-path="url(#p41a96d3666)">
     <use xlink:href="#C0_0_ccbf8b4e4a" x="216.047066" y="52.835176" style="fill: #b7e085; stroke: #000000"/>
    </g>
    <g clip-path="url(#p41a96d3666)">
     <use xlink:href="#C0_0_ccbf8b4e4a" x="206.004077" y="81.71007" style="fill: #f8f3f6; stroke: #000000"/>
    </g>
    <g clip-path="url(#p41a96d3666)">
     <use xlink:href="#C0_0_ccbf8b4e4a" x="245.233282" y="22.848584" style="fill: #bde38d; stroke: #000000"/>
    </g>
    <g clip-path="url(#p41a96d3666)">
     <use xlink:href="#C0_0_ccbf8b4e4a" x="217.63391" y="48.093223" style="fill: #9ed067; stroke: #000000"/>
    </g>
    <g clip-path="url(#p41a96d3666)">
     <use xlink:href="#C0_0_ccbf8b4e4a" x="184.243848" y="99.980785" style="fill: #f2f6ec; stroke: #000000"/>
    </g>
    <g clip-path="url(#p41a96d3666)">
     <use xlink:href="#C0_0_ccbf8b4e4a" x="227.576721" y="55.838532" style="fill: #f5f7f2; stroke: #000000"/>
    </g>
    <g clip-path="url(#p41a96d3666)">
     <use xlink:href="#C0_0_ccbf8b4e4a" x="193.462719" y="79.995467" style="fill: #cdeaa7; stroke: #000000"/>
    </g>
   </g>
   <g id="line2d_47">
    <path d="M 7.525901 289 
L 282.920268 -1 
" clip-path="url(#p41a96d3666)" style="fill: none; stroke-dasharray: 3.7,1.6; stroke-dashoffset: 0; stroke: #000000"/>
   </g>
   <g id="patch_3">
    <path d="M 34.52224 260.571901 
L 34.52224 8.405193 
" style="fill: none; stroke: #262626; stroke-width: 1.25; stroke-linejoin: miter; stroke-linecap: square"/>
   </g>
   <g id="patch_4">
    <path d="M 273.98876 260.571901 
L 273.98876 8.405193 
" style="fill: none; stroke: #262626; stroke-width: 1.25; stroke-linejoin: miter; stroke-linecap: square"/>
   </g>
   <g id="patch_5">
    <path d="M 34.52224 260.571901 
L 273.98876 260.571901 
" style="fill: none; stroke: #262626; stroke-width: 1.25; stroke-linejoin: miter; stroke-linecap: square"/>
   </g>
   <g id="patch_6">
    <path d="M 34.52224 8.405193 
L 273.98876 8.405193 
" style="fill: none; stroke: #262626; stroke-width: 1.25; stroke-linejoin: miter; stroke-linecap: square"/>
   </g>
  </g>
 </g>
 <defs>
  <clipPath id="p41a96d3666">
   <rect x="34.52224" y="8.405193" width="239.46652" height="252.166708"/>
  </clipPath>
 </defs>
</svg>
