<?xml version="1.0" encoding="utf-8" standalone="no"?>
<!DOCTYPE svg PUBLIC "-//W3C//DTD SVG 1.1//EN"
  "http://www.w3.org/Graphics/SVG/1.1/DTD/svg11.dtd">
<svg xmlns:xlink="http://www.w3.org/1999/xlink" width="216pt" height="216pt" viewBox="0 0 216 216" xmlns="http://www.w3.org/2000/svg" version="1.1">
 <metadata>
  <rdf:RDF xmlns:dc="http://purl.org/dc/elements/1.1/" xmlns:cc="http://creativecommons.org/ns#" xmlns:rdf="http://www.w3.org/1999/02/22-rdf-syntax-ns#">
   <cc:Work>
    <dc:type rdf:resource="http://purl.org/dc/dcmitype/StillImage"/>
    <dc:date>2023-12-04T09:33:10.983456</dc:date>
    <dc:format>image/svg+xml</dc:format>
    <dc:creator>
     <cc:Agent>
      <dc:title>Matplotlib v3.7.1, https://matplotlib.org/</dc:title>
     </cc:Agent>
    </dc:creator>
   </cc:Work>
  </rdf:RDF>
 </metadata>
 <defs>
  <style type="text/css">*{stroke-linejoin: round; stroke-linecap: butt}</style>
 </defs>
 <g id="figure_1">
  <g id="patch_1">
   <path d="M 0 216 
L 216 216 
L 216 0 
L 0 0 
z
" style="fill: #ffffff"/>
  </g>
  <g id="axes_1">
   <g id="patch_2">
    <path d="M 34.52224 188.571901 
L 201.98876 188.571901 
L 201.98876 8.405193 
L 34.52224 8.405193 
z
" style="fill: #ffffff"/>
   </g>
   <g id="matplotlib.axis_1">
    <g id="xtick_1">
     <g id="line2d_1">
      <defs>
       <path id="m85e9520d17" d="M 0 0 
L 0 6 
" style="stroke: #262626; stroke-width: 1.25"/>
      </defs>
      <g>
       <use xlink:href="#m85e9520d17" x="51.243557" y="188.571901" style="fill: #262626; stroke: #262626; stroke-width: 1.25"/>
      </g>
     </g>
     <g id="text_1">
      <!-- $\mathdefault{10^{1}}$ -->
      <g style="fill: #262626" transform="translate(40.232557 208.881807) scale(0.143 -0.143)">
       <defs>
        <path id="Avenir-Book-31" d="M 2227 0 
L 1766 0 
L 1766 3955 
L 954 3238 
L 666 3584 
L 1818 4531 
L 2227 4531 
L 2227 0 
z
" transform="scale(0.015625)"/>
        <path id="Avenir-Book-30" d="M 1779 4186 
Q 1408 4186 1193 3987 
Q 979 3789 870 3494 
Q 762 3200 733 2867 
Q 704 2534 704 2266 
Q 704 1997 733 1664 
Q 762 1331 870 1036 
Q 979 742 1193 544 
Q 1408 346 1779 346 
Q 2150 346 2364 544 
Q 2579 742 2688 1036 
Q 2797 1331 2825 1664 
Q 2854 1997 2854 2266 
Q 2854 2534 2825 2867 
Q 2797 3200 2688 3494 
Q 2579 3789 2364 3987 
Q 2150 4186 1779 4186 
z
M 1779 4608 
Q 2266 4608 2566 4384 
Q 2867 4160 3033 3814 
Q 3200 3469 3257 3056 
Q 3315 2643 3315 2266 
Q 3315 1888 3257 1475 
Q 3200 1062 3033 716 
Q 2867 371 2566 147 
Q 2266 -77 1779 -77 
Q 1293 -77 992 147 
Q 691 371 524 716 
Q 358 1062 300 1475 
Q 243 1888 243 2266 
Q 243 2643 300 3056 
Q 358 3469 524 3814 
Q 691 4160 992 4384 
Q 1293 4608 1779 4608 
z
" transform="scale(0.015625)"/>
       </defs>
       <use xlink:href="#Avenir-Book-31" transform="translate(0 0.684375)"/>
       <use xlink:href="#Avenir-Book-30" transform="translate(55.599991 0.684375)"/>
       <use xlink:href="#Avenir-Book-31" transform="translate(112.018927 33.442188) scale(0.7)"/>
      </g>
     </g>
    </g>
    <g id="xtick_2">
     <g id="line2d_2">
      <g>
       <use xlink:href="#m85e9520d17" x="126.616159" y="188.571901" style="fill: #262626; stroke: #262626; stroke-width: 1.25"/>
      </g>
     </g>
     <g id="text_2">
      <!-- $\mathdefault{10^{2}}$ -->
      <g style="fill: #262626" transform="translate(115.605159 208.881807) scale(0.143 -0.143)">
       <defs>
        <path id="Avenir-Book-32" d="M 3187 0 
L 307 0 
L 307 531 
L 2112 2368 
Q 2214 2470 2316 2585 
Q 2419 2701 2502 2829 
Q 2586 2957 2637 3097 
Q 2688 3238 2688 3392 
Q 2688 3578 2621 3725 
Q 2554 3872 2432 3974 
Q 2310 4077 2150 4131 
Q 1990 4186 1811 4186 
Q 1466 4186 1222 3994 
Q 979 3802 909 3475 
L 422 3526 
Q 518 4032 886 4320 
Q 1254 4608 1779 4608 
Q 2054 4608 2300 4534 
Q 2547 4461 2736 4313 
Q 2925 4166 3037 3945 
Q 3149 3725 3149 3430 
Q 3149 3168 3069 2950 
Q 2989 2733 2861 2541 
Q 2733 2349 2569 2176 
Q 2406 2003 2234 1837 
L 806 422 
L 3187 422 
L 3187 0 
z
" transform="scale(0.015625)"/>
       </defs>
       <use xlink:href="#Avenir-Book-31" transform="translate(0 0.842187)"/>
       <use xlink:href="#Avenir-Book-30" transform="translate(55.599991 0.842187)"/>
       <use xlink:href="#Avenir-Book-32" transform="translate(112.018927 33.6) scale(0.7)"/>
      </g>
     </g>
    </g>
    <g id="xtick_3">
     <g id="line2d_3">
      <g>
       <use xlink:href="#m85e9520d17" x="201.98876" y="188.571901" style="fill: #262626; stroke: #262626; stroke-width: 1.25"/>
      </g>
     </g>
     <g id="text_3">
      <!-- $\mathdefault{10^{3}}$ -->
      <g style="fill: #262626" transform="translate(190.97776 208.881807) scale(0.143 -0.143)">
       <defs>
        <path id="Avenir-Book-33" d="M 1306 2586 
L 1542 2586 
Q 1741 2586 1923 2630 
Q 2106 2675 2240 2774 
Q 2374 2874 2454 3034 
Q 2534 3194 2534 3418 
Q 2534 3782 2313 3984 
Q 2093 4186 1696 4186 
Q 1408 4186 1190 4058 
Q 973 3930 832 3686 
L 429 3891 
Q 634 4256 950 4432 
Q 1267 4608 1683 4608 
Q 1952 4608 2189 4531 
Q 2426 4454 2605 4304 
Q 2784 4154 2889 3933 
Q 2995 3712 2995 3430 
Q 2995 3245 2934 3078 
Q 2874 2912 2768 2777 
Q 2662 2643 2521 2544 
Q 2381 2445 2227 2394 
L 2246 2381 
Q 2438 2342 2598 2236 
Q 2758 2131 2873 1977 
Q 2989 1824 3053 1632 
Q 3117 1440 3117 1229 
Q 3117 915 3001 672 
Q 2886 429 2688 262 
Q 2490 96 2227 9 
Q 1965 -77 1670 -77 
Q 1171 -77 800 140 
Q 429 358 243 838 
L 730 986 
Q 845 659 1072 502 
Q 1299 346 1709 346 
Q 1901 346 2073 410 
Q 2246 474 2377 592 
Q 2509 710 2582 876 
Q 2656 1043 2656 1242 
Q 2656 1498 2560 1674 
Q 2464 1850 2304 1958 
Q 2144 2067 1936 2115 
Q 1728 2163 1504 2163 
L 1306 2163 
L 1306 2586 
z
" transform="scale(0.015625)"/>
       </defs>
       <use xlink:href="#Avenir-Book-31" transform="translate(0 0.842187)"/>
       <use xlink:href="#Avenir-Book-30" transform="translate(55.599991 0.842187)"/>
       <use xlink:href="#Avenir-Book-33" transform="translate(112.018927 33.6) scale(0.7)"/>
      </g>
     </g>
    </g>
    <g id="xtick_4">
     <g id="line2d_4">
      <defs>
       <path id="m1f23f886b1" d="M 0 0 
L 0 4 
" style="stroke: #262626"/>
      </defs>
      <g>
       <use xlink:href="#m1f23f886b1" x="34.52224" y="188.571901" style="fill: #262626; stroke: #262626"/>
      </g>
     </g>
    </g>
    <g id="xtick_5">
     <g id="line2d_5">
      <g>
       <use xlink:href="#m1f23f886b1" x="39.568194" y="188.571901" style="fill: #262626; stroke: #262626"/>
      </g>
     </g>
    </g>
    <g id="xtick_6">
     <g id="line2d_6">
      <g>
       <use xlink:href="#m1f23f886b1" x="43.939198" y="188.571901" style="fill: #262626; stroke: #262626"/>
      </g>
     </g>
    </g>
    <g id="xtick_7">
     <g id="line2d_7">
      <g>
       <use xlink:href="#m1f23f886b1" x="47.794696" y="188.571901" style="fill: #262626; stroke: #262626"/>
      </g>
     </g>
    </g>
    <g id="xtick_8">
     <g id="line2d_8">
      <g>
       <use xlink:href="#m1f23f886b1" x="73.932971" y="188.571901" style="fill: #262626; stroke: #262626"/>
      </g>
     </g>
    </g>
    <g id="xtick_9">
     <g id="line2d_9">
      <g>
       <use xlink:href="#m1f23f886b1" x="87.205427" y="188.571901" style="fill: #262626; stroke: #262626"/>
      </g>
     </g>
    </g>
    <g id="xtick_10">
     <g id="line2d_10">
      <g>
       <use xlink:href="#m1f23f886b1" x="96.622385" y="188.571901" style="fill: #262626; stroke: #262626"/>
      </g>
     </g>
    </g>
    <g id="xtick_11">
     <g id="line2d_11">
      <g>
       <use xlink:href="#m1f23f886b1" x="103.926745" y="188.571901" style="fill: #262626; stroke: #262626"/>
      </g>
     </g>
    </g>
    <g id="xtick_12">
     <g id="line2d_12">
      <g>
       <use xlink:href="#m1f23f886b1" x="109.894841" y="188.571901" style="fill: #262626; stroke: #262626"/>
      </g>
     </g>
    </g>
    <g id="xtick_13">
     <g id="line2d_13">
      <g>
       <use xlink:href="#m1f23f886b1" x="114.940795" y="188.571901" style="fill: #262626; stroke: #262626"/>
      </g>
     </g>
    </g>
    <g id="xtick_14">
     <g id="line2d_14">
      <g>
       <use xlink:href="#m1f23f886b1" x="119.311799" y="188.571901" style="fill: #262626; stroke: #262626"/>
      </g>
     </g>
    </g>
    <g id="xtick_15">
     <g id="line2d_15">
      <g>
       <use xlink:href="#m1f23f886b1" x="123.167298" y="188.571901" style="fill: #262626; stroke: #262626"/>
      </g>
     </g>
    </g>
    <g id="xtick_16">
     <g id="line2d_16">
      <g>
       <use xlink:href="#m1f23f886b1" x="149.305573" y="188.571901" style="fill: #262626; stroke: #262626"/>
      </g>
     </g>
    </g>
    <g id="xtick_17">
     <g id="line2d_17">
      <g>
       <use xlink:href="#m1f23f886b1" x="162.578029" y="188.571901" style="fill: #262626; stroke: #262626"/>
      </g>
     </g>
    </g>
    <g id="xtick_18">
     <g id="line2d_18">
      <g>
       <use xlink:href="#m1f23f886b1" x="171.994986" y="188.571901" style="fill: #262626; stroke: #262626"/>
      </g>
     </g>
    </g>
    <g id="xtick_19">
     <g id="line2d_19">
      <g>
       <use xlink:href="#m1f23f886b1" x="179.299346" y="188.571901" style="fill: #262626; stroke: #262626"/>
      </g>
     </g>
    </g>
    <g id="xtick_20">
     <g id="line2d_20">
      <g>
       <use xlink:href="#m1f23f886b1" x="185.267443" y="188.571901" style="fill: #262626; stroke: #262626"/>
      </g>
     </g>
    </g>
    <g id="xtick_21">
     <g id="line2d_21">
      <g>
       <use xlink:href="#m1f23f886b1" x="190.313396" y="188.571901" style="fill: #262626; stroke: #262626"/>
      </g>
     </g>
    </g>
    <g id="xtick_22">
     <g id="line2d_22">
      <g>
       <use xlink:href="#m1f23f886b1" x="194.6844" y="188.571901" style="fill: #262626; stroke: #262626"/>
      </g>
     </g>
    </g>
    <g id="xtick_23">
     <g id="line2d_23">
      <g>
       <use xlink:href="#m1f23f886b1" x="198.539899" y="188.571901" style="fill: #262626; stroke: #262626"/>
      </g>
     </g>
    </g>
   </g>
   <g id="matplotlib.axis_2">
    <g id="ytick_1">
     <g id="line2d_24">
      <defs>
       <path id="m93a97e9ce0" d="M 0 0 
L -6 0 
" style="stroke: #262626; stroke-width: 1.25"/>
      </defs>
      <g>
       <use xlink:href="#m93a97e9ce0" x="34.52224" y="170.582486" style="fill: #262626; stroke: #262626; stroke-width: 1.25"/>
      </g>
     </g>
     <g id="text_4">
      <!-- $\mathdefault{10^{1}}$ -->
      <g style="fill: #262626" transform="translate(3.00024 175.987439) scale(0.143 -0.143)">
       <use xlink:href="#Avenir-Book-31" transform="translate(0 0.684375)"/>
       <use xlink:href="#Avenir-Book-30" transform="translate(55.599991 0.684375)"/>
       <use xlink:href="#Avenir-Book-31" transform="translate(112.018927 33.442188) scale(0.7)"/>
      </g>
     </g>
    </g>
    <g id="ytick_2">
     <g id="line2d_25">
      <g>
       <use xlink:href="#m93a97e9ce0" x="34.52224" y="89.493839" style="fill: #262626; stroke: #262626; stroke-width: 1.25"/>
      </g>
     </g>
     <g id="text_5">
      <!-- $\mathdefault{10^{2}}$ -->
      <g style="fill: #262626" transform="translate(3.00024 94.898793) scale(0.143 -0.143)">
       <use xlink:href="#Avenir-Book-31" transform="translate(0 0.842187)"/>
       <use xlink:href="#Avenir-Book-30" transform="translate(55.599991 0.842187)"/>
       <use xlink:href="#Avenir-Book-32" transform="translate(112.018927 33.6) scale(0.7)"/>
      </g>
     </g>
    </g>
    <g id="ytick_3">
     <g id="line2d_26">
      <g>
       <use xlink:href="#m93a97e9ce0" x="34.52224" y="8.405193" style="fill: #262626; stroke: #262626; stroke-width: 1.25"/>
      </g>
     </g>
     <g id="text_6">
      <!-- $\mathdefault{10^{3}}$ -->
      <g style="fill: #262626" transform="translate(3.00024 13.810146) scale(0.143 -0.143)">
       <use xlink:href="#Avenir-Book-31" transform="translate(0 0.842187)"/>
       <use xlink:href="#Avenir-Book-30" transform="translate(55.599991 0.842187)"/>
       <use xlink:href="#Avenir-Book-33" transform="translate(112.018927 33.6) scale(0.7)"/>
      </g>
     </g>
    </g>
    <g id="ytick_4">
     <g id="line2d_27">
      <defs>
       <path id="ma4706fc76d" d="M 0 0 
L -4 0 
" style="stroke: #262626"/>
      </defs>
      <g>
       <use xlink:href="#ma4706fc76d" x="34.52224" y="188.571901" style="fill: #262626; stroke: #262626"/>
      </g>
     </g>
    </g>
    <g id="ytick_5">
     <g id="line2d_28">
      <g>
       <use xlink:href="#ma4706fc76d" x="34.52224" y="183.143276" style="fill: #262626; stroke: #262626"/>
      </g>
     </g>
    </g>
    <g id="ytick_6">
     <g id="line2d_29">
      <g>
       <use xlink:href="#ma4706fc76d" x="34.52224" y="178.440788" style="fill: #262626; stroke: #262626"/>
      </g>
     </g>
    </g>
    <g id="ytick_7">
     <g id="line2d_30">
      <g>
       <use xlink:href="#ma4706fc76d" x="34.52224" y="174.292899" style="fill: #262626; stroke: #262626"/>
      </g>
     </g>
    </g>
    <g id="ytick_8">
     <g id="line2d_31">
      <g>
       <use xlink:href="#ma4706fc76d" x="34.52224" y="146.172371" style="fill: #262626; stroke: #262626"/>
      </g>
     </g>
    </g>
    <g id="ytick_9">
     <g id="line2d_32">
      <g>
       <use xlink:href="#ma4706fc76d" x="34.52224" y="131.893369" style="fill: #262626; stroke: #262626"/>
      </g>
     </g>
    </g>
    <g id="ytick_10">
     <g id="line2d_33">
      <g>
       <use xlink:href="#ma4706fc76d" x="34.52224" y="121.762256" style="fill: #262626; stroke: #262626"/>
      </g>
     </g>
    </g>
    <g id="ytick_11">
     <g id="line2d_34">
      <g>
       <use xlink:href="#ma4706fc76d" x="34.52224" y="113.903954" style="fill: #262626; stroke: #262626"/>
      </g>
     </g>
    </g>
    <g id="ytick_12">
     <g id="line2d_35">
      <g>
       <use xlink:href="#ma4706fc76d" x="34.52224" y="107.483254" style="fill: #262626; stroke: #262626"/>
      </g>
     </g>
    </g>
    <g id="ytick_13">
     <g id="line2d_36">
      <g>
       <use xlink:href="#ma4706fc76d" x="34.52224" y="102.05463" style="fill: #262626; stroke: #262626"/>
      </g>
     </g>
    </g>
    <g id="ytick_14">
     <g id="line2d_37">
      <g>
       <use xlink:href="#ma4706fc76d" x="34.52224" y="97.352141" style="fill: #262626; stroke: #262626"/>
      </g>
     </g>
    </g>
    <g id="ytick_15">
     <g id="line2d_38">
      <g>
       <use xlink:href="#ma4706fc76d" x="34.52224" y="93.204252" style="fill: #262626; stroke: #262626"/>
      </g>
     </g>
    </g>
    <g id="ytick_16">
     <g id="line2d_39">
      <g>
       <use xlink:href="#ma4706fc76d" x="34.52224" y="65.083725" style="fill: #262626; stroke: #262626"/>
      </g>
     </g>
    </g>
    <g id="ytick_17">
     <g id="line2d_40">
      <g>
       <use xlink:href="#ma4706fc76d" x="34.52224" y="50.804723" style="fill: #262626; stroke: #262626"/>
      </g>
     </g>
    </g>
    <g id="ytick_18">
     <g id="line2d_41">
      <g>
       <use xlink:href="#ma4706fc76d" x="34.52224" y="40.67361" style="fill: #262626; stroke: #262626"/>
      </g>
     </g>
    </g>
    <g id="ytick_19">
     <g id="line2d_42">
      <g>
       <use xlink:href="#ma4706fc76d" x="34.52224" y="32.815308" style="fill: #262626; stroke: #262626"/>
      </g>
     </g>
    </g>
    <g id="ytick_20">
     <g id="line2d_43">
      <g>
       <use xlink:href="#ma4706fc76d" x="34.52224" y="26.394608" style="fill: #262626; stroke: #262626"/>
      </g>
     </g>
    </g>
    <g id="ytick_21">
     <g id="line2d_44">
      <g>
       <use xlink:href="#ma4706fc76d" x="34.52224" y="20.965983" style="fill: #262626; stroke: #262626"/>
      </g>
     </g>
    </g>
    <g id="ytick_22">
     <g id="line2d_45">
      <g>
       <use xlink:href="#ma4706fc76d" x="34.52224" y="16.263495" style="fill: #262626; stroke: #262626"/>
      </g>
     </g>
    </g>
    <g id="ytick_23">
     <g id="line2d_46">
      <g>
       <use xlink:href="#ma4706fc76d" x="34.52224" y="12.115606" style="fill: #262626; stroke: #262626"/>
      </g>
     </g>
    </g>
   </g>
   <g id="PathCollection_1">
    <defs>
     <path id="C0_0_ee98df9ca0" d="M 0 3.535534 
C 0.937635 3.535534 1.836992 3.163008 2.5 2.5 
C 3.163008 1.836992 3.535534 0.937635 3.535534 -0 
C 3.535534 -0.937635 3.163008 -1.836992 2.5 -2.5 
C 1.836992 -3.163008 0.937635 -3.535534 0 -3.535534 
C -0.937635 -3.535534 -1.836992 -3.163008 -2.5 -2.5 
C -3.163008 -1.836992 -3.535534 -0.937635 -3.535534 0 
C -3.535534 0.937635 -3.163008 1.836992 -2.5 2.5 
C -1.836992 3.163008 -0.937635 3.535534 0 3.535534 
z
"/>
    </defs>
    <g clip-path="url(#p56cc2dfab1)">
     <use xlink:href="#C0_0_ee98df9ca0" x="124.590735" y="96.389744" style="fill: #fbe8f2; stroke: #000000"/>
    </g>
    <g clip-path="url(#p56cc2dfab1)">
     <use xlink:href="#C0_0_ee98df9ca0" x="90.325302" y="131.459916" style="fill: #f9eef4; stroke: #000000"/>
    </g>
    <g clip-path="url(#p56cc2dfab1)">
     <use xlink:href="#C0_0_ee98df9ca0" x="77.052846" y="153.602849" style="fill: #f9d3e8; stroke: #000000"/>
    </g>
    <g clip-path="url(#p56cc2dfab1)">
     <use xlink:href="#C0_0_ee98df9ca0" x="119.718436" y="134.438971" style="fill: #d75ea1; stroke: #000000"/>
    </g>
    <g clip-path="url(#p56cc2dfab1)">
     <use xlink:href="#C0_0_ee98df9ca0" x="79.901068" y="141.908546" style="fill: #f9f0f5; stroke: #000000"/>
    </g>
    <g clip-path="url(#p56cc2dfab1)">
     <use xlink:href="#C0_0_ee98df9ca0" x="113.014716" y="111.04071" style="fill: #fce3f0; stroke: #000000"/>
    </g>
    <g clip-path="url(#p56cc2dfab1)">
     <use xlink:href="#C0_0_ee98df9ca0" x="62.257608" y="169.905223" style="fill: #f9d1e8; stroke: #000000"/>
    </g>
    <g clip-path="url(#p56cc2dfab1)">
     <use xlink:href="#C0_0_ee98df9ca0" x="122.431673" y="115.876285" style="fill: #eba1cb; stroke: #000000"/>
    </g>
    <g clip-path="url(#p56cc2dfab1)">
     <use xlink:href="#C0_0_ee98df9ca0" x="120.516864" y="96.406094" style="fill: #f7f6f7; stroke: #000000"/>
    </g>
    <g clip-path="url(#p56cc2dfab1)">
     <use xlink:href="#C0_0_ee98df9ca0" x="81.237331" y="140.793303" style="fill: #f9eff4; stroke: #000000"/>
    </g>
    <g clip-path="url(#p56cc2dfab1)">
     <use xlink:href="#C0_0_ee98df9ca0" x="146.753587" y="77.483319" style="fill: #fbd8eb; stroke: #000000"/>
    </g>
    <g clip-path="url(#p56cc2dfab1)">
     <use xlink:href="#C0_0_ee98df9ca0" x="145.674349" y="86.644701" style="fill: #f1b7da; stroke: #000000"/>
    </g>
    <g clip-path="url(#p56cc2dfab1)">
     <use xlink:href="#C0_0_ee98df9ca0" x="141.795984" y="88.654788" style="fill: #f4bfdf; stroke: #000000"/>
    </g>
    <g clip-path="url(#p56cc2dfab1)">
     <use xlink:href="#C0_0_ee98df9ca0" x="140.750083" y="79.214764" style="fill: #fbe8f2; stroke: #000000"/>
    </g>
    <g clip-path="url(#p56cc2dfab1)">
     <use xlink:href="#C0_0_ee98df9ca0" x="141.795984" y="87.969612" style="fill: #f5c2e0; stroke: #000000"/>
    </g>
    <g clip-path="url(#p56cc2dfab1)">
     <use xlink:href="#C0_0_ee98df9ca0" x="115.862938" y="111.673912" style="fill: #f9d3e8; stroke: #000000"/>
    </g>
    <g clip-path="url(#p56cc2dfab1)">
     <use xlink:href="#C0_0_ee98df9ca0" x="115.405113" y="129.999143" style="fill: #e286b8; stroke: #000000"/>
    </g>
    <g clip-path="url(#p56cc2dfab1)">
     <use xlink:href="#C0_0_ee98df9ca0" x="124.937129" y="117.320842" style="fill: #e590bf; stroke: #000000"/>
    </g>
    <g clip-path="url(#p56cc2dfab1)">
     <use xlink:href="#C0_0_ee98df9ca0" x="109.894841" y="138.282216" style="fill: #df7cb1; stroke: #000000"/>
    </g>
    <g clip-path="url(#p56cc2dfab1)">
     <use xlink:href="#C0_0_ee98df9ca0" x="141.381625" y="101.485427" style="fill: #e286b8; stroke: #000000"/>
    </g>
    <g clip-path="url(#p56cc2dfab1)">
     <use xlink:href="#C0_0_ee98df9ca0" x="154.30473" y="63.981603" style="fill: #faeaf2; stroke: #000000"/>
    </g>
    <g clip-path="url(#p56cc2dfab1)">
     <use xlink:href="#C0_0_ee98df9ca0" x="90.325302" y="147.292783" style="fill: #f0b2d7; stroke: #000000"/>
    </g>
    <g clip-path="url(#p56cc2dfab1)">
     <use xlink:href="#C0_0_ee98df9ca0" x="163.966624" y="66.773951" style="fill: #f1b7da; stroke: #000000"/>
    </g>
    <g clip-path="url(#p56cc2dfab1)">
     <use xlink:href="#C0_0_ee98df9ca0" x="124.240637" y="97.428776" style="fill: #fbe6f1; stroke: #000000"/>
    </g>
    <g clip-path="url(#p56cc2dfab1)">
     <use xlink:href="#C0_0_ee98df9ca0" x="118.060669" y="118.138485" style="fill: #eeadd4; stroke: #000000"/>
    </g>
    <g clip-path="url(#p56cc2dfab1)">
     <use xlink:href="#C0_0_ee98df9ca0" x="143.985693" y="77.750914" style="fill: #fce3f0; stroke: #000000"/>
    </g>
    <g clip-path="url(#p56cc2dfab1)">
     <use xlink:href="#C0_0_ee98df9ca0" x="75.530064" y="155.244542" style="fill: #f9d3e8; stroke: #000000"/>
    </g>
    <g clip-path="url(#p56cc2dfab1)">
     <use xlink:href="#C0_0_ee98df9ca0" x="153.737895" y="67.836969" style="fill: #fde1ef; stroke: #000000"/>
    </g>
    <g clip-path="url(#p56cc2dfab1)">
     <use xlink:href="#C0_0_ee98df9ca0" x="114.469795" y="133.160291" style="fill: #df7cb1; stroke: #000000"/>
    </g>
    <g clip-path="url(#p56cc2dfab1)">
     <use xlink:href="#C0_0_ee98df9ca0" x="155.545321" y="94.418749" style="fill: #d861a2; stroke: #000000"/>
    </g>
    <g clip-path="url(#p56cc2dfab1)">
     <use xlink:href="#C0_0_ee98df9ca0" x="98.219478" y="138.404708" style="fill: #f0b2d7; stroke: #000000"/>
    </g>
    <g clip-path="url(#p56cc2dfab1)">
     <use xlink:href="#C0_0_ee98df9ca0" x="118.900046" y="107.089396" style="fill: #fbd9ec; stroke: #000000"/>
    </g>
    <g clip-path="url(#p56cc2dfab1)">
     <use xlink:href="#C0_0_ee98df9ca0" x="107.046619" y="132.142457" style="fill: #eba3cd; stroke: #000000"/>
    </g>
    <g clip-path="url(#p56cc2dfab1)">
     <use xlink:href="#C0_0_ee98df9ca0" x="132.31033" y="94.581477" style="fill: #f9d1e8; stroke: #000000"/>
    </g>
    <g clip-path="url(#p56cc2dfab1)">
     <use xlink:href="#C0_0_ee98df9ca0" x="153.306233" y="98.118855" style="fill: #d75ea1; stroke: #000000"/>
    </g>
    <g clip-path="url(#p56cc2dfab1)">
     <use xlink:href="#C0_0_ee98df9ca0" x="125.954845" y="122.752131" style="fill: #dd73ac; stroke: #000000"/>
    </g>
    <g clip-path="url(#p56cc2dfab1)">
     <use xlink:href="#C0_0_ee98df9ca0" x="115.862938" y="141.717009" style="fill: #d34f99; stroke: #000000"/>
    </g>
    <g clip-path="url(#p56cc2dfab1)">
     <use xlink:href="#C0_0_ee98df9ca0" x="161.58098" y="76.69057" style="fill: #e795c3; stroke: #000000"/>
    </g>
    <g clip-path="url(#p56cc2dfab1)">
     <use xlink:href="#C0_0_ee98df9ca0" x="168.455071" y="66.910182" style="fill: #ea9fca; stroke: #000000"/>
    </g>
    <g clip-path="url(#p56cc2dfab1)">
     <use xlink:href="#C0_0_ee98df9ca0" x="151.976004" y="72.23202" style="fill: #fad6ea; stroke: #000000"/>
    </g>
    <g clip-path="url(#p56cc2dfab1)">
     <use xlink:href="#C0_0_ee98df9ca0" x="123.886753" y="81.153607" style="fill: #bde38d; stroke: #000000"/>
    </g>
    <g clip-path="url(#p56cc2dfab1)">
     <use xlink:href="#C0_0_ee98df9ca0" x="122.431673" y="111.098656" style="fill: #f2b8db; stroke: #000000"/>
    </g>
    <g clip-path="url(#p56cc2dfab1)">
     <use xlink:href="#C0_0_ee98df9ca0" x="123.886753" y="112.83361" style="fill: #eda8d1; stroke: #000000"/>
    </g>
    <g clip-path="url(#p56cc2dfab1)">
     <use xlink:href="#C0_0_ee98df9ca0" x="100.477884" y="153.685051" style="fill: #d861a2; stroke: #000000"/>
    </g>
    <g clip-path="url(#p56cc2dfab1)">
     <use xlink:href="#C0_0_ee98df9ca0" x="101.197339" y="128.713564" style="fill: #f8cee6; stroke: #000000"/>
    </g>
    <g clip-path="url(#p56cc2dfab1)">
     <use xlink:href="#C0_0_ee98df9ca0" x="95.793634" y="124.731916" style="fill: #f9f0f5; stroke: #000000"/>
    </g>
    <g clip-path="url(#p56cc2dfab1)">
     <use xlink:href="#C0_0_ee98df9ca0" x="125.279895" y="117.631473" style="fill: #e48bbc; stroke: #000000"/>
    </g>
    <g clip-path="url(#p56cc2dfab1)">
     <use xlink:href="#C0_0_ee98df9ca0" x="146.39778" y="77.212562" style="fill: #fcdbed; stroke: #000000"/>
    </g>
    <g clip-path="url(#p56cc2dfab1)">
     <use xlink:href="#C0_0_ee98df9ca0" x="108.785111" y="115.655176" style="fill: #fde2f0; stroke: #000000"/>
    </g>
    <g clip-path="url(#p56cc2dfab1)">
     <use xlink:href="#C0_0_ee98df9ca0" x="168.363763" y="55.863311" style="fill: #f8d0e7; stroke: #000000"/>
    </g>
    <g clip-path="url(#p56cc2dfab1)">
     <use xlink:href="#C0_0_ee98df9ca0" x="132.855907" y="76.320925" style="fill: #e6f5d0; stroke: #000000"/>
    </g>
    <g clip-path="url(#p56cc2dfab1)">
     <use xlink:href="#C0_0_ee98df9ca0" x="163.439497" y="48.626968" style="fill: #f4f7f0; stroke: #000000"/>
    </g>
    <g clip-path="url(#p56cc2dfab1)">
     <use xlink:href="#C0_0_ee98df9ca0" x="155.814738" y="40.992214" style="fill: #79b73d; stroke: #000000"/>
    </g>
    <g clip-path="url(#p56cc2dfab1)">
     <use xlink:href="#C0_0_ee98df9ca0" x="183.473355" y="36.645966" style="fill: #fddeee; stroke: #000000"/>
    </g>
    <g clip-path="url(#p56cc2dfab1)">
     <use xlink:href="#C0_0_ee98df9ca0" x="192.745919" y="32.401185" style="fill: #f5c4e1; stroke: #000000"/>
    </g>
    <g clip-path="url(#p56cc2dfab1)">
     <use xlink:href="#C0_0_ee98df9ca0" x="189.556509" y="31.579614" style="fill: #fad6ea; stroke: #000000"/>
    </g>
    <g clip-path="url(#p56cc2dfab1)">
     <use xlink:href="#C0_0_ee98df9ca0" x="137.395556" y="107.356526" style="fill: #e181b5; stroke: #000000"/>
    </g>
    <g clip-path="url(#p56cc2dfab1)">
     <use xlink:href="#C0_0_ee98df9ca0" x="78.507925" y="169.442646" style="fill: #e286b8; stroke: #000000"/>
    </g>
    <g clip-path="url(#p56cc2dfab1)">
     <use xlink:href="#C0_0_ee98df9ca0" x="118.483048" y="85.323876" style="fill: #acd977; stroke: #000000"/>
    </g>
    <g clip-path="url(#p56cc2dfab1)">
     <use xlink:href="#C0_0_ee98df9ca0" x="113.506964" y="110.171689" style="fill: #fce4f0; stroke: #000000"/>
    </g>
    <g clip-path="url(#p56cc2dfab1)">
     <use xlink:href="#C0_0_ee98df9ca0" x="108.215812" y="114.061594" style="fill: #fbe8f2; stroke: #000000"/>
    </g>
    <g clip-path="url(#p56cc2dfab1)">
     <use xlink:href="#C0_0_ee98df9ca0" x="96.622385" y="120.699839" style="fill: #f5f7f2; stroke: #000000"/>
    </g>
    <g clip-path="url(#p56cc2dfab1)">
     <use xlink:href="#C0_0_ee98df9ca0" x="90.325302" y="142.537879" style="fill: #f5c6e2; stroke: #000000"/>
    </g>
    <g clip-path="url(#p56cc2dfab1)">
     <use xlink:href="#C0_0_ee98df9ca0" x="57.211654" y="159.641586" style="fill: #ebf6dc; stroke: #000000"/>
    </g>
    <g clip-path="url(#p56cc2dfab1)">
     <use xlink:href="#C0_0_ee98df9ca0" x="54.363432" y="159.763117" style="fill: #ddf1c1; stroke: #000000"/>
    </g>
    <g clip-path="url(#p56cc2dfab1)">
     <use xlink:href="#C0_0_ee98df9ca0" x="89.318025" y="142.024616" style="fill: #f7cbe4; stroke: #000000"/>
    </g>
    <g clip-path="url(#p56cc2dfab1)">
     <use xlink:href="#C0_0_ee98df9ca0" x="84.947021" y="150.293476" style="fill: #f3bdde; stroke: #000000"/>
    </g>
    <g clip-path="url(#p56cc2dfab1)">
     <use xlink:href="#C0_0_ee98df9ca0" x="132.034093" y="80.933587" style="fill: #f0f6e7; stroke: #000000"/>
    </g>
    <g clip-path="url(#p56cc2dfab1)">
     <use xlink:href="#C0_0_ee98df9ca0" x="156.609932" y="74.735177" style="fill: #f1b7da; stroke: #000000"/>
    </g>
    <g clip-path="url(#p56cc2dfab1)">
     <use xlink:href="#C0_0_ee98df9ca0" x="144.558313" y="89.849051" style="fill: #eeadd4; stroke: #000000"/>
    </g>
    <g clip-path="url(#p56cc2dfab1)">
     <use xlink:href="#C0_0_ee98df9ca0" x="131.755504" y="96.296068" style="fill: #f7cce5; stroke: #000000"/>
    </g>
    <g clip-path="url(#p56cc2dfab1)">
     <use xlink:href="#C0_0_ee98df9ca0" x="145.121087" y="83.23242" style="fill: #f5c6e2; stroke: #000000"/>
    </g>
    <g clip-path="url(#p56cc2dfab1)">
     <use xlink:href="#C0_0_ee98df9ca0" x="139.003861" y="84.450868" style="fill: #fddeee; stroke: #000000"/>
    </g>
    <g clip-path="url(#p56cc2dfab1)">
     <use xlink:href="#C0_0_ee98df9ca0" x="165.097264" y="63.512253" style="fill: #f4bfdf; stroke: #000000"/>
    </g>
    <g clip-path="url(#p56cc2dfab1)">
     <use xlink:href="#C0_0_ee98df9ca0" x="148.644259" y="81.031831" style="fill: #f4c1df; stroke: #000000"/>
    </g>
    <g clip-path="url(#p56cc2dfab1)">
     <use xlink:href="#C0_0_ee98df9ca0" x="134.440115" y="98.178347" style="fill: #f2b8db; stroke: #000000"/>
    </g>
    <g clip-path="url(#p56cc2dfab1)">
     <use xlink:href="#C0_0_ee98df9ca0" x="121.679137" y="105.517643" style="fill: #f9d3e8; stroke: #000000"/>
    </g>
    <g clip-path="url(#p56cc2dfab1)">
     <use xlink:href="#C0_0_ee98df9ca0" x="131.755504" y="94.128311" style="fill: #fad4e9; stroke: #000000"/>
    </g>
    <g clip-path="url(#p56cc2dfab1)">
     <use xlink:href="#C0_0_ee98df9ca0" x="149.792935" y="79.395838" style="fill: #f4c1df; stroke: #000000"/>
    </g>
    <g clip-path="url(#p56cc2dfab1)">
     <use xlink:href="#C0_0_ee98df9ca0" x="130.905225" y="101.465574" style="fill: #f2badc; stroke: #000000"/>
    </g>
    <g clip-path="url(#p56cc2dfab1)">
     <use xlink:href="#C0_0_ee98df9ca0" x="125.954845" y="117.109381" style="fill: #e48bbc; stroke: #000000"/>
    </g>
    <g clip-path="url(#p56cc2dfab1)">
     <use xlink:href="#C0_0_ee98df9ca0" x="98.219478" y="131.362031" style="fill: #f8d0e7; stroke: #000000"/>
    </g>
    <g clip-path="url(#p56cc2dfab1)">
     <use xlink:href="#C0_0_ee98df9ca0" x="120.908891" y="106.600118" style="fill: #f9d1e8; stroke: #000000"/>
    </g>
    <g clip-path="url(#p56cc2dfab1)">
     <use xlink:href="#C0_0_ee98df9ca0" x="82.521178" y="140.544236" style="fill: #faecf3; stroke: #000000"/>
    </g>
    <g clip-path="url(#p56cc2dfab1)">
     <use xlink:href="#C0_0_ee98df9ca0" x="78.507925" y="144.188313" style="fill: #f9eef4; stroke: #000000"/>
    </g>
    <g clip-path="url(#p56cc2dfab1)">
     <use xlink:href="#C0_0_ee98df9ca0" x="137.395556" y="91.500989" style="fill: #f5c6e2; stroke: #000000"/>
    </g>
    <g clip-path="url(#p56cc2dfab1)">
     <use xlink:href="#C0_0_ee98df9ca0" x="88.278766" y="148.901135" style="fill: #f1b5d9; stroke: #000000"/>
    </g>
    <g clip-path="url(#p56cc2dfab1)">
     <use xlink:href="#C0_0_ee98df9ca0" x="94.943355" y="128.243731" style="fill: #fbe9f2; stroke: #000000"/>
    </g>
    <g clip-path="url(#p56cc2dfab1)">
     <use xlink:href="#C0_0_ee98df9ca0" x="77.052846" y="157.602784" style="fill: #f5c2e0; stroke: #000000"/>
    </g>
    <g clip-path="url(#p56cc2dfab1)">
     <use xlink:href="#C0_0_ee98df9ca0" x="153.737895" y="71.90847" style="fill: #f8d0e7; stroke: #000000"/>
    </g>
    <g clip-path="url(#p56cc2dfab1)">
     <use xlink:href="#C0_0_ee98df9ca0" x="151.520304" y="65.078815" style="fill: #f9eff4; stroke: #000000"/>
    </g>
    <g clip-path="url(#p56cc2dfab1)">
     <use xlink:href="#C0_0_ee98df9ca0" x="156.870762" y="74.326546" style="fill: #f2b8db; stroke: #000000"/>
    </g>
    <g clip-path="url(#p56cc2dfab1)">
     <use xlink:href="#C0_0_ee98df9ca0" x="126.287172" y="120.379539" style="fill: #df7cb1; stroke: #000000"/>
    </g>
    <g clip-path="url(#p56cc2dfab1)">
     <use xlink:href="#C0_0_ee98df9ca0" x="95.793634" y="154.619291" style="fill: #de77ae; stroke: #000000"/>
    </g>
    <g clip-path="url(#p56cc2dfab1)">
     <use xlink:href="#C0_0_ee98df9ca0" x="150.273148" y="101.774744" style="fill: #d65a9f; stroke: #000000"/>
    </g>
    <g clip-path="url(#p56cc2dfab1)">
     <use xlink:href="#C0_0_ee98df9ca0" x="141.795984" y="84.22937" style="fill: #f9d1e8; stroke: #000000"/>
    </g>
    <g clip-path="url(#p56cc2dfab1)">
     <use xlink:href="#C0_0_ee98df9ca0" x="104.574962" y="130.106749" style="fill: #f2badc; stroke: #000000"/>
    </g>
    <g clip-path="url(#p56cc2dfab1)">
     <use xlink:href="#C0_0_ee98df9ca0" x="96.622385" y="142.944601" style="fill: #eca6cf; stroke: #000000"/>
    </g>
    <g clip-path="url(#p56cc2dfab1)">
     <use xlink:href="#C0_0_ee98df9ca0" x="107.636435" y="142.18074" style="fill: #de77ae; stroke: #000000"/>
    </g>
    <g clip-path="url(#p56cc2dfab1)">
     <use xlink:href="#C0_0_ee98df9ca0" x="110.96818" y="141.010023" style="fill: #da69a6; stroke: #000000"/>
    </g>
    <g clip-path="url(#p56cc2dfab1)">
     <use xlink:href="#C0_0_ee98df9ca0" x="126.287172" y="118.171773" style="fill: #e286b8; stroke: #000000"/>
    </g>
    <g clip-path="url(#p56cc2dfab1)">
     <use xlink:href="#C0_0_ee98df9ca0" x="112.007439" y="140.0578" style="fill: #da69a6; stroke: #000000"/>
    </g>
    <g clip-path="url(#p56cc2dfab1)">
     <use xlink:href="#C0_0_ee98df9ca0" x="107.046619" y="143.835131" style="fill: #dc70aa; stroke: #000000"/>
    </g>
    <g clip-path="url(#p56cc2dfab1)">
     <use xlink:href="#C0_0_ee98df9ca0" x="117.199201" y="87.087688" style="fill: #b0dc7d; stroke: #000000"/>
    </g>
    <g clip-path="url(#p56cc2dfab1)">
     <use xlink:href="#C0_0_ee98df9ca0" x="101.901321" y="112.715999" style="fill: #eff6e4; stroke: #000000"/>
    </g>
    <g clip-path="url(#p56cc2dfab1)">
     <use xlink:href="#C0_0_ee98df9ca0" x="90.325302" y="78.516715" style="fill: #276419; stroke: #000000"/>
    </g>
    <g clip-path="url(#p56cc2dfab1)">
     <use xlink:href="#C0_0_ee98df9ca0" x="120.516864" y="76.058575" style="fill: #569927; stroke: #000000"/>
    </g>
    <g clip-path="url(#p56cc2dfab1)">
     <use xlink:href="#C0_0_ee98df9ca0" x="173.747585" y="38.788099" style="fill: #f7f7f6; stroke: #000000"/>
    </g>
    <g clip-path="url(#p56cc2dfab1)">
     <use xlink:href="#C0_0_ee98df9ca0" x="156.21475" y="7.453491" style="fill: #276419; stroke: #000000"/>
    </g>
    <g clip-path="url(#p56cc2dfab1)">
     <use xlink:href="#C0_0_ee98df9ca0" x="124.937129" y="83.003436" style="fill: #d6eeb6; stroke: #000000"/>
    </g>
    <g clip-path="url(#p56cc2dfab1)">
     <use xlink:href="#C0_0_ee98df9ca0" x="140.750083" y="55.517769" style="fill: #64a52f; stroke: #000000"/>
    </g>
    <g clip-path="url(#p56cc2dfab1)">
     <use xlink:href="#C0_0_ee98df9ca0" x="180.330421" y="23.240236" style="fill: #d6eeb6; stroke: #000000"/>
    </g>
    <g clip-path="url(#p56cc2dfab1)">
     <use xlink:href="#C0_0_ee98df9ca0" x="145.306549" y="35.464339" style="fill: #276419; stroke: #000000"/>
    </g>
    <g clip-path="url(#p56cc2dfab1)">
     <use xlink:href="#C0_0_ee98df9ca0" x="155.948619" y="44.535024" style="fill: #a5d56f; stroke: #000000"/>
    </g>
    <g clip-path="url(#p56cc2dfab1)">
     <use xlink:href="#C0_0_ee98df9ca0" x="156.870762" y="32.067575" style="fill: #276419; stroke: #000000"/>
    </g>
    <g clip-path="url(#p56cc2dfab1)">
     <use xlink:href="#C0_0_ee98df9ca0" x="164.588173" y="46.563868" style="fill: #f2f6ec; stroke: #000000"/>
    </g>
    <g clip-path="url(#p56cc2dfab1)">
     <use xlink:href="#C0_0_ee98df9ca0" x="161.468299" y="40.318861" style="fill: #b9e187; stroke: #000000"/>
    </g>
    <g clip-path="url(#p56cc2dfab1)">
     <use xlink:href="#C0_0_ee98df9ca0" x="154.444918" y="62.99196" style="fill: #faedf3; stroke: #000000"/>
    </g>
    <g clip-path="url(#p56cc2dfab1)">
     <use xlink:href="#C0_0_ee98df9ca0" x="181.879144" y="13.876727" style="fill: #83bf46; stroke: #000000"/>
    </g>
    <g clip-path="url(#p56cc2dfab1)">
     <use xlink:href="#C0_0_ee98df9ca0" x="162.578029" y="36.377732" style="fill: #9acd61; stroke: #000000"/>
    </g>
    <g clip-path="url(#p56cc2dfab1)">
     <use xlink:href="#C0_0_ee98df9ca0" x="139.227301" y="76.258401" style="fill: #f7f6f7; stroke: #000000"/>
    </g>
    <g clip-path="url(#p56cc2dfab1)">
     <use xlink:href="#C0_0_ee98df9ca0" x="169.531351" y="42.794073" style="fill: #f6f7f5; stroke: #000000"/>
    </g>
    <g clip-path="url(#p56cc2dfab1)">
     <use xlink:href="#C0_0_ee98df9ca0" x="145.674349" y="61.746714" style="fill: #dff2c4; stroke: #000000"/>
    </g>
   </g>
   <g id="line2d_47">
    <path d="M 8.098075 217 
L 210.730969 -1 
" clip-path="url(#p56cc2dfab1)" style="fill: none; stroke-dasharray: 3.7,1.6; stroke-dashoffset: 0; stroke: #000000"/>
   </g>
   <g id="patch_3">
    <path d="M 34.52224 188.571901 
L 34.52224 8.405193 
" style="fill: none; stroke: #262626; stroke-width: 1.25; stroke-linejoin: miter; stroke-linecap: square"/>
   </g>
   <g id="patch_4">
    <path d="M 201.98876 188.571901 
L 201.98876 8.405193 
" style="fill: none; stroke: #262626; stroke-width: 1.25; stroke-linejoin: miter; stroke-linecap: square"/>
   </g>
   <g id="patch_5">
    <path d="M 34.52224 188.571901 
L 201.98876 188.571901 
" style="fill: none; stroke: #262626; stroke-width: 1.25; stroke-linejoin: miter; stroke-linecap: square"/>
   </g>
   <g id="patch_6">
    <path d="M 34.52224 8.405193 
L 201.98876 8.405193 
" style="fill: none; stroke: #262626; stroke-width: 1.25; stroke-linejoin: miter; stroke-linecap: square"/>
   </g>
  </g>
 </g>
 <defs>
  <clipPath id="p56cc2dfab1">
   <rect x="34.52224" y="8.405193" width="167.46652" height="180.166707"/>
  </clipPath>
 </defs>
</svg>
