<?xml version="1.0" encoding="utf-8" standalone="no"?>
<!DOCTYPE svg PUBLIC "-//W3C//DTD SVG 1.1//EN"
  "http://www.w3.org/Graphics/SVG/1.1/DTD/svg11.dtd">
<svg xmlns:xlink="http://www.w3.org/1999/xlink" width="216pt" height="216pt" viewBox="0 0 216 216" xmlns="http://www.w3.org/2000/svg" version="1.1">
 <metadata>
  <rdf:RDF xmlns:dc="http://purl.org/dc/elements/1.1/" xmlns:cc="http://creativecommons.org/ns#" xmlns:rdf="http://www.w3.org/1999/02/22-rdf-syntax-ns#">
   <cc:Work>
    <dc:type rdf:resource="http://purl.org/dc/dcmitype/StillImage"/>
    <dc:date>2023-12-04T15:56:42.437001</dc:date>
    <dc:format>image/svg+xml</dc:format>
    <dc:creator>
     <cc:Agent>
      <dc:title>Matplotlib v3.7.1, https://matplotlib.org/</dc:title>
     </cc:Agent>
    </dc:creator>
   </cc:Work>
  </rdf:RDF>
 </metadata>
 <defs>
  <style type="text/css">*{stroke-linejoin: round; stroke-linecap: butt}</style>
 </defs>
 <g id="figure_1">
  <g id="patch_1">
   <path d="M 0 216 
L 216 216 
L 216 0 
L 0 0 
z
" style="fill: #ffffff"/>
  </g>
  <g id="axes_1">
   <g id="patch_2">
    <path d="M 34.52224 188.571901 
L 201.98876 188.571901 
L 201.98876 8.405193 
L 34.52224 8.405193 
z
" style="fill: #ffffff"/>
   </g>
   <g id="matplotlib.axis_1">
    <g id="xtick_1">
     <g id="line2d_1">
      <defs>
       <path id="m13904b788f" d="M 0 0 
L 0 6 
" style="stroke: #262626; stroke-width: 1.25"/>
      </defs>
      <g>
       <use xlink:href="#m13904b788f" x="51.243557" y="188.571901" style="fill: #262626; stroke: #262626; stroke-width: 1.25"/>
      </g>
     </g>
     <g id="text_1">
      <!-- $\mathdefault{10^{1}}$ -->
      <g style="fill: #262626" transform="translate(40.232557 208.881807) scale(0.143 -0.143)">
       <defs>
        <path id="Avenir-Book-31" d="M 2227 0 
L 1766 0 
L 1766 3955 
L 954 3238 
L 666 3584 
L 1818 4531 
L 2227 4531 
L 2227 0 
z
" transform="scale(0.015625)"/>
        <path id="Avenir-Book-30" d="M 1779 4186 
Q 1408 4186 1193 3987 
Q 979 3789 870 3494 
Q 762 3200 733 2867 
Q 704 2534 704 2266 
Q 704 1997 733 1664 
Q 762 1331 870 1036 
Q 979 742 1193 544 
Q 1408 346 1779 346 
Q 2150 346 2364 544 
Q 2579 742 2688 1036 
Q 2797 1331 2825 1664 
Q 2854 1997 2854 2266 
Q 2854 2534 2825 2867 
Q 2797 3200 2688 3494 
Q 2579 3789 2364 3987 
Q 2150 4186 1779 4186 
z
M 1779 4608 
Q 2266 4608 2566 4384 
Q 2867 4160 3033 3814 
Q 3200 3469 3257 3056 
Q 3315 2643 3315 2266 
Q 3315 1888 3257 1475 
Q 3200 1062 3033 716 
Q 2867 371 2566 147 
Q 2266 -77 1779 -77 
Q 1293 -77 992 147 
Q 691 371 524 716 
Q 358 1062 300 1475 
Q 243 1888 243 2266 
Q 243 2643 300 3056 
Q 358 3469 524 3814 
Q 691 4160 992 4384 
Q 1293 4608 1779 4608 
z
" transform="scale(0.015625)"/>
       </defs>
       <use xlink:href="#Avenir-Book-31" transform="translate(0 0.684375)"/>
       <use xlink:href="#Avenir-Book-30" transform="translate(55.599991 0.684375)"/>
       <use xlink:href="#Avenir-Book-31" transform="translate(112.018927 33.442188) scale(0.7)"/>
      </g>
     </g>
    </g>
    <g id="xtick_2">
     <g id="line2d_2">
      <g>
       <use xlink:href="#m13904b788f" x="126.616159" y="188.571901" style="fill: #262626; stroke: #262626; stroke-width: 1.25"/>
      </g>
     </g>
     <g id="text_2">
      <!-- $\mathdefault{10^{2}}$ -->
      <g style="fill: #262626" transform="translate(115.605159 208.881807) scale(0.143 -0.143)">
       <defs>
        <path id="Avenir-Book-32" d="M 3187 0 
L 307 0 
L 307 531 
L 2112 2368 
Q 2214 2470 2316 2585 
Q 2419 2701 2502 2829 
Q 2586 2957 2637 3097 
Q 2688 3238 2688 3392 
Q 2688 3578 2621 3725 
Q 2554 3872 2432 3974 
Q 2310 4077 2150 4131 
Q 1990 4186 1811 4186 
Q 1466 4186 1222 3994 
Q 979 3802 909 3475 
L 422 3526 
Q 518 4032 886 4320 
Q 1254 4608 1779 4608 
Q 2054 4608 2300 4534 
Q 2547 4461 2736 4313 
Q 2925 4166 3037 3945 
Q 3149 3725 3149 3430 
Q 3149 3168 3069 2950 
Q 2989 2733 2861 2541 
Q 2733 2349 2569 2176 
Q 2406 2003 2234 1837 
L 806 422 
L 3187 422 
L 3187 0 
z
" transform="scale(0.015625)"/>
       </defs>
       <use xlink:href="#Avenir-Book-31" transform="translate(0 0.842187)"/>
       <use xlink:href="#Avenir-Book-30" transform="translate(55.599991 0.842187)"/>
       <use xlink:href="#Avenir-Book-32" transform="translate(112.018927 33.6) scale(0.7)"/>
      </g>
     </g>
    </g>
    <g id="xtick_3">
     <g id="line2d_3">
      <g>
       <use xlink:href="#m13904b788f" x="201.98876" y="188.571901" style="fill: #262626; stroke: #262626; stroke-width: 1.25"/>
      </g>
     </g>
     <g id="text_3">
      <!-- $\mathdefault{10^{3}}$ -->
      <g style="fill: #262626" transform="translate(190.97776 208.881807) scale(0.143 -0.143)">
       <defs>
        <path id="Avenir-Book-33" d="M 1306 2586 
L 1542 2586 
Q 1741 2586 1923 2630 
Q 2106 2675 2240 2774 
Q 2374 2874 2454 3034 
Q 2534 3194 2534 3418 
Q 2534 3782 2313 3984 
Q 2093 4186 1696 4186 
Q 1408 4186 1190 4058 
Q 973 3930 832 3686 
L 429 3891 
Q 634 4256 950 4432 
Q 1267 4608 1683 4608 
Q 1952 4608 2189 4531 
Q 2426 4454 2605 4304 
Q 2784 4154 2889 3933 
Q 2995 3712 2995 3430 
Q 2995 3245 2934 3078 
Q 2874 2912 2768 2777 
Q 2662 2643 2521 2544 
Q 2381 2445 2227 2394 
L 2246 2381 
Q 2438 2342 2598 2236 
Q 2758 2131 2873 1977 
Q 2989 1824 3053 1632 
Q 3117 1440 3117 1229 
Q 3117 915 3001 672 
Q 2886 429 2688 262 
Q 2490 96 2227 9 
Q 1965 -77 1670 -77 
Q 1171 -77 800 140 
Q 429 358 243 838 
L 730 986 
Q 845 659 1072 502 
Q 1299 346 1709 346 
Q 1901 346 2073 410 
Q 2246 474 2377 592 
Q 2509 710 2582 876 
Q 2656 1043 2656 1242 
Q 2656 1498 2560 1674 
Q 2464 1850 2304 1958 
Q 2144 2067 1936 2115 
Q 1728 2163 1504 2163 
L 1306 2163 
L 1306 2586 
z
" transform="scale(0.015625)"/>
       </defs>
       <use xlink:href="#Avenir-Book-31" transform="translate(0 0.842187)"/>
       <use xlink:href="#Avenir-Book-30" transform="translate(55.599991 0.842187)"/>
       <use xlink:href="#Avenir-Book-33" transform="translate(112.018927 33.6) scale(0.7)"/>
      </g>
     </g>
    </g>
    <g id="xtick_4">
     <g id="line2d_4">
      <defs>
       <path id="mb8fcca5a61" d="M 0 0 
L 0 4 
" style="stroke: #262626"/>
      </defs>
      <g>
       <use xlink:href="#mb8fcca5a61" x="34.52224" y="188.571901" style="fill: #262626; stroke: #262626"/>
      </g>
     </g>
    </g>
    <g id="xtick_5">
     <g id="line2d_5">
      <g>
       <use xlink:href="#mb8fcca5a61" x="39.568194" y="188.571901" style="fill: #262626; stroke: #262626"/>
      </g>
     </g>
    </g>
    <g id="xtick_6">
     <g id="line2d_6">
      <g>
       <use xlink:href="#mb8fcca5a61" x="43.939198" y="188.571901" style="fill: #262626; stroke: #262626"/>
      </g>
     </g>
    </g>
    <g id="xtick_7">
     <g id="line2d_7">
      <g>
       <use xlink:href="#mb8fcca5a61" x="47.794696" y="188.571901" style="fill: #262626; stroke: #262626"/>
      </g>
     </g>
    </g>
    <g id="xtick_8">
     <g id="line2d_8">
      <g>
       <use xlink:href="#mb8fcca5a61" x="73.932971" y="188.571901" style="fill: #262626; stroke: #262626"/>
      </g>
     </g>
    </g>
    <g id="xtick_9">
     <g id="line2d_9">
      <g>
       <use xlink:href="#mb8fcca5a61" x="87.205427" y="188.571901" style="fill: #262626; stroke: #262626"/>
      </g>
     </g>
    </g>
    <g id="xtick_10">
     <g id="line2d_10">
      <g>
       <use xlink:href="#mb8fcca5a61" x="96.622385" y="188.571901" style="fill: #262626; stroke: #262626"/>
      </g>
     </g>
    </g>
    <g id="xtick_11">
     <g id="line2d_11">
      <g>
       <use xlink:href="#mb8fcca5a61" x="103.926745" y="188.571901" style="fill: #262626; stroke: #262626"/>
      </g>
     </g>
    </g>
    <g id="xtick_12">
     <g id="line2d_12">
      <g>
       <use xlink:href="#mb8fcca5a61" x="109.894841" y="188.571901" style="fill: #262626; stroke: #262626"/>
      </g>
     </g>
    </g>
    <g id="xtick_13">
     <g id="line2d_13">
      <g>
       <use xlink:href="#mb8fcca5a61" x="114.940795" y="188.571901" style="fill: #262626; stroke: #262626"/>
      </g>
     </g>
    </g>
    <g id="xtick_14">
     <g id="line2d_14">
      <g>
       <use xlink:href="#mb8fcca5a61" x="119.311799" y="188.571901" style="fill: #262626; stroke: #262626"/>
      </g>
     </g>
    </g>
    <g id="xtick_15">
     <g id="line2d_15">
      <g>
       <use xlink:href="#mb8fcca5a61" x="123.167298" y="188.571901" style="fill: #262626; stroke: #262626"/>
      </g>
     </g>
    </g>
    <g id="xtick_16">
     <g id="line2d_16">
      <g>
       <use xlink:href="#mb8fcca5a61" x="149.305573" y="188.571901" style="fill: #262626; stroke: #262626"/>
      </g>
     </g>
    </g>
    <g id="xtick_17">
     <g id="line2d_17">
      <g>
       <use xlink:href="#mb8fcca5a61" x="162.578029" y="188.571901" style="fill: #262626; stroke: #262626"/>
      </g>
     </g>
    </g>
    <g id="xtick_18">
     <g id="line2d_18">
      <g>
       <use xlink:href="#mb8fcca5a61" x="171.994986" y="188.571901" style="fill: #262626; stroke: #262626"/>
      </g>
     </g>
    </g>
    <g id="xtick_19">
     <g id="line2d_19">
      <g>
       <use xlink:href="#mb8fcca5a61" x="179.299346" y="188.571901" style="fill: #262626; stroke: #262626"/>
      </g>
     </g>
    </g>
    <g id="xtick_20">
     <g id="line2d_20">
      <g>
       <use xlink:href="#mb8fcca5a61" x="185.267443" y="188.571901" style="fill: #262626; stroke: #262626"/>
      </g>
     </g>
    </g>
    <g id="xtick_21">
     <g id="line2d_21">
      <g>
       <use xlink:href="#mb8fcca5a61" x="190.313396" y="188.571901" style="fill: #262626; stroke: #262626"/>
      </g>
     </g>
    </g>
    <g id="xtick_22">
     <g id="line2d_22">
      <g>
       <use xlink:href="#mb8fcca5a61" x="194.6844" y="188.571901" style="fill: #262626; stroke: #262626"/>
      </g>
     </g>
    </g>
    <g id="xtick_23">
     <g id="line2d_23">
      <g>
       <use xlink:href="#mb8fcca5a61" x="198.539899" y="188.571901" style="fill: #262626; stroke: #262626"/>
      </g>
     </g>
    </g>
   </g>
   <g id="matplotlib.axis_2">
    <g id="ytick_1">
     <g id="line2d_24">
      <defs>
       <path id="mc0b098aea6" d="M 0 0 
L -6 0 
" style="stroke: #262626; stroke-width: 1.25"/>
      </defs>
      <g>
       <use xlink:href="#mc0b098aea6" x="34.52224" y="170.582486" style="fill: #262626; stroke: #262626; stroke-width: 1.25"/>
      </g>
     </g>
     <g id="text_4">
      <!-- $\mathdefault{10^{1}}$ -->
      <g style="fill: #262626" transform="translate(3.00024 175.987439) scale(0.143 -0.143)">
       <use xlink:href="#Avenir-Book-31" transform="translate(0 0.684375)"/>
       <use xlink:href="#Avenir-Book-30" transform="translate(55.599991 0.684375)"/>
       <use xlink:href="#Avenir-Book-31" transform="translate(112.018927 33.442188) scale(0.7)"/>
      </g>
     </g>
    </g>
    <g id="ytick_2">
     <g id="line2d_25">
      <g>
       <use xlink:href="#mc0b098aea6" x="34.52224" y="89.493839" style="fill: #262626; stroke: #262626; stroke-width: 1.25"/>
      </g>
     </g>
     <g id="text_5">
      <!-- $\mathdefault{10^{2}}$ -->
      <g style="fill: #262626" transform="translate(3.00024 94.898793) scale(0.143 -0.143)">
       <use xlink:href="#Avenir-Book-31" transform="translate(0 0.842187)"/>
       <use xlink:href="#Avenir-Book-30" transform="translate(55.599991 0.842187)"/>
       <use xlink:href="#Avenir-Book-32" transform="translate(112.018927 33.6) scale(0.7)"/>
      </g>
     </g>
    </g>
    <g id="ytick_3">
     <g id="line2d_26">
      <g>
       <use xlink:href="#mc0b098aea6" x="34.52224" y="8.405193" style="fill: #262626; stroke: #262626; stroke-width: 1.25"/>
      </g>
     </g>
     <g id="text_6">
      <!-- $\mathdefault{10^{3}}$ -->
      <g style="fill: #262626" transform="translate(3.00024 13.810146) scale(0.143 -0.143)">
       <use xlink:href="#Avenir-Book-31" transform="translate(0 0.842187)"/>
       <use xlink:href="#Avenir-Book-30" transform="translate(55.599991 0.842187)"/>
       <use xlink:href="#Avenir-Book-33" transform="translate(112.018927 33.6) scale(0.7)"/>
      </g>
     </g>
    </g>
    <g id="ytick_4">
     <g id="line2d_27">
      <defs>
       <path id="m24a7dbca8e" d="M 0 0 
L -4 0 
" style="stroke: #262626"/>
      </defs>
      <g>
       <use xlink:href="#m24a7dbca8e" x="34.52224" y="188.571901" style="fill: #262626; stroke: #262626"/>
      </g>
     </g>
    </g>
    <g id="ytick_5">
     <g id="line2d_28">
      <g>
       <use xlink:href="#m24a7dbca8e" x="34.52224" y="183.143276" style="fill: #262626; stroke: #262626"/>
      </g>
     </g>
    </g>
    <g id="ytick_6">
     <g id="line2d_29">
      <g>
       <use xlink:href="#m24a7dbca8e" x="34.52224" y="178.440788" style="fill: #262626; stroke: #262626"/>
      </g>
     </g>
    </g>
    <g id="ytick_7">
     <g id="line2d_30">
      <g>
       <use xlink:href="#m24a7dbca8e" x="34.52224" y="174.292899" style="fill: #262626; stroke: #262626"/>
      </g>
     </g>
    </g>
    <g id="ytick_8">
     <g id="line2d_31">
      <g>
       <use xlink:href="#m24a7dbca8e" x="34.52224" y="146.172371" style="fill: #262626; stroke: #262626"/>
      </g>
     </g>
    </g>
    <g id="ytick_9">
     <g id="line2d_32">
      <g>
       <use xlink:href="#m24a7dbca8e" x="34.52224" y="131.893369" style="fill: #262626; stroke: #262626"/>
      </g>
     </g>
    </g>
    <g id="ytick_10">
     <g id="line2d_33">
      <g>
       <use xlink:href="#m24a7dbca8e" x="34.52224" y="121.762256" style="fill: #262626; stroke: #262626"/>
      </g>
     </g>
    </g>
    <g id="ytick_11">
     <g id="line2d_34">
      <g>
       <use xlink:href="#m24a7dbca8e" x="34.52224" y="113.903954" style="fill: #262626; stroke: #262626"/>
      </g>
     </g>
    </g>
    <g id="ytick_12">
     <g id="line2d_35">
      <g>
       <use xlink:href="#m24a7dbca8e" x="34.52224" y="107.483254" style="fill: #262626; stroke: #262626"/>
      </g>
     </g>
    </g>
    <g id="ytick_13">
     <g id="line2d_36">
      <g>
       <use xlink:href="#m24a7dbca8e" x="34.52224" y="102.05463" style="fill: #262626; stroke: #262626"/>
      </g>
     </g>
    </g>
    <g id="ytick_14">
     <g id="line2d_37">
      <g>
       <use xlink:href="#m24a7dbca8e" x="34.52224" y="97.352141" style="fill: #262626; stroke: #262626"/>
      </g>
     </g>
    </g>
    <g id="ytick_15">
     <g id="line2d_38">
      <g>
       <use xlink:href="#m24a7dbca8e" x="34.52224" y="93.204252" style="fill: #262626; stroke: #262626"/>
      </g>
     </g>
    </g>
    <g id="ytick_16">
     <g id="line2d_39">
      <g>
       <use xlink:href="#m24a7dbca8e" x="34.52224" y="65.083725" style="fill: #262626; stroke: #262626"/>
      </g>
     </g>
    </g>
    <g id="ytick_17">
     <g id="line2d_40">
      <g>
       <use xlink:href="#m24a7dbca8e" x="34.52224" y="50.804723" style="fill: #262626; stroke: #262626"/>
      </g>
     </g>
    </g>
    <g id="ytick_18">
     <g id="line2d_41">
      <g>
       <use xlink:href="#m24a7dbca8e" x="34.52224" y="40.67361" style="fill: #262626; stroke: #262626"/>
      </g>
     </g>
    </g>
    <g id="ytick_19">
     <g id="line2d_42">
      <g>
       <use xlink:href="#m24a7dbca8e" x="34.52224" y="32.815308" style="fill: #262626; stroke: #262626"/>
      </g>
     </g>
    </g>
    <g id="ytick_20">
     <g id="line2d_43">
      <g>
       <use xlink:href="#m24a7dbca8e" x="34.52224" y="26.394608" style="fill: #262626; stroke: #262626"/>
      </g>
     </g>
    </g>
    <g id="ytick_21">
     <g id="line2d_44">
      <g>
       <use xlink:href="#m24a7dbca8e" x="34.52224" y="20.965983" style="fill: #262626; stroke: #262626"/>
      </g>
     </g>
    </g>
    <g id="ytick_22">
     <g id="line2d_45">
      <g>
       <use xlink:href="#m24a7dbca8e" x="34.52224" y="16.263495" style="fill: #262626; stroke: #262626"/>
      </g>
     </g>
    </g>
    <g id="ytick_23">
     <g id="line2d_46">
      <g>
       <use xlink:href="#m24a7dbca8e" x="34.52224" y="12.115606" style="fill: #262626; stroke: #262626"/>
      </g>
     </g>
    </g>
   </g>
   <g id="PathCollection_1">
    <defs>
     <path id="C0_0_d4c066d928" d="M 0 3.535534 
C 0.937635 3.535534 1.836992 3.163008 2.5 2.5 
C 3.163008 1.836992 3.535534 0.937635 3.535534 -0 
C 3.535534 -0.937635 3.163008 -1.836992 2.5 -2.5 
C 1.836992 -3.163008 0.937635 -3.535534 0 -3.535534 
C -0.937635 -3.535534 -1.836992 -3.163008 -2.5 -2.5 
C -3.163008 -1.836992 -3.535534 -0.937635 -3.535534 0 
C -3.535534 0.937635 -3.163008 1.836992 -2.5 2.5 
C -1.836992 3.163008 -0.937635 3.535534 0 3.535534 
z
"/>
    </defs>
    <g clip-path="url(#p1cde99b915)">
     <use xlink:href="#C0_0_d4c066d928" x="124.590735" y="102.350124" style="fill: #f9d3e8; stroke: #000000"/>
    </g>
    <g clip-path="url(#p1cde99b915)">
     <use xlink:href="#C0_0_d4c066d928" x="90.325302" y="141.049212" style="fill: #f7cbe4; stroke: #000000"/>
    </g>
    <g clip-path="url(#p1cde99b915)">
     <use xlink:href="#C0_0_d4c066d928" x="77.052846" y="165.483404" style="fill: #ea9fca; stroke: #000000"/>
    </g>
    <g clip-path="url(#p1cde99b915)">
     <use xlink:href="#C0_0_d4c066d928" x="119.718436" y="144.336527" style="fill: #cc368b; stroke: #000000"/>
    </g>
    <g clip-path="url(#p1cde99b915)">
     <use xlink:href="#C0_0_d4c066d928" x="79.901068" y="152.579024" style="fill: #f6c9e3; stroke: #000000"/>
    </g>
    <g clip-path="url(#p1cde99b915)">
     <use xlink:href="#C0_0_d4c066d928" x="113.014716" y="118.517111" style="fill: #f5c4e1; stroke: #000000"/>
    </g>
    <g clip-path="url(#p1cde99b915)">
     <use xlink:href="#C0_0_d4c066d928" x="62.257608" y="183.472681" style="fill: #e795c3; stroke: #000000"/>
    </g>
    <g clip-path="url(#p1cde99b915)">
     <use xlink:href="#C0_0_d4c066d928" x="122.431673" y="123.853052" style="fill: #e07eb3; stroke: #000000"/>
    </g>
    <g clip-path="url(#p1cde99b915)">
     <use xlink:href="#C0_0_d4c066d928" x="120.516864" y="102.368165" style="fill: #fce4f0; stroke: #000000"/>
    </g>
    <g clip-path="url(#p1cde99b915)">
     <use xlink:href="#C0_0_d4c066d928" x="81.237331" y="151.348379" style="fill: #f6c9e3; stroke: #000000"/>
    </g>
    <g clip-path="url(#p1cde99b915)">
     <use xlink:href="#C0_0_d4c066d928" x="146.753587" y="81.48734" style="fill: #f5c6e2; stroke: #000000"/>
    </g>
    <g clip-path="url(#p1cde99b915)">
     <use xlink:href="#C0_0_d4c066d928" x="145.674349" y="91.596705" style="fill: #ea9fca; stroke: #000000"/>
    </g>
    <g clip-path="url(#p1cde99b915)">
     <use xlink:href="#C0_0_d4c066d928" x="141.795984" y="93.814787" style="fill: #eda8d1; stroke: #000000"/>
    </g>
    <g clip-path="url(#p1cde99b915)">
     <use xlink:href="#C0_0_d4c066d928" x="140.750083" y="83.397948" style="fill: #fbd9ec; stroke: #000000"/>
    </g>
    <g clip-path="url(#p1cde99b915)">
     <use xlink:href="#C0_0_d4c066d928" x="141.795984" y="93.058711" style="fill: #eeabd2; stroke: #000000"/>
    </g>
    <g clip-path="url(#p1cde99b915)">
     <use xlink:href="#C0_0_d4c066d928" x="115.862938" y="119.215834" style="fill: #f1b5d9; stroke: #000000"/>
    </g>
    <g clip-path="url(#p1cde99b915)">
     <use xlink:href="#C0_0_d4c066d928" x="115.405113" y="139.437284" style="fill: #d65a9f; stroke: #000000"/>
    </g>
    <g clip-path="url(#p1cde99b915)">
     <use xlink:href="#C0_0_d4c066d928" x="124.937129" y="125.447085" style="fill: #db6ca8; stroke: #000000"/>
    </g>
    <g clip-path="url(#p1cde99b915)">
     <use xlink:href="#C0_0_d4c066d928" x="109.894841" y="148.577455" style="fill: #d24c97; stroke: #000000"/>
    </g>
    <g clip-path="url(#p1cde99b915)">
     <use xlink:href="#C0_0_d4c066d928" x="141.381625" y="107.973087" style="fill: #db6ca8; stroke: #000000"/>
    </g>
    <g clip-path="url(#p1cde99b915)">
     <use xlink:href="#C0_0_d4c066d928" x="154.30473" y="66.588523" style="fill: #fce3f0; stroke: #000000"/>
    </g>
    <g clip-path="url(#p1cde99b915)">
     <use xlink:href="#C0_0_d4c066d928" x="90.325302" y="158.520399" style="fill: #e07eb3; stroke: #000000"/>
    </g>
    <g clip-path="url(#p1cde99b915)">
     <use xlink:href="#C0_0_d4c066d928" x="163.966624" y="69.669812" style="fill: #eda8d1; stroke: #000000"/>
    </g>
    <g clip-path="url(#p1cde99b915)">
     <use xlink:href="#C0_0_d4c066d928" x="124.240637" y="103.49667" style="fill: #f8d0e7; stroke: #000000"/>
    </g>
    <g clip-path="url(#p1cde99b915)">
     <use xlink:href="#C0_0_d4c066d928" x="118.060669" y="126.349335" style="fill: #e388ba; stroke: #000000"/>
    </g>
    <g clip-path="url(#p1cde99b915)">
     <use xlink:href="#C0_0_d4c066d928" x="143.985693" y="81.782625" style="fill: #f9d1e8; stroke: #000000"/>
    </g>
    <g clip-path="url(#p1cde99b915)">
     <use xlink:href="#C0_0_d4c066d928" x="75.530064" y="167.294973" style="fill: #e99cc8; stroke: #000000"/>
    </g>
    <g clip-path="url(#p1cde99b915)">
     <use xlink:href="#C0_0_d4c066d928" x="153.737895" y="70.842826" style="fill: #f9d3e8; stroke: #000000"/>
    </g>
    <g clip-path="url(#p1cde99b915)">
     <use xlink:href="#C0_0_d4c066d928" x="114.469795" y="142.925535" style="fill: #d34f99; stroke: #000000"/>
    </g>
    <g clip-path="url(#p1cde99b915)">
     <use xlink:href="#C0_0_d4c066d928" x="155.545321" y="100.175178" style="fill: #d24c97; stroke: #000000"/>
    </g>
    <g clip-path="url(#p1cde99b915)">
     <use xlink:href="#C0_0_d4c066d928" x="98.219478" y="148.712623" style="fill: #e283b7; stroke: #000000"/>
    </g>
    <g clip-path="url(#p1cde99b915)">
     <use xlink:href="#C0_0_d4c066d928" x="118.900046" y="114.156932" style="fill: #f3bcdd; stroke: #000000"/>
    </g>
    <g clip-path="url(#p1cde99b915)">
     <use xlink:href="#C0_0_d4c066d928" x="107.046619" y="141.80238" style="fill: #df79b0; stroke: #000000"/>
    </g>
    <g clip-path="url(#p1cde99b915)">
     <use xlink:href="#C0_0_d4c066d928" x="132.31033" y="100.354745" style="fill: #f2badc; stroke: #000000"/>
    </g>
    <g clip-path="url(#p1cde99b915)">
     <use xlink:href="#C0_0_d4c066d928" x="153.306233" y="104.258156" style="fill: #d04493; stroke: #000000"/>
    </g>
    <g clip-path="url(#p1cde99b915)">
     <use xlink:href="#C0_0_d4c066d928" x="125.954845" y="131.440381" style="fill: #d24c97; stroke: #000000"/>
    </g>
    <g clip-path="url(#p1cde99b915)">
     <use xlink:href="#C0_0_d4c066d928" x="115.862938" y="152.367666" style="fill: #c82884; stroke: #000000"/>
    </g>
    <g clip-path="url(#p1cde99b915)">
     <use xlink:href="#C0_0_d4c066d928" x="161.58098" y="80.61256" style="fill: #e283b7; stroke: #000000"/>
    </g>
    <g clip-path="url(#p1cde99b915)">
     <use xlink:href="#C0_0_d4c066d928" x="168.455071" y="69.820139" style="fill: #e692c1; stroke: #000000"/>
    </g>
    <g clip-path="url(#p1cde99b915)">
     <use xlink:href="#C0_0_d4c066d928" x="151.976004" y="75.692659" style="fill: #f6c7e3; stroke: #000000"/>
    </g>
    <g clip-path="url(#p1cde99b915)">
     <use xlink:href="#C0_0_d4c066d928" x="123.886753" y="85.537414" style="fill: #e2f3ca; stroke: #000000"/>
    </g>
    <g clip-path="url(#p1cde99b915)">
     <use xlink:href="#C0_0_d4c066d928" x="122.431673" y="118.581053" style="fill: #e795c3; stroke: #000000"/>
    </g>
    <g clip-path="url(#p1cde99b915)">
     <use xlink:href="#C0_0_d4c066d928" x="123.886753" y="120.495533" style="fill: #e286b8; stroke: #000000"/>
    </g>
    <g clip-path="url(#p1cde99b915)">
     <use xlink:href="#C0_0_d4c066d928" x="100.477884" y="165.574112" style="fill: #cb3289; stroke: #000000"/>
    </g>
    <g clip-path="url(#p1cde99b915)">
     <use xlink:href="#C0_0_d4c066d928" x="101.197339" y="138.018679" style="fill: #eca6cf; stroke: #000000"/>
    </g>
    <g clip-path="url(#p1cde99b915)">
     <use xlink:href="#C0_0_d4c066d928" x="95.793634" y="133.625027" style="fill: #f9d1e8; stroke: #000000"/>
    </g>
    <g clip-path="url(#p1cde99b915)">
     <use xlink:href="#C0_0_d4c066d928" x="125.279895" y="125.789859" style="fill: #da69a6; stroke: #000000"/>
    </g>
    <g clip-path="url(#p1cde99b915)">
     <use xlink:href="#C0_0_d4c066d928" x="146.39778" y="81.188567" style="fill: #f6c9e3; stroke: #000000"/>
    </g>
    <g clip-path="url(#p1cde99b915)">
     <use xlink:href="#C0_0_d4c066d928" x="108.785111" y="123.609063" style="fill: #f4c1df; stroke: #000000"/>
    </g>
    <g clip-path="url(#p1cde99b915)">
     <use xlink:href="#C0_0_d4c066d928" x="168.363763" y="57.630183" style="fill: #f6c9e3; stroke: #000000"/>
    </g>
    <g clip-path="url(#p1cde99b915)">
     <use xlink:href="#C0_0_d4c066d928" x="132.855907" y="80.204666" style="fill: #f1f6e8; stroke: #000000"/>
    </g>
    <g clip-path="url(#p1cde99b915)">
     <use xlink:href="#C0_0_d4c066d928" x="163.439497" y="49.645054" style="fill: #f7f7f6; stroke: #000000"/>
    </g>
    <g clip-path="url(#p1cde99b915)">
     <use xlink:href="#C0_0_d4c066d928" x="155.814738" y="41.220287" style="fill: #7bb93e; stroke: #000000"/>
    </g>
    <g clip-path="url(#p1cde99b915)">
     <use xlink:href="#C0_0_d4c066d928" x="183.473355" y="36.424307" style="fill: #fddeee; stroke: #000000"/>
    </g>
    <g clip-path="url(#p1cde99b915)">
     <use xlink:href="#C0_0_d4c066d928" x="192.745919" y="31.740294" style="fill: #f6c7e3; stroke: #000000"/>
    </g>
    <g clip-path="url(#p1cde99b915)">
     <use xlink:href="#C0_0_d4c066d928" x="189.556509" y="30.83371" style="fill: #fbd9ec; stroke: #000000"/>
    </g>
    <g clip-path="url(#p1cde99b915)">
     <use xlink:href="#C0_0_d4c066d928" x="137.395556" y="114.451703" style="fill: #d861a2; stroke: #000000"/>
    </g>
    <g clip-path="url(#p1cde99b915)">
     <use xlink:href="#C0_0_d4c066d928" x="78.507925" y="182.962237" style="fill: #d24c97; stroke: #000000"/>
    </g>
    <g clip-path="url(#p1cde99b915)">
     <use xlink:href="#C0_0_d4c066d928" x="118.483048" y="90.139205" style="fill: #d8efb9; stroke: #000000"/>
    </g>
    <g clip-path="url(#p1cde99b915)">
     <use xlink:href="#C0_0_d4c066d928" x="113.506964" y="117.558167" style="fill: #f5c6e2; stroke: #000000"/>
    </g>
    <g clip-path="url(#p1cde99b915)">
     <use xlink:href="#C0_0_d4c066d928" x="108.215812" y="121.850584" style="fill: #f7cbe4; stroke: #000000"/>
    </g>
    <g clip-path="url(#p1cde99b915)">
     <use xlink:href="#C0_0_d4c066d928" x="96.622385" y="129.175727" style="fill: #fde1ef; stroke: #000000"/>
    </g>
    <g clip-path="url(#p1cde99b915)">
     <use xlink:href="#C0_0_d4c066d928" x="90.325302" y="153.273477" style="fill: #e795c3; stroke: #000000"/>
    </g>
    <g clip-path="url(#p1cde99b915)">
     <use xlink:href="#C0_0_d4c066d928" x="57.211654" y="172.147004" style="fill: #fde0ef; stroke: #000000"/>
    </g>
    <g clip-path="url(#p1cde99b915)">
     <use xlink:href="#C0_0_d4c066d928" x="54.363432" y="172.281111" style="fill: #fbe7f2; stroke: #000000"/>
    </g>
    <g clip-path="url(#p1cde99b915)">
     <use xlink:href="#C0_0_d4c066d928" x="89.318025" y="152.707103" style="fill: #e99cc8; stroke: #000000"/>
    </g>
    <g clip-path="url(#p1cde99b915)">
     <use xlink:href="#C0_0_d4c066d928" x="84.947021" y="161.831591" style="fill: #e388ba; stroke: #000000"/>
    </g>
    <g clip-path="url(#p1cde99b915)">
     <use xlink:href="#C0_0_d4c066d928" x="132.034093" y="85.294628" style="fill: #f8f2f5; stroke: #000000"/>
    </g>
    <g clip-path="url(#p1cde99b915)">
     <use xlink:href="#C0_0_d4c066d928" x="156.609932" y="78.454832" style="fill: #eca6cf; stroke: #000000"/>
    </g>
    <g clip-path="url(#p1cde99b915)">
     <use xlink:href="#C0_0_d4c066d928" x="144.558313" y="95.132626" style="fill: #e795c3; stroke: #000000"/>
    </g>
    <g clip-path="url(#p1cde99b915)">
     <use xlink:href="#C0_0_d4c066d928" x="131.755504" y="102.246755" style="fill: #f1b5d9; stroke: #000000"/>
    </g>
    <g clip-path="url(#p1cde99b915)">
     <use xlink:href="#C0_0_d4c066d928" x="145.121087" y="87.831334" style="fill: #f1b5d9; stroke: #000000"/>
    </g>
    <g clip-path="url(#p1cde99b915)">
     <use xlink:href="#C0_0_d4c066d928" x="139.003861" y="89.175862" style="fill: #f6c9e3; stroke: #000000"/>
    </g>
    <g clip-path="url(#p1cde99b915)">
     <use xlink:href="#C0_0_d4c066d928" x="165.097264" y="66.070606" style="fill: #f1b5d9; stroke: #000000"/>
    </g>
    <g clip-path="url(#p1cde99b915)">
     <use xlink:href="#C0_0_d4c066d928" x="148.644259" y="85.403037" style="fill: #eeadd4; stroke: #000000"/>
    </g>
    <g clip-path="url(#p1cde99b915)">
     <use xlink:href="#C0_0_d4c066d928" x="134.440115" y="104.323804" style="fill: #e99cc8; stroke: #000000"/>
    </g>
    <g clip-path="url(#p1cde99b915)">
     <use xlink:href="#C0_0_d4c066d928" x="121.679137" y="112.422541" style="fill: #f1b7da; stroke: #000000"/>
    </g>
    <g clip-path="url(#p1cde99b915)">
     <use xlink:href="#C0_0_d4c066d928" x="131.755504" y="99.854687" style="fill: #f3bdde; stroke: #000000"/>
    </g>
    <g clip-path="url(#p1cde99b915)">
     <use xlink:href="#C0_0_d4c066d928" x="149.792935" y="83.597759" style="fill: #efb0d6; stroke: #000000"/>
    </g>
    <g clip-path="url(#p1cde99b915)">
     <use xlink:href="#C0_0_d4c066d928" x="130.905225" y="107.951179" style="fill: #e99cc8; stroke: #000000"/>
    </g>
    <g clip-path="url(#p1cde99b915)">
     <use xlink:href="#C0_0_d4c066d928" x="125.954845" y="125.213743" style="fill: #da69a6; stroke: #000000"/>
    </g>
    <g clip-path="url(#p1cde99b915)">
     <use xlink:href="#C0_0_d4c066d928" x="98.219478" y="140.941198" style="fill: #eca6cf; stroke: #000000"/>
    </g>
    <g clip-path="url(#p1cde99b915)">
     <use xlink:href="#C0_0_d4c066d928" x="120.908891" y="113.617025" style="fill: #f1b5d9; stroke: #000000"/>
    </g>
    <g clip-path="url(#p1cde99b915)">
     <use xlink:href="#C0_0_d4c066d928" x="82.521178" y="151.07354" style="fill: #f5c4e1; stroke: #000000"/>
    </g>
    <g clip-path="url(#p1cde99b915)">
     <use xlink:href="#C0_0_d4c066d928" x="78.507925" y="155.094691" style="fill: #f5c6e2; stroke: #000000"/>
    </g>
    <g clip-path="url(#p1cde99b915)">
     <use xlink:href="#C0_0_d4c066d928" x="137.395556" y="96.955501" style="fill: #efb0d6; stroke: #000000"/>
    </g>
    <g clip-path="url(#p1cde99b915)">
     <use xlink:href="#C0_0_d4c066d928" x="88.278766" y="160.295176" style="fill: #e181b5; stroke: #000000"/>
    </g>
    <g clip-path="url(#p1cde99b915)">
     <use xlink:href="#C0_0_d4c066d928" x="94.943355" y="137.50023" style="fill: #f5c6e2; stroke: #000000"/>
    </g>
    <g clip-path="url(#p1cde99b915)">
     <use xlink:href="#C0_0_d4c066d928" x="77.052846" y="169.897236" style="fill: #e48bbc; stroke: #000000"/>
    </g>
    <g clip-path="url(#p1cde99b915)">
     <use xlink:href="#C0_0_d4c066d928" x="153.737895" y="75.335629" style="fill: #f4c1df; stroke: #000000"/>
    </g>
    <g clip-path="url(#p1cde99b915)">
     <use xlink:href="#C0_0_d4c066d928" x="151.520304" y="67.799269" style="fill: #fbe7f2; stroke: #000000"/>
    </g>
    <g clip-path="url(#p1cde99b915)">
     <use xlink:href="#C0_0_d4c066d928" x="156.870762" y="78.003917" style="fill: #eca6cf; stroke: #000000"/>
    </g>
    <g clip-path="url(#p1cde99b915)">
     <use xlink:href="#C0_0_d4c066d928" x="126.287172" y="128.822283" style="fill: #d5579d; stroke: #000000"/>
    </g>
    <g clip-path="url(#p1cde99b915)">
     <use xlink:href="#C0_0_d4c066d928" x="95.793634" y="166.605024" style="fill: #cf4191; stroke: #000000"/>
    </g>
    <g clip-path="url(#p1cde99b915)">
     <use xlink:href="#C0_0_d4c066d928" x="150.273148" y="108.292341" style="fill: #cf4191; stroke: #000000"/>
    </g>
    <g clip-path="url(#p1cde99b915)">
     <use xlink:href="#C0_0_d4c066d928" x="141.795984" y="88.931444" style="fill: #f3bdde; stroke: #000000"/>
    </g>
    <g clip-path="url(#p1cde99b915)">
     <use xlink:href="#C0_0_d4c066d928" x="104.574962" y="139.556025" style="fill: #e58dbe; stroke: #000000"/>
    </g>
    <g clip-path="url(#p1cde99b915)">
     <use xlink:href="#C0_0_d4c066d928" x="96.622385" y="153.722285" style="fill: #de77ae; stroke: #000000"/>
    </g>
    <g clip-path="url(#p1cde99b915)">
     <use xlink:href="#C0_0_d4c066d928" x="107.636435" y="152.879383" style="fill: #d04493; stroke: #000000"/>
    </g>
    <g clip-path="url(#p1cde99b915)">
     <use xlink:href="#C0_0_d4c066d928" x="110.96818" y="151.587524" style="fill: #ce3d8f; stroke: #000000"/>
    </g>
    <g clip-path="url(#p1cde99b915)">
     <use xlink:href="#C0_0_d4c066d928" x="126.287172" y="126.386067" style="fill: #d861a2; stroke: #000000"/>
    </g>
    <g clip-path="url(#p1cde99b915)">
     <use xlink:href="#C0_0_d4c066d928" x="112.007439" y="150.536769" style="fill: #ce3d8f; stroke: #000000"/>
    </g>
    <g clip-path="url(#p1cde99b915)">
     <use xlink:href="#C0_0_d4c066d928" x="107.046619" y="154.704963" style="fill: #cf4191; stroke: #000000"/>
    </g>
    <g clip-path="url(#p1cde99b915)">
     <use xlink:href="#C0_0_d4c066d928" x="117.199201" y="92.08553" style="fill: #ddf1c1; stroke: #000000"/>
    </g>
    <g clip-path="url(#p1cde99b915)">
     <use xlink:href="#C0_0_d4c066d928" x="101.901321" y="120.365752" style="fill: #faeaf2; stroke: #000000"/>
    </g>
    <g clip-path="url(#p1cde99b915)">
     <use xlink:href="#C0_0_d4c066d928" x="90.325302" y="82.627667" style="fill: #276419; stroke: #000000"/>
    </g>
    <g clip-path="url(#p1cde99b915)">
     <use xlink:href="#C0_0_d4c066d928" x="120.516864" y="79.915169" style="fill: #83bf46; stroke: #000000"/>
    </g>
    <g clip-path="url(#p1cde99b915)">
     <use xlink:href="#C0_0_d4c066d928" x="173.747585" y="38.788099" style="fill: #f7f7f6; stroke: #000000"/>
    </g>
    <g clip-path="url(#p1cde99b915)">
     <use xlink:href="#C0_0_d4c066d928" x="156.21475" y="4.211116" style="fill: #276419; stroke: #000000"/>
    </g>
    <g clip-path="url(#p1cde99b915)">
     <use xlink:href="#C0_0_d4c066d928" x="124.937129" y="87.578656" style="fill: #edf6e1; stroke: #000000"/>
    </g>
    <g clip-path="url(#p1cde99b915)">
     <use xlink:href="#C0_0_d4c066d928" x="140.750083" y="57.248886" style="fill: #79b73d; stroke: #000000"/>
    </g>
    <g clip-path="url(#p1cde99b915)">
     <use xlink:href="#C0_0_d4c066d928" x="180.330421" y="21.631407" style="fill: #c7e89f; stroke: #000000"/>
    </g>
    <g clip-path="url(#p1cde99b915)">
     <use xlink:href="#C0_0_d4c066d928" x="145.306549" y="35.12041" style="fill: #276419; stroke: #000000"/>
    </g>
    <g clip-path="url(#p1cde99b915)">
     <use xlink:href="#C0_0_d4c066d928" x="155.948619" y="45.129691" style="fill: #acd977; stroke: #000000"/>
    </g>
    <g clip-path="url(#p1cde99b915)">
     <use xlink:href="#C0_0_d4c066d928" x="156.870762" y="31.372163" style="fill: #276419; stroke: #000000"/>
    </g>
    <g clip-path="url(#p1cde99b915)">
     <use xlink:href="#C0_0_d4c066d928" x="164.588173" y="47.368472" style="fill: #f4f7f0; stroke: #000000"/>
    </g>
    <g clip-path="url(#p1cde99b915)">
     <use xlink:href="#C0_0_d4c066d928" x="161.468299" y="40.477258" style="fill: #bbe28a; stroke: #000000"/>
    </g>
    <g clip-path="url(#p1cde99b915)">
     <use xlink:href="#C0_0_d4c066d928" x="154.444918" y="65.496475" style="fill: #fce5f1; stroke: #000000"/>
    </g>
    <g clip-path="url(#p1cde99b915)">
     <use xlink:href="#C0_0_d4c066d928" x="181.879144" y="11.299001" style="fill: #66a731; stroke: #000000"/>
    </g>
    <g clip-path="url(#p1cde99b915)">
     <use xlink:href="#C0_0_d4c066d928" x="162.578029" y="36.128317" style="fill: #95cb5c; stroke: #000000"/>
    </g>
    <g clip-path="url(#p1cde99b915)">
     <use xlink:href="#C0_0_d4c066d928" x="139.227301" y="80.135673" style="fill: #faeaf2; stroke: #000000"/>
    </g>
    <g clip-path="url(#p1cde99b915)">
     <use xlink:href="#C0_0_d4c066d928" x="169.531351" y="43.208594" style="fill: #f7f7f6; stroke: #000000"/>
    </g>
    <g clip-path="url(#p1cde99b915)">
     <use xlink:href="#C0_0_d4c066d928" x="145.674349" y="64.122376" style="fill: #ebf6db; stroke: #000000"/>
    </g>
   </g>
   <g id="line2d_47">
    <path d="M 8.098075 217 
L 210.730969 -1 
" clip-path="url(#p1cde99b915)" style="fill: none; stroke-dasharray: 3.7,1.6; stroke-dashoffset: 0; stroke: #000000"/>
   </g>
   <g id="patch_3">
    <path d="M 34.52224 188.571901 
L 34.52224 8.405193 
" style="fill: none; stroke: #262626; stroke-width: 1.25; stroke-linejoin: miter; stroke-linecap: square"/>
   </g>
   <g id="patch_4">
    <path d="M 201.98876 188.571901 
L 201.98876 8.405193 
" style="fill: none; stroke: #262626; stroke-width: 1.25; stroke-linejoin: miter; stroke-linecap: square"/>
   </g>
   <g id="patch_5">
    <path d="M 34.52224 188.571901 
L 201.98876 188.571901 
" style="fill: none; stroke: #262626; stroke-width: 1.25; stroke-linejoin: miter; stroke-linecap: square"/>
   </g>
   <g id="patch_6">
    <path d="M 34.52224 8.405193 
L 201.98876 8.405193 
" style="fill: none; stroke: #262626; stroke-width: 1.25; stroke-linejoin: miter; stroke-linecap: square"/>
   </g>
  </g>
 </g>
 <defs>
  <clipPath id="p1cde99b915">
   <rect x="34.52224" y="8.405193" width="167.46652" height="180.166707"/>
  </clipPath>
 </defs>
</svg>
